<?xml version="1.0" encoding="UTF-8" standalone="no"?>
<!DOCTYPE svg PUBLIC "-//W3C//DTD SVG 1.1//EN"
 "http://www.w3.org/Graphics/SVG/1.1/DTD/svg11.dtd">
<!-- Generated by graphviz version 2.43.0 (0)
 -->
<!-- Title: NaughtyBiker.LevelManagement.LevelManager Pages: 1 -->
<svg width="187pt" height="551pt"
 viewBox="0.00 0.00 187.00 551.00" xmlns="http://www.w3.org/2000/svg" xmlns:xlink="http://www.w3.org/1999/xlink">
<g id="graph0" class="graph" transform="scale(1 1) rotate(0) translate(4 547)">
<title>NaughtyBiker.LevelManagement.LevelManager</title>
<polygon fill="white" stroke="transparent" points="-4,4 -4,-547 183,-547 183,4 -4,4"/>
<!-- Node1 -->
<g id="node1" class="node">
<title>Node1</title>
<g id="a_node1"><a xlink:title=" ">
<polygon fill="#bfbfbf" stroke="black" points="0,-0.5 0,-255.5 179,-255.5 179,-0.5 0,-0.5"/>
<text text-anchor="start" x="8" y="-243.5" font-family="Helvetica,sans-Serif" font-size="10.00">NaughtyBiker.LevelManagement.</text>
<text text-anchor="middle" x="89.5" y="-232.5" font-family="Helvetica,sans-Serif" font-size="10.00">LevelManager</text>
<polyline fill="none" stroke="black" points="0,-225.5 179,-225.5 "/>
<text text-anchor="start" x="8" y="-213.5" font-family="Helvetica,sans-Serif" font-size="10.00">+ ActiveLevelLabel</text>
<text text-anchor="start" x="8" y="-202.5" font-family="Helvetica,sans-Serif" font-size="10.00">+ ActiveLevel</text>
<text text-anchor="start" x="8" y="-191.5" font-family="Helvetica,sans-Serif" font-size="10.00">+ FirstLevel</text>
<text text-anchor="start" x="8" y="-180.5" font-family="Helvetica,sans-Serif" font-size="10.00">&#45; levels</text>
<text text-anchor="start" x="8" y="-169.5" font-family="Helvetica,sans-Serif" font-size="10.00">&#45; sceneManager</text>
<text text-anchor="start" x="8" y="-158.5" font-family="Helvetica,sans-Serif" font-size="10.00">&#45; sceneUtility</text>
<text text-anchor="start" x="8" y="-147.5" font-family="Helvetica,sans-Serif" font-size="10.00">&#45; labels</text>
<text text-anchor="start" x="8" y="-136.5" font-family="Helvetica,sans-Serif" font-size="10.00">&#45; activeLevel</text>
<text text-anchor="start" x="8" y="-125.5" font-family="Helvetica,sans-Serif" font-size="10.00">&#45; firstLevel</text>
<polyline fill="none" stroke="black" points="0,-118.5 179,-118.5 "/>
<text text-anchor="start" x="8" y="-106.5" font-family="Helvetica,sans-Serif" font-size="10.00">+ Initialize()</text>
<text text-anchor="start" x="8" y="-95.5" font-family="Helvetica,sans-Serif" font-size="10.00">+ GetLevel()</text>
<text text-anchor="start" x="8" y="-84.5" font-family="Helvetica,sans-Serif" font-size="10.00">+ GetLevelLabel()</text>
<text text-anchor="start" x="8" y="-73.5" font-family="Helvetica,sans-Serif" font-size="10.00">+ GetLevelLabel()</text>
<text text-anchor="start" x="8" y="-62.5" font-family="Helvetica,sans-Serif" font-size="10.00">+ LoadLevel()</text>
<text text-anchor="start" x="8" y="-51.5" font-family="Helvetica,sans-Serif" font-size="10.00">+ LoadNextLevel()</text>
<text text-anchor="start" x="8" y="-40.5" font-family="Helvetica,sans-Serif" font-size="10.00">+ LoadPreviousLevel()</text>
<text text-anchor="start" x="8" y="-29.5" font-family="Helvetica,sans-Serif" font-size="10.00">+ LoadFirstLevel()</text>
<text text-anchor="start" x="8" y="-18.5" font-family="Helvetica,sans-Serif" font-size="10.00">+ ReloadLevel()</text>
<text text-anchor="start" x="8" y="-7.5" font-family="Helvetica,sans-Serif" font-size="10.00">&#45; LevelManager()</text>
</a>
</g>
</g>
<!-- Node2 -->
<g id="node2" class="node">
<title>Node2</title>
<g id="a_node2"><a xlink:href="../../df/d4c/interface_naughty_biker_1_1_level_management_1_1_interfaces_1_1_i_level_manager.html" target="_top" xlink:title=" ">
<polygon fill="white" stroke="black" points="26,-292.5 26,-448.5 153,-448.5 153,-292.5 26,-292.5"/>
<text text-anchor="middle" x="89.5" y="-436.5" font-family="Helvetica,sans-Serif" font-size="10.00">ILevelManager</text>
<polyline fill="none" stroke="black" points="26,-429.5 153,-429.5 "/>
<text text-anchor="start" x="34" y="-417.5" font-family="Helvetica,sans-Serif" font-size="10.00">+ ActiveLevelLabel</text>
<text text-anchor="start" x="34" y="-406.5" font-family="Helvetica,sans-Serif" font-size="10.00">+ ActiveLevel</text>
<text text-anchor="start" x="34" y="-395.5" font-family="Helvetica,sans-Serif" font-size="10.00">+ FirstLevel</text>
<polyline fill="none" stroke="black" points="26,-388.5 153,-388.5 "/>
<text text-anchor="start" x="34" y="-376.5" font-family="Helvetica,sans-Serif" font-size="10.00">+ GetLevel()</text>
<text text-anchor="start" x="34" y="-365.5" font-family="Helvetica,sans-Serif" font-size="10.00">+ GetLevelLabel()</text>
<text text-anchor="start" x="34" y="-354.5" font-family="Helvetica,sans-Serif" font-size="10.00">+ GetLevelLabel()</text>
<text text-anchor="start" x="34" y="-343.5" font-family="Helvetica,sans-Serif" font-size="10.00">+ LoadLevel()</text>
<text text-anchor="start" x="34" y="-332.5" font-family="Helvetica,sans-Serif" font-size="10.00">+ LoadNextLevel()</text>
<text text-anchor="start" x="34" y="-321.5" font-family="Helvetica,sans-Serif" font-size="10.00">+ LoadPreviousLevel()</text>
<text text-anchor="start" x="34" y="-310.5" font-family="Helvetica,sans-Serif" font-size="10.00">+ LoadFirstLevel()</text>
<text text-anchor="start" x="34" y="-299.5" font-family="Helvetica,sans-Serif" font-size="10.00">+ ReloadLevel()</text>
</a>
</g>
</g>
<!-- Node2&#45;&gt;Node1 -->
<g id="edge1" class="edge">
<title>Node2&#45;&gt;Node1</title>
<path fill="none" stroke="midnightblue" d="M89.5,-282.3C89.5,-273.58 89.5,-264.61 89.5,-255.59"/>
<polygon fill="none" stroke="midnightblue" points="86,-282.41 89.5,-292.41 93,-282.41 86,-282.41"/>
</g>
<!-- Node3 -->
<g id="node3" class="node">
<title>Node3</title>
<g id="a_node3"><a xlink:title=" ">
<polygon fill="white" stroke="#bfbfbf" points="51,-485.5 51,-542.5 128,-542.5 128,-485.5 51,-485.5"/>
<text text-anchor="middle" x="89.5" y="-530.5" font-family="Helvetica,sans-Serif" font-size="10.00">IInitializable</text>
<polyline fill="none" stroke="#bfbfbf" points="51,-523.5 128,-523.5 "/>
<text text-anchor="middle" x="89.5" y="-511.5" font-family="Helvetica,sans-Serif" font-size="10.00"> </text>
<polyline fill="none" stroke="#bfbfbf" points="51,-504.5 128,-504.5 "/>
<text text-anchor="middle" x="89.5" y="-492.5" font-family="Helvetica,sans-Serif" font-size="10.00"> </text>
</a>
</g>
</g>
<!-- Node3&#45;&gt;Node2 -->
<g id="edge2" class="edge">
<title>Node3&#45;&gt;Node2</title>
<path fill="none" stroke="midnightblue" d="M89.5,-475.34C89.5,-467.04 89.5,-457.96 89.5,-448.74"/>
<polygon fill="none" stroke="midnightblue" points="86,-475.38 89.5,-485.38 93,-475.38 86,-475.38"/>
</g>
</g>
</svg>
