<?xml version="1.0" encoding="UTF-8" standalone="no"?>
<!DOCTYPE svg PUBLIC "-//W3C//DTD SVG 1.1//EN"
 "http://www.w3.org/Graphics/SVG/1.1/DTD/svg11.dtd">
<!-- Generated by graphviz version 2.43.0 (0)
 -->
<!-- Title: NaughtyBikerGames.SDK.LevelManagement.Interfaces.ILevelManager Pages: 1 -->
<svg width="216pt" height="562pt"
 viewBox="0.00 0.00 216.00 562.00" xmlns="http://www.w3.org/2000/svg" xmlns:xlink="http://www.w3.org/1999/xlink">
<g id="graph0" class="graph" transform="scale(1 1) rotate(0) translate(4 558)">
<title>NaughtyBikerGames.SDK.LevelManagement.Interfaces.ILevelManager</title>
<polygon fill="white" stroke="transparent" points="-4,4 -4,-558 212,-558 212,4 -4,4"/>
<!-- Node1 -->
<g id="node1" class="node">
<title>Node1</title>
<g id="a_node1"><a xlink:title=" ">
<polygon fill="#bfbfbf" stroke="black" points="0,-292.5 0,-459.5 208,-459.5 208,-292.5 0,-292.5"/>
<text text-anchor="start" x="8" y="-447.5" font-family="Helvetica,sans-Serif" font-size="10.00">NaughtyBikerGames.SDK.Level</text>
<text text-anchor="middle" x="104" y="-436.5" font-family="Helvetica,sans-Serif" font-size="10.00">Management.Interfaces.ILevelManager</text>
<polyline fill="none" stroke="black" points="0,-429.5 208,-429.5 "/>
<text text-anchor="start" x="8" y="-417.5" font-family="Helvetica,sans-Serif" font-size="10.00">+ ActiveLevelLabel</text>
<text text-anchor="start" x="8" y="-406.5" font-family="Helvetica,sans-Serif" font-size="10.00">+ ActiveLevel</text>
<text text-anchor="start" x="8" y="-395.5" font-family="Helvetica,sans-Serif" font-size="10.00">+ FirstLevel</text>
<polyline fill="none" stroke="black" points="0,-388.5 208,-388.5 "/>
<text text-anchor="start" x="8" y="-376.5" font-family="Helvetica,sans-Serif" font-size="10.00">+ GetLevel()</text>
<text text-anchor="start" x="8" y="-365.5" font-family="Helvetica,sans-Serif" font-size="10.00">+ GetLevelLabel()</text>
<text text-anchor="start" x="8" y="-354.5" font-family="Helvetica,sans-Serif" font-size="10.00">+ GetLevelLabel()</text>
<text text-anchor="start" x="8" y="-343.5" font-family="Helvetica,sans-Serif" font-size="10.00">+ LoadLevel()</text>
<text text-anchor="start" x="8" y="-332.5" font-family="Helvetica,sans-Serif" font-size="10.00">+ LoadNextLevel()</text>
<text text-anchor="start" x="8" y="-321.5" font-family="Helvetica,sans-Serif" font-size="10.00">+ LoadPreviousLevel()</text>
<text text-anchor="start" x="8" y="-310.5" font-family="Helvetica,sans-Serif" font-size="10.00">+ LoadFirstLevel()</text>
<text text-anchor="start" x="8" y="-299.5" font-family="Helvetica,sans-Serif" font-size="10.00">+ ReloadLevel()</text>
</a>
</g>
</g>
<!-- Node3 -->
<g id="node3" class="node">
<title>Node3</title>
<g id="a_node3"><a xlink:href="../../d8/d5d/class_naughty_biker_games_1_1_s_d_k_1_1_level_management_1_1_level_manager.html" target="_top" xlink:title=" ">
<polygon fill="white" stroke="black" points="19,-0.5 19,-255.5 189,-255.5 189,-0.5 19,-0.5"/>
<text text-anchor="start" x="27" y="-243.5" font-family="Helvetica,sans-Serif" font-size="10.00">NaughtyBikerGames.SDK.Level</text>
<text text-anchor="middle" x="104" y="-232.5" font-family="Helvetica,sans-Serif" font-size="10.00">Management.LevelManager</text>
<polyline fill="none" stroke="black" points="19,-225.5 189,-225.5 "/>
<text text-anchor="start" x="27" y="-213.5" font-family="Helvetica,sans-Serif" font-size="10.00">+ ActiveLevelLabel</text>
<text text-anchor="start" x="27" y="-202.5" font-family="Helvetica,sans-Serif" font-size="10.00">+ ActiveLevel</text>
<text text-anchor="start" x="27" y="-191.5" font-family="Helvetica,sans-Serif" font-size="10.00">+ FirstLevel</text>
<text text-anchor="start" x="27" y="-180.5" font-family="Helvetica,sans-Serif" font-size="10.00">&#45; levels</text>
<text text-anchor="start" x="27" y="-169.5" font-family="Helvetica,sans-Serif" font-size="10.00">&#45; sceneManager</text>
<text text-anchor="start" x="27" y="-158.5" font-family="Helvetica,sans-Serif" font-size="10.00">&#45; sceneUtility</text>
<text text-anchor="start" x="27" y="-147.5" font-family="Helvetica,sans-Serif" font-size="10.00">&#45; labels</text>
<text text-anchor="start" x="27" y="-136.5" font-family="Helvetica,sans-Serif" font-size="10.00">&#45; activeLevel</text>
<text text-anchor="start" x="27" y="-125.5" font-family="Helvetica,sans-Serif" font-size="10.00">&#45; firstLevel</text>
<polyline fill="none" stroke="black" points="19,-118.5 189,-118.5 "/>
<text text-anchor="start" x="27" y="-106.5" font-family="Helvetica,sans-Serif" font-size="10.00">+ Initialize()</text>
<text text-anchor="start" x="27" y="-95.5" font-family="Helvetica,sans-Serif" font-size="10.00">+ GetLevel()</text>
<text text-anchor="start" x="27" y="-84.5" font-family="Helvetica,sans-Serif" font-size="10.00">+ GetLevelLabel()</text>
<text text-anchor="start" x="27" y="-73.5" font-family="Helvetica,sans-Serif" font-size="10.00">+ GetLevelLabel()</text>
<text text-anchor="start" x="27" y="-62.5" font-family="Helvetica,sans-Serif" font-size="10.00">+ LoadLevel()</text>
<text text-anchor="start" x="27" y="-51.5" font-family="Helvetica,sans-Serif" font-size="10.00">+ LoadNextLevel()</text>
<text text-anchor="start" x="27" y="-40.5" font-family="Helvetica,sans-Serif" font-size="10.00">+ LoadPreviousLevel()</text>
<text text-anchor="start" x="27" y="-29.5" font-family="Helvetica,sans-Serif" font-size="10.00">+ LoadFirstLevel()</text>
<text text-anchor="start" x="27" y="-18.5" font-family="Helvetica,sans-Serif" font-size="10.00">+ ReloadLevel()</text>
<text text-anchor="start" x="27" y="-7.5" font-family="Helvetica,sans-Serif" font-size="10.00">&#45; LevelManager()</text>
</a>
</g>
</g>
<!-- Node1&#45;&gt;Node3 -->
<g id="edge2" class="edge">
<title>Node1&#45;&gt;Node3</title>
<path fill="none" stroke="midnightblue" d="M104,-282.27C104,-273.54 104,-264.6 104,-255.63"/>
<polygon fill="none" stroke="midnightblue" points="100.5,-282.4 104,-292.4 107.5,-282.4 100.5,-282.4"/>
</g>
<!-- Node2 -->
<g id="node2" class="node">
<title>Node2</title>
<g id="a_node2"><a xlink:title=" ">
<polygon fill="white" stroke="#bfbfbf" points="65.5,-496.5 65.5,-553.5 142.5,-553.5 142.5,-496.5 65.5,-496.5"/>
<text text-anchor="middle" x="104" y="-541.5" font-family="Helvetica,sans-Serif" font-size="10.00">IInitializable</text>
<polyline fill="none" stroke="#bfbfbf" points="65.5,-534.5 142.5,-534.5 "/>
<text text-anchor="middle" x="104" y="-522.5" font-family="Helvetica,sans-Serif" font-size="10.00"> </text>
<polyline fill="none" stroke="#bfbfbf" points="65.5,-515.5 142.5,-515.5 "/>
<text text-anchor="middle" x="104" y="-503.5" font-family="Helvetica,sans-Serif" font-size="10.00"> </text>
</a>
</g>
</g>
<!-- Node2&#45;&gt;Node1 -->
<g id="edge1" class="edge">
<title>Node2&#45;&gt;Node1</title>
<path fill="none" stroke="midnightblue" d="M104,-486.35C104,-478.08 104,-469.01 104,-459.74"/>
<polygon fill="none" stroke="midnightblue" points="100.5,-486.35 104,-496.35 107.5,-486.35 100.5,-486.35"/>
</g>
</g>
</svg>
