<?xml version="1.0" encoding="UTF-8" standalone="no"?>
<!DOCTYPE svg PUBLIC "-//W3C//DTD SVG 1.1//EN"
 "http://www.w3.org/Graphics/SVG/1.1/DTD/svg11.dtd">
<!-- Generated by graphviz version 2.43.0 (0)
 -->
<!-- Title: NaughtyBikerGames.SDK.InfoObjects.Components.InitializePersistentData Pages: 1 -->
<svg width="243pt" height="182pt"
 viewBox="0.00 0.00 243.00 182.00" xmlns="http://www.w3.org/2000/svg" xmlns:xlink="http://www.w3.org/1999/xlink">
<g id="graph0" class="graph" transform="scale(1 1) rotate(0) translate(4 178)">
<title>NaughtyBikerGames.SDK.InfoObjects.Components.InitializePersistentData</title>
<polygon fill="white" stroke="transparent" points="-4,4 -4,-178 239,-178 239,4 -4,4"/>
<!-- Node1 -->
<g id="node1" class="node">
<title>Node1</title>
<g id="a_node1"><a xlink:title=" ">
<polygon fill="#bfbfbf" stroke="black" points="0,-0.5 0,-79.5 235,-79.5 235,-0.5 0,-0.5"/>
<text text-anchor="start" x="8" y="-67.5" font-family="Helvetica,sans-Serif" font-size="10.00">NaughtyBikerGames.SDK.Info</text>
<text text-anchor="middle" x="117.5" y="-56.5" font-family="Helvetica,sans-Serif" font-size="10.00">Objects.Components.InitializePersistentData</text>
<polyline fill="none" stroke="black" points="0,-49.5 235,-49.5 "/>
<text text-anchor="start" x="8" y="-37.5" font-family="Helvetica,sans-Serif" font-size="10.00">&#45; signalBus</text>
<polyline fill="none" stroke="black" points="0,-30.5 235,-30.5 "/>
<text text-anchor="start" x="8" y="-18.5" font-family="Helvetica,sans-Serif" font-size="10.00">+ Construct()</text>
<text text-anchor="start" x="8" y="-7.5" font-family="Helvetica,sans-Serif" font-size="10.00">+ Start()</text>
</a>
</g>
</g>
<!-- Node2 -->
<g id="node2" class="node">
<title>Node2</title>
<g id="a_node2"><a xlink:title=" ">
<polygon fill="white" stroke="#bfbfbf" points="71,-116.5 71,-173.5 164,-173.5 164,-116.5 71,-116.5"/>
<text text-anchor="middle" x="117.5" y="-161.5" font-family="Helvetica,sans-Serif" font-size="10.00">MonoBehaviour</text>
<polyline fill="none" stroke="#bfbfbf" points="71,-154.5 164,-154.5 "/>
<text text-anchor="middle" x="117.5" y="-142.5" font-family="Helvetica,sans-Serif" font-size="10.00"> </text>
<polyline fill="none" stroke="#bfbfbf" points="71,-135.5 164,-135.5 "/>
<text text-anchor="middle" x="117.5" y="-123.5" font-family="Helvetica,sans-Serif" font-size="10.00"> </text>
</a>
</g>
</g>
<!-- Node2&#45;&gt;Node1 -->
<g id="edge1" class="edge">
<title>Node2&#45;&gt;Node1</title>
<path fill="none" stroke="midnightblue" d="M117.5,-106.16C117.5,-97.47 117.5,-88.23 117.5,-79.52"/>
<polygon fill="none" stroke="midnightblue" points="114,-106.4 117.5,-116.4 121,-106.4 114,-106.4"/>
</g>
</g>
</svg>
