<?xml version="1.0" encoding="UTF-8" standalone="no"?>
<!DOCTYPE svg PUBLIC "-//W3C//DTD SVG 1.1//EN"
 "http://www.w3.org/Graphics/SVG/1.1/DTD/svg11.dtd">
<!-- Generated by graphviz version 2.43.0 (0)
 -->
<!-- Title: NaughtyBiker.InfoObjects.Info Pages: 1 -->
<svg width="170pt" height="314pt"
 viewBox="0.00 0.00 170.00 314.00" xmlns="http://www.w3.org/2000/svg" xmlns:xlink="http://www.w3.org/1999/xlink">
<g id="graph0" class="graph" transform="scale(1 1) rotate(0) translate(4 310)">
<title>NaughtyBiker.InfoObjects.Info</title>
<polygon fill="white" stroke="transparent" points="-4,4 -4,-310 166,-310 166,4 -4,4"/>
<!-- Node1 -->
<g id="node1" class="node">
<title>Node1</title>
<g id="a_node1"><a xlink:title=" ">
<polygon fill="#bfbfbf" stroke="black" points="0,-0.5 0,-156.5 162,-156.5 162,-0.5 0,-0.5"/>
<text text-anchor="middle" x="81" y="-144.5" font-family="Helvetica,sans-Serif" font-size="10.00">NaughtyBiker.InfoObjects.Info</text>
<polyline fill="none" stroke="black" points="0,-137.5 162,-137.5 "/>
<text text-anchor="start" x="8" y="-125.5" font-family="Helvetica,sans-Serif" font-size="10.00">+ Data</text>
<text text-anchor="start" x="8" y="-114.5" font-family="Helvetica,sans-Serif" font-size="10.00">+ StateChanged</text>
<text text-anchor="start" x="8" y="-103.5" font-family="Helvetica,sans-Serif" font-size="10.00">+ Id</text>
<text text-anchor="start" x="8" y="-92.5" font-family="Helvetica,sans-Serif" font-size="10.00">+ this[string key]</text>
<text text-anchor="start" x="8" y="-81.5" font-family="Helvetica,sans-Serif" font-size="10.00">&#45; data</text>
<text text-anchor="start" x="8" y="-70.5" font-family="Helvetica,sans-Serif" font-size="10.00">&#45; stateChanged</text>
<text text-anchor="start" x="8" y="-59.5" font-family="Helvetica,sans-Serif" font-size="10.00">&#45; id</text>
<polyline fill="none" stroke="black" points="0,-52.5 162,-52.5 "/>
<text text-anchor="start" x="8" y="-40.5" font-family="Helvetica,sans-Serif" font-size="10.00">+ Info()</text>
<text text-anchor="start" x="8" y="-29.5" font-family="Helvetica,sans-Serif" font-size="10.00">+ Get()</text>
<text text-anchor="start" x="8" y="-18.5" font-family="Helvetica,sans-Serif" font-size="10.00">+ Set()</text>
<text text-anchor="start" x="8" y="-7.5" font-family="Helvetica,sans-Serif" font-size="10.00">+ Exists()</text>
</a>
</g>
</g>
<!-- Node2 -->
<g id="node2" class="node">
<title>Node2</title>
<g id="a_node2"><a xlink:href="../../d5/daf/interface_naughty_biker_1_1_info_objects_1_1_interfaces_1_1_i_info.html" target="_top" xlink:title=" ">
<polygon fill="white" stroke="black" points="30.5,-193.5 30.5,-305.5 131.5,-305.5 131.5,-193.5 30.5,-193.5"/>
<text text-anchor="middle" x="81" y="-293.5" font-family="Helvetica,sans-Serif" font-size="10.00">IInfo</text>
<polyline fill="none" stroke="black" points="30.5,-286.5 131.5,-286.5 "/>
<text text-anchor="start" x="38.5" y="-274.5" font-family="Helvetica,sans-Serif" font-size="10.00">+ Data</text>
<text text-anchor="start" x="38.5" y="-263.5" font-family="Helvetica,sans-Serif" font-size="10.00">+ StateChanged</text>
<text text-anchor="start" x="38.5" y="-252.5" font-family="Helvetica,sans-Serif" font-size="10.00">+ Id</text>
<text text-anchor="start" x="38.5" y="-241.5" font-family="Helvetica,sans-Serif" font-size="10.00">+ this[string key]</text>
<polyline fill="none" stroke="black" points="30.5,-234.5 131.5,-234.5 "/>
<text text-anchor="start" x="38.5" y="-222.5" font-family="Helvetica,sans-Serif" font-size="10.00">+ Get()</text>
<text text-anchor="start" x="38.5" y="-211.5" font-family="Helvetica,sans-Serif" font-size="10.00">+ Set()</text>
<text text-anchor="start" x="38.5" y="-200.5" font-family="Helvetica,sans-Serif" font-size="10.00">+ Exists()</text>
</a>
</g>
</g>
<!-- Node2&#45;&gt;Node1 -->
<g id="edge1" class="edge">
<title>Node2&#45;&gt;Node1</title>
<path fill="none" stroke="midnightblue" d="M81,-183.16C81,-174.51 81,-165.57 81,-156.74"/>
<polygon fill="none" stroke="midnightblue" points="77.5,-183.16 81,-193.16 84.5,-183.16 77.5,-183.16"/>
</g>
</g>
</svg>
