<?xml version="1.0" encoding="UTF-8" standalone="no"?>
<!DOCTYPE svg PUBLIC "-//W3C//DTD SVG 1.1//EN"
 "http://www.w3.org/Graphics/SVG/1.1/DTD/svg11.dtd">
<!-- Generated by graphviz version 2.43.0 (0)
 -->
<!-- Title: NaughtyBikerGames.SDK.Destroy.DontDestroyOnLoad Pages: 1 -->
<svg width="191pt" height="193pt"
 viewBox="0.00 0.00 191.00 193.00" xmlns="http://www.w3.org/2000/svg" xmlns:xlink="http://www.w3.org/1999/xlink">
<g id="graph0" class="graph" transform="scale(1 1) rotate(0) translate(4 189)">
<title>NaughtyBikerGames.SDK.Destroy.DontDestroyOnLoad</title>
<polygon fill="white" stroke="transparent" points="-4,4 -4,-189 187,-189 187,4 -4,4"/>
<!-- Node1 -->
<g id="node1" class="node">
<title>Node1</title>
<g id="a_node1"><a xlink:title=" ">
<polygon fill="#bfbfbf" stroke="black" points="0,-0.5 0,-90.5 183,-90.5 183,-0.5 0,-0.5"/>
<text text-anchor="start" x="8" y="-78.5" font-family="Helvetica,sans-Serif" font-size="10.00">NaughtyBikerGames.SDK.Destroy.</text>
<text text-anchor="middle" x="91.5" y="-67.5" font-family="Helvetica,sans-Serif" font-size="10.00">DontDestroyOnLoad</text>
<polyline fill="none" stroke="black" points="0,-60.5 183,-60.5 "/>
<text text-anchor="start" x="8" y="-48.5" font-family="Helvetica,sans-Serif" font-size="10.00">+ PreserveDuplicates</text>
<text text-anchor="start" x="8" y="-37.5" font-family="Helvetica,sans-Serif" font-size="10.00">&#45; preserveDuplicates</text>
<polyline fill="none" stroke="black" points="0,-30.5 183,-30.5 "/>
<text text-anchor="start" x="8" y="-18.5" font-family="Helvetica,sans-Serif" font-size="10.00">+ Start()</text>
<text text-anchor="start" x="8" y="-7.5" font-family="Helvetica,sans-Serif" font-size="10.00">+ DontDestroy()</text>
</a>
</g>
</g>
<!-- Node2 -->
<g id="node2" class="node">
<title>Node2</title>
<g id="a_node2"><a xlink:title=" ">
<polygon fill="white" stroke="#bfbfbf" points="45,-127.5 45,-184.5 138,-184.5 138,-127.5 45,-127.5"/>
<text text-anchor="middle" x="91.5" y="-172.5" font-family="Helvetica,sans-Serif" font-size="10.00">MonoBehaviour</text>
<polyline fill="none" stroke="#bfbfbf" points="45,-165.5 138,-165.5 "/>
<text text-anchor="middle" x="91.5" y="-153.5" font-family="Helvetica,sans-Serif" font-size="10.00"> </text>
<polyline fill="none" stroke="#bfbfbf" points="45,-146.5 138,-146.5 "/>
<text text-anchor="middle" x="91.5" y="-134.5" font-family="Helvetica,sans-Serif" font-size="10.00"> </text>
</a>
</g>
</g>
<!-- Node2&#45;&gt;Node1 -->
<g id="edge1" class="edge">
<title>Node2&#45;&gt;Node1</title>
<path fill="none" stroke="midnightblue" d="M91.5,-117.21C91.5,-108.61 91.5,-99.39 91.5,-90.55"/>
<polygon fill="none" stroke="midnightblue" points="88,-117.34 91.5,-127.34 95,-117.34 88,-117.34"/>
</g>
</g>
</svg>
