<?xml version="1.0" encoding="UTF-8" standalone="no"?>
<!DOCTYPE svg PUBLIC "-//W3C//DTD SVG 1.1//EN"
 "http://www.w3.org/Graphics/SVG/1.1/DTD/svg11.dtd">
<!-- Generated by graphviz version 2.43.0 (0)
 -->
<!-- Title: NaughtyBiker.InfoObjects.Info Pages: 1 -->
<svg width="170pt" height="347pt"
 viewBox="0.00 0.00 170.00 347.00" xmlns="http://www.w3.org/2000/svg" xmlns:xlink="http://www.w3.org/1999/xlink">
<g id="graph0" class="graph" transform="scale(1 1) rotate(0) translate(4 343)">
<title>NaughtyBiker.InfoObjects.Info</title>
<polygon fill="white" stroke="transparent" points="-4,4 -4,-343 166,-343 166,4 -4,4"/>
<!-- Node1 -->
<g id="node1" class="node">
<title>Node1</title>
<g id="a_node1"><a xlink:title=" ">
<polygon fill="#bfbfbf" stroke="black" points="0,-0.5 0,-189.5 162,-189.5 162,-0.5 0,-0.5"/>
<text text-anchor="middle" x="81" y="-177.5" font-family="Helvetica,sans-Serif" font-size="10.00">NaughtyBiker.InfoObjects.Info</text>
<polyline fill="none" stroke="black" points="0,-170.5 162,-170.5 "/>
<text text-anchor="start" x="8" y="-158.5" font-family="Helvetica,sans-Serif" font-size="10.00">+ Data</text>
<text text-anchor="start" x="8" y="-147.5" font-family="Helvetica,sans-Serif" font-size="10.00">+ StateChanged</text>
<text text-anchor="start" x="8" y="-136.5" font-family="Helvetica,sans-Serif" font-size="10.00">+ Id</text>
<text text-anchor="start" x="8" y="-125.5" font-family="Helvetica,sans-Serif" font-size="10.00">+ this[string key]</text>
<text text-anchor="start" x="8" y="-114.5" font-family="Helvetica,sans-Serif" font-size="10.00">&#45; data</text>
<text text-anchor="start" x="8" y="-103.5" font-family="Helvetica,sans-Serif" font-size="10.00">&#45; stateChanged</text>
<text text-anchor="start" x="8" y="-92.5" font-family="Helvetica,sans-Serif" font-size="10.00">&#45; id</text>
<polyline fill="none" stroke="black" points="0,-85.5 162,-85.5 "/>
<text text-anchor="start" x="8" y="-73.5" font-family="Helvetica,sans-Serif" font-size="10.00">+ Info()</text>
<text text-anchor="start" x="8" y="-62.5" font-family="Helvetica,sans-Serif" font-size="10.00">+ Info()</text>
<text text-anchor="start" x="8" y="-51.5" font-family="Helvetica,sans-Serif" font-size="10.00">+ Info()</text>
<text text-anchor="start" x="8" y="-40.5" font-family="Helvetica,sans-Serif" font-size="10.00">+ Info()</text>
<text text-anchor="start" x="8" y="-29.5" font-family="Helvetica,sans-Serif" font-size="10.00">+ Get()</text>
<text text-anchor="start" x="8" y="-18.5" font-family="Helvetica,sans-Serif" font-size="10.00">+ Set()</text>
<text text-anchor="start" x="8" y="-7.5" font-family="Helvetica,sans-Serif" font-size="10.00">+ Exists()</text>
</a>
</g>
</g>
<!-- Node2 -->
<g id="node2" class="node">
<title>Node2</title>
<g id="a_node2"><a xlink:href="../../d5/daf/interface_naughty_biker_1_1_info_objects_1_1_interfaces_1_1_i_info.html" target="_top" xlink:title=" ">
<polygon fill="white" stroke="black" points="30.5,-226.5 30.5,-338.5 131.5,-338.5 131.5,-226.5 30.5,-226.5"/>
<text text-anchor="middle" x="81" y="-326.5" font-family="Helvetica,sans-Serif" font-size="10.00">IInfo</text>
<polyline fill="none" stroke="black" points="30.5,-319.5 131.5,-319.5 "/>
<text text-anchor="start" x="38.5" y="-307.5" font-family="Helvetica,sans-Serif" font-size="10.00">+ Data</text>
<text text-anchor="start" x="38.5" y="-296.5" font-family="Helvetica,sans-Serif" font-size="10.00">+ StateChanged</text>
<text text-anchor="start" x="38.5" y="-285.5" font-family="Helvetica,sans-Serif" font-size="10.00">+ Id</text>
<text text-anchor="start" x="38.5" y="-274.5" font-family="Helvetica,sans-Serif" font-size="10.00">+ this[string key]</text>
<polyline fill="none" stroke="black" points="30.5,-267.5 131.5,-267.5 "/>
<text text-anchor="start" x="38.5" y="-255.5" font-family="Helvetica,sans-Serif" font-size="10.00">+ Get()</text>
<text text-anchor="start" x="38.5" y="-244.5" font-family="Helvetica,sans-Serif" font-size="10.00">+ Set()</text>
<text text-anchor="start" x="38.5" y="-233.5" font-family="Helvetica,sans-Serif" font-size="10.00">+ Exists()</text>
</a>
</g>
</g>
<!-- Node2&#45;&gt;Node1 -->
<g id="edge1" class="edge">
<title>Node2&#45;&gt;Node1</title>
<path fill="none" stroke="midnightblue" d="M81,-216.32C81,-207.62 81,-198.57 81,-189.5"/>
<polygon fill="none" stroke="midnightblue" points="77.5,-216.35 81,-226.35 84.5,-216.35 77.5,-216.35"/>
</g>
</g>
</svg>
