<?xml version="1.0" encoding="UTF-8" standalone="no"?>
<!DOCTYPE svg PUBLIC "-//W3C//DTD SVG 1.1//EN"
 "http://www.w3.org/Graphics/SVG/1.1/DTD/svg11.dtd">
<!-- Generated by graphviz version 2.43.0 (0)
 -->
<!-- Title: NaughtyBiker.Signals.Installers.SignalsBaseInstaller Pages: 1 -->
<svg width="186pt" height="171pt"
 viewBox="0.00 0.00 186.00 171.00" xmlns="http://www.w3.org/2000/svg" xmlns:xlink="http://www.w3.org/1999/xlink">
<g id="graph0" class="graph" transform="scale(1 1) rotate(0) translate(4 167)">
<title>NaughtyBiker.Signals.Installers.SignalsBaseInstaller</title>
<polygon fill="white" stroke="transparent" points="-4,4 -4,-167 182,-167 182,4 -4,4"/>
<!-- Node1 -->
<g id="node1" class="node">
<title>Node1</title>
<g id="a_node1"><a xlink:title=" ">
<polygon fill="#bfbfbf" stroke="black" points="3.5,-0.5 3.5,-68.5 174.5,-68.5 174.5,-0.5 3.5,-0.5"/>
<text text-anchor="start" x="11.5" y="-56.5" font-family="Helvetica,sans-Serif" font-size="10.00">NaughtyBiker.Signals.Installers.</text>
<text text-anchor="middle" x="89" y="-45.5" font-family="Helvetica,sans-Serif" font-size="10.00">SignalsBaseInstaller</text>
<polyline fill="none" stroke="black" points="3.5,-38.5 174.5,-38.5 "/>
<text text-anchor="middle" x="89" y="-26.5" font-family="Helvetica,sans-Serif" font-size="10.00"> </text>
<polyline fill="none" stroke="black" points="3.5,-19.5 174.5,-19.5 "/>
<text text-anchor="start" x="11.5" y="-7.5" font-family="Helvetica,sans-Serif" font-size="10.00">+ InstallBindings()</text>
</a>
</g>
</g>
<!-- Node2 -->
<g id="node2" class="node">
<title>Node2</title>
<g id="a_node2"><a xlink:title=" ">
<polygon fill="white" stroke="#bfbfbf" points="0,-105.5 0,-162.5 178,-162.5 178,-105.5 0,-105.5"/>
<text text-anchor="middle" x="89" y="-150.5" font-family="Helvetica,sans-Serif" font-size="10.00">Installer&lt; SignalsBaseInstaller &gt;</text>
<polyline fill="none" stroke="#bfbfbf" points="0,-143.5 178,-143.5 "/>
<text text-anchor="middle" x="89" y="-131.5" font-family="Helvetica,sans-Serif" font-size="10.00"> </text>
<polyline fill="none" stroke="#bfbfbf" points="0,-124.5 178,-124.5 "/>
<text text-anchor="middle" x="89" y="-112.5" font-family="Helvetica,sans-Serif" font-size="10.00"> </text>
</a>
</g>
</g>
<!-- Node2&#45;&gt;Node1 -->
<g id="edge1" class="edge">
<title>Node2&#45;&gt;Node1</title>
<path fill="none" stroke="midnightblue" d="M89,-95.06C89,-86.39 89,-77.24 89,-68.79"/>
<polygon fill="none" stroke="midnightblue" points="85.5,-95.32 89,-105.32 92.5,-95.32 85.5,-95.32"/>
</g>
</g>
</svg>
