<?xml version="1.0" encoding="UTF-8" standalone="no"?>
<!DOCTYPE svg PUBLIC "-//W3C//DTD SVG 1.1//EN"
 "http://www.w3.org/Graphics/SVG/1.1/DTD/svg11.dtd">
<!-- Generated by graphviz version 2.43.0 (0)
 -->
<!-- Title: NaughtyBiker.LevelManagement.Installers.LevelManagerBaseInstaller Pages: 1 -->
<svg width="217pt" height="298pt"
 viewBox="0.00 0.00 217.00 298.00" xmlns="http://www.w3.org/2000/svg" xmlns:xlink="http://www.w3.org/1999/xlink">
<g id="graph0" class="graph" transform="scale(1 1) rotate(0) translate(4 294)">
<title>NaughtyBiker.LevelManagement.Installers.LevelManagerBaseInstaller</title>
<polygon fill="white" stroke="transparent" points="-4,4 -4,-294 213,-294 213,4 -4,4"/>
<!-- Node1 -->
<g id="node1" class="node">
<title>Node1</title>
<g id="a_node1"><a xlink:title=" ">
<polygon fill="#bfbfbf" stroke="black" points="6,-116.5 6,-184.5 203,-184.5 203,-116.5 6,-116.5"/>
<text text-anchor="start" x="14" y="-172.5" font-family="Helvetica,sans-Serif" font-size="10.00">NaughtyBiker.LevelManagement.</text>
<text text-anchor="middle" x="104.5" y="-161.5" font-family="Helvetica,sans-Serif" font-size="10.00">Installers.LevelManagerBaseInstaller</text>
<polyline fill="none" stroke="black" points="6,-154.5 203,-154.5 "/>
<text text-anchor="middle" x="104.5" y="-142.5" font-family="Helvetica,sans-Serif" font-size="10.00"> </text>
<polyline fill="none" stroke="black" points="6,-135.5 203,-135.5 "/>
<text text-anchor="start" x="14" y="-123.5" font-family="Helvetica,sans-Serif" font-size="10.00">+ InstallBindings()</text>
</a>
</g>
</g>
<!-- Node3 -->
<g id="node3" class="node">
<title>Node3</title>
<g id="a_node3"><a xlink:href="../../d1/d84/class_naughty_biker_1_1_level_management_1_1_installers_1_1_level_manager_scene_wrappers_installer.html" target="_top" xlink:title=" ">
<polygon fill="white" stroke="black" points="0,-0.5 0,-79.5 209,-79.5 209,-0.5 0,-0.5"/>
<text text-anchor="start" x="8" y="-67.5" font-family="Helvetica,sans-Serif" font-size="10.00">NaughtyBiker.LevelManagement.</text>
<text text-anchor="start" x="8" y="-56.5" font-family="Helvetica,sans-Serif" font-size="10.00">Installers.LevelManagerSceneWrappers</text>
<text text-anchor="middle" x="104.5" y="-45.5" font-family="Helvetica,sans-Serif" font-size="10.00">Installer</text>
<polyline fill="none" stroke="black" points="0,-38.5 209,-38.5 "/>
<text text-anchor="middle" x="104.5" y="-26.5" font-family="Helvetica,sans-Serif" font-size="10.00"> </text>
<polyline fill="none" stroke="black" points="0,-19.5 209,-19.5 "/>
<text text-anchor="start" x="8" y="-7.5" font-family="Helvetica,sans-Serif" font-size="10.00">+ InstallBindings()</text>
</a>
</g>
</g>
<!-- Node1&#45;&gt;Node3 -->
<g id="edge2" class="edge">
<title>Node1&#45;&gt;Node3</title>
<path fill="none" stroke="midnightblue" d="M104.5,-106.27C104.5,-97.48 104.5,-88.28 104.5,-79.65"/>
<polygon fill="none" stroke="midnightblue" points="101,-106.36 104.5,-116.36 108,-106.36 101,-106.36"/>
</g>
<!-- Node2 -->
<g id="node2" class="node">
<title>Node2</title>
<g id="a_node2"><a xlink:title=" ">
<polygon fill="white" stroke="#bfbfbf" points="24,-221.5 24,-289.5 185,-289.5 185,-221.5 24,-221.5"/>
<text text-anchor="start" x="32" y="-277.5" font-family="Helvetica,sans-Serif" font-size="10.00">Installer&lt; LevelManagerBase</text>
<text text-anchor="middle" x="104.5" y="-266.5" font-family="Helvetica,sans-Serif" font-size="10.00">Installer &gt;</text>
<polyline fill="none" stroke="#bfbfbf" points="24,-259.5 185,-259.5 "/>
<text text-anchor="middle" x="104.5" y="-247.5" font-family="Helvetica,sans-Serif" font-size="10.00"> </text>
<polyline fill="none" stroke="#bfbfbf" points="24,-240.5 185,-240.5 "/>
<text text-anchor="middle" x="104.5" y="-228.5" font-family="Helvetica,sans-Serif" font-size="10.00"> </text>
</a>
</g>
</g>
<!-- Node2&#45;&gt;Node1 -->
<g id="edge1" class="edge">
<title>Node2&#45;&gt;Node1</title>
<path fill="none" stroke="midnightblue" d="M104.5,-211.14C104.5,-202.26 104.5,-193.04 104.5,-184.59"/>
<polygon fill="none" stroke="midnightblue" points="101,-211.34 104.5,-221.34 108,-211.34 101,-211.34"/>
</g>
</g>
</svg>
