<?xml version="1.0" encoding="UTF-8" standalone="no"?>
<!DOCTYPE svg PUBLIC "-//W3C//DTD SVG 1.1//EN"
 "http://www.w3.org/Graphics/SVG/1.1/DTD/svg11.dtd">
<!-- Generated by graphviz version 2.43.0 (0)
 -->
<!-- Title: NaughtyBiker.Destroy.DestroyAfterSeconds Pages: 1 -->
<svg width="171pt" height="204pt"
 viewBox="0.00 0.00 171.00 204.00" xmlns="http://www.w3.org/2000/svg" xmlns:xlink="http://www.w3.org/1999/xlink">
<g id="graph0" class="graph" transform="scale(1 1) rotate(0) translate(4 200)">
<title>NaughtyBiker.Destroy.DestroyAfterSeconds</title>
<polygon fill="white" stroke="transparent" points="-4,4 -4,-200 167,-200 167,4 -4,4"/>
<!-- Node1 -->
<g id="node1" class="node">
<title>Node1</title>
<g id="a_node1"><a xlink:title=" ">
<polygon fill="#bfbfbf" stroke="black" points="0,-0.5 0,-101.5 163,-101.5 163,-0.5 0,-0.5"/>
<text text-anchor="start" x="8" y="-89.5" font-family="Helvetica,sans-Serif" font-size="10.00">NaughtyBiker.Destroy.Destroy</text>
<text text-anchor="middle" x="81.5" y="-78.5" font-family="Helvetica,sans-Serif" font-size="10.00">AfterSeconds</text>
<polyline fill="none" stroke="black" points="0,-71.5 163,-71.5 "/>
<text text-anchor="start" x="8" y="-59.5" font-family="Helvetica,sans-Serif" font-size="10.00">+ Seconds</text>
<text text-anchor="start" x="8" y="-48.5" font-family="Helvetica,sans-Serif" font-size="10.00">&#45; seconds</text>
<text text-anchor="start" x="8" y="-37.5" font-family="Helvetica,sans-Serif" font-size="10.00">&#45; timer</text>
<polyline fill="none" stroke="black" points="0,-30.5 163,-30.5 "/>
<text text-anchor="start" x="8" y="-18.5" font-family="Helvetica,sans-Serif" font-size="10.00">&#45; Start()</text>
<text text-anchor="start" x="8" y="-7.5" font-family="Helvetica,sans-Serif" font-size="10.00">&#45; Update()</text>
</a>
</g>
</g>
<!-- Node2 -->
<g id="node2" class="node">
<title>Node2</title>
<g id="a_node2"><a xlink:title=" ">
<polygon fill="white" stroke="#bfbfbf" points="35,-138.5 35,-195.5 128,-195.5 128,-138.5 35,-138.5"/>
<text text-anchor="middle" x="81.5" y="-183.5" font-family="Helvetica,sans-Serif" font-size="10.00">MonoBehaviour</text>
<polyline fill="none" stroke="#bfbfbf" points="35,-176.5 128,-176.5 "/>
<text text-anchor="middle" x="81.5" y="-164.5" font-family="Helvetica,sans-Serif" font-size="10.00"> </text>
<polyline fill="none" stroke="#bfbfbf" points="35,-157.5 128,-157.5 "/>
<text text-anchor="middle" x="81.5" y="-145.5" font-family="Helvetica,sans-Serif" font-size="10.00"> </text>
</a>
</g>
</g>
<!-- Node2&#45;&gt;Node1 -->
<g id="edge1" class="edge">
<title>Node2&#45;&gt;Node1</title>
<path fill="none" stroke="midnightblue" d="M81.5,-128.35C81.5,-119.8 81.5,-110.58 81.5,-101.61"/>
<polygon fill="none" stroke="midnightblue" points="78,-128.4 81.5,-138.4 85,-128.4 78,-128.4"/>
</g>
</g>
</svg>
