<?xml version="1.0" encoding="UTF-8" standalone="no"?>
<!DOCTYPE svg PUBLIC "-//W3C//DTD SVG 1.1//EN"
 "http://www.w3.org/Graphics/SVG/1.1/DTD/svg11.dtd">
<!-- Generated by graphviz version 2.43.0 (0)
 -->
<!-- Title: NaughtyBiker.LevelManagement.Installers.LevelManagerBaseInstaller Pages: 1 -->
<svg width="205pt" height="182pt"
 viewBox="0.00 0.00 205.00 182.00" xmlns="http://www.w3.org/2000/svg" xmlns:xlink="http://www.w3.org/1999/xlink">
<g id="graph0" class="graph" transform="scale(1 1) rotate(0) translate(4 178)">
<title>NaughtyBiker.LevelManagement.Installers.LevelManagerBaseInstaller</title>
<polygon fill="white" stroke="transparent" points="-4,4 -4,-178 201,-178 201,4 -4,4"/>
<!-- Node1 -->
<g id="node1" class="node">
<title>Node1</title>
<g id="a_node1"><a xlink:title=" ">
<polygon fill="#bfbfbf" stroke="black" points="0,-0.5 0,-68.5 197,-68.5 197,-0.5 0,-0.5"/>
<text text-anchor="start" x="8" y="-56.5" font-family="Helvetica,sans-Serif" font-size="10.00">NaughtyBiker.LevelManagement.</text>
<text text-anchor="middle" x="98.5" y="-45.5" font-family="Helvetica,sans-Serif" font-size="10.00">Installers.LevelManagerBaseInstaller</text>
<polyline fill="none" stroke="black" points="0,-38.5 197,-38.5 "/>
<text text-anchor="middle" x="98.5" y="-26.5" font-family="Helvetica,sans-Serif" font-size="10.00"> </text>
<polyline fill="none" stroke="black" points="0,-19.5 197,-19.5 "/>
<text text-anchor="start" x="8" y="-7.5" font-family="Helvetica,sans-Serif" font-size="10.00">+ InstallBindings()</text>
</a>
</g>
</g>
<!-- Node2 -->
<g id="node2" class="node">
<title>Node2</title>
<g id="a_node2"><a xlink:title=" ">
<polygon fill="white" stroke="#bfbfbf" points="18,-105.5 18,-173.5 179,-173.5 179,-105.5 18,-105.5"/>
<text text-anchor="start" x="26" y="-161.5" font-family="Helvetica,sans-Serif" font-size="10.00">Installer&lt; LevelManagerBase</text>
<text text-anchor="middle" x="98.5" y="-150.5" font-family="Helvetica,sans-Serif" font-size="10.00">Installer &gt;</text>
<polyline fill="none" stroke="#bfbfbf" points="18,-143.5 179,-143.5 "/>
<text text-anchor="middle" x="98.5" y="-131.5" font-family="Helvetica,sans-Serif" font-size="10.00"> </text>
<polyline fill="none" stroke="#bfbfbf" points="18,-124.5 179,-124.5 "/>
<text text-anchor="middle" x="98.5" y="-112.5" font-family="Helvetica,sans-Serif" font-size="10.00"> </text>
</a>
</g>
</g>
<!-- Node2&#45;&gt;Node1 -->
<g id="edge1" class="edge">
<title>Node2&#45;&gt;Node1</title>
<path fill="none" stroke="midnightblue" d="M98.5,-95.14C98.5,-86.26 98.5,-77.04 98.5,-68.59"/>
<polygon fill="none" stroke="midnightblue" points="95,-95.34 98.5,-105.34 102,-95.34 95,-95.34"/>
</g>
</g>
</svg>
