<?xml version="1.0" encoding="UTF-8" standalone="no"?>
<!DOCTYPE svg PUBLIC "-//W3C//DTD SVG 1.1//EN"
 "http://www.w3.org/Graphics/SVG/1.1/DTD/svg11.dtd">
<!-- Generated by graphviz version 2.43.0 (0)
 -->
<!-- Title: NaughtyBikerGames.SDK.Adapters.Interfaces.IRaycastHit.IsAHit Pages: 1 -->
<svg width="419pt" height="39pt"
 viewBox="0.00 0.00 419.00 39.00" xmlns="http://www.w3.org/2000/svg" xmlns:xlink="http://www.w3.org/1999/xlink">
<g id="graph0" class="graph" transform="scale(1 1) rotate(0) translate(4 35)">
<title>NaughtyBikerGames.SDK.Adapters.Interfaces.IRaycastHit.IsAHit</title>
<polygon fill="white" stroke="transparent" points="-4,4 -4,-35 415,-35 415,4 -4,4"/>
<!-- Node1 -->
<g id="node1" class="node">
<title>Node1</title>
<g id="a_node1"><a xlink:title=" ">
<polygon fill="#bfbfbf" stroke="black" points="221,-0.5 221,-30.5 411,-30.5 411,-0.5 221,-0.5"/>
<text text-anchor="start" x="229" y="-18.5" font-family="Helvetica,sans-Serif" font-size="10.00">NaughtyBikerGames.SDK.Adapters.</text>
<text text-anchor="middle" x="316" y="-7.5" font-family="Helvetica,sans-Serif" font-size="10.00">Interfaces.IRaycastHit.IsAHit</text>
</a>
</g>
</g>
<!-- Node2 -->
<g id="node2" class="node">
<title>Node2</title>
<g id="a_node2"><a xlink:href="../../d0/d99/class_naughty_biker_games_1_1_s_d_k_1_1_raycast_1_1_raycaster.html#a85b012163aca961bb68efcde05a3f9cb" target="_top" xlink:title=" ">
<polygon fill="white" stroke="black" points="0,-0.5 0,-30.5 185,-30.5 185,-0.5 0,-0.5"/>
<text text-anchor="start" x="8" y="-18.5" font-family="Helvetica,sans-Serif" font-size="10.00">NaughtyBikerGames.SDK.Raycast.</text>
<text text-anchor="middle" x="92.5" y="-7.5" font-family="Helvetica,sans-Serif" font-size="10.00">Raycaster.CastRayForTag</text>
</a>
</g>
</g>
<!-- Node1&#45;&gt;Node2 -->
<g id="edge1" class="edge">
<title>Node1&#45;&gt;Node2</title>
<path fill="none" stroke="midnightblue" d="M210.48,-15.5C202.04,-15.5 193.55,-15.5 185.2,-15.5"/>
<polygon fill="midnightblue" stroke="midnightblue" points="210.74,-19 220.74,-15.5 210.74,-12 210.74,-19"/>
</g>
</g>
</svg>
