<?xml version="1.0" encoding="UTF-8" standalone="no"?>
<!DOCTYPE svg PUBLIC "-//W3C//DTD SVG 1.1//EN"
 "http://www.w3.org/Graphics/SVG/1.1/DTD/svg11.dtd">
<!-- Generated by graphviz version 2.43.0 (0)
 -->
<!-- Title: NaughtyBikerGames.SDK.Adapters.SceneManagerAdapter Pages: 1 -->
<svg width="198pt" height="215pt"
 viewBox="0.00 0.00 198.00 215.00" xmlns="http://www.w3.org/2000/svg" xmlns:xlink="http://www.w3.org/1999/xlink">
<g id="graph0" class="graph" transform="scale(1 1) rotate(0) translate(4 211)">
<title>NaughtyBikerGames.SDK.Adapters.SceneManagerAdapter</title>
<polygon fill="white" stroke="transparent" points="-4,4 -4,-211 194,-211 194,4 -4,4"/>
<!-- Node1 -->
<g id="node1" class="node">
<title>Node1</title>
<g id="a_node1"><a xlink:title=" ">
<polygon fill="#bfbfbf" stroke="black" points="0,-0.5 0,-90.5 190,-90.5 190,-0.5 0,-0.5"/>
<text text-anchor="start" x="8" y="-78.5" font-family="Helvetica,sans-Serif" font-size="10.00">NaughtyBikerGames.SDK.Adapters.</text>
<text text-anchor="middle" x="95" y="-67.5" font-family="Helvetica,sans-Serif" font-size="10.00">SceneManagerAdapter</text>
<polyline fill="none" stroke="black" points="0,-60.5 190,-60.5 "/>
<text text-anchor="start" x="8" y="-48.5" font-family="Helvetica,sans-Serif" font-size="10.00">+ sceneCountInBuildSettings</text>
<polyline fill="none" stroke="black" points="0,-41.5 190,-41.5 "/>
<text text-anchor="start" x="8" y="-29.5" font-family="Helvetica,sans-Serif" font-size="10.00">+ GetActiveScene()</text>
<text text-anchor="start" x="8" y="-18.5" font-family="Helvetica,sans-Serif" font-size="10.00">+ GetActiveSceneBuildIndex()</text>
<text text-anchor="start" x="8" y="-7.5" font-family="Helvetica,sans-Serif" font-size="10.00">+ LoadScene()</text>
</a>
</g>
</g>
<!-- Node2 -->
<g id="node2" class="node">
<title>Node2</title>
<g id="a_node2"><a xlink:href="../../d4/d8d/interface_naughty_biker_games_1_1_s_d_k_1_1_adapters_1_1_interfaces_1_1_i_scene_manager.html" target="_top" xlink:title=" ">
<polygon fill="white" stroke="black" points="13,-127.5 13,-206.5 177,-206.5 177,-127.5 13,-127.5"/>
<text text-anchor="middle" x="95" y="-194.5" font-family="Helvetica,sans-Serif" font-size="10.00">ISceneManager</text>
<polyline fill="none" stroke="black" points="13,-187.5 177,-187.5 "/>
<text text-anchor="start" x="21" y="-175.5" font-family="Helvetica,sans-Serif" font-size="10.00">+ sceneCountInBuildSettings</text>
<polyline fill="none" stroke="black" points="13,-168.5 177,-168.5 "/>
<text text-anchor="start" x="21" y="-156.5" font-family="Helvetica,sans-Serif" font-size="10.00">+ GetActiveScene()</text>
<text text-anchor="start" x="21" y="-145.5" font-family="Helvetica,sans-Serif" font-size="10.00">+ GetActiveSceneBuildIndex()</text>
<text text-anchor="start" x="21" y="-134.5" font-family="Helvetica,sans-Serif" font-size="10.00">+ LoadScene()</text>
</a>
</g>
</g>
<!-- Node2&#45;&gt;Node1 -->
<g id="edge1" class="edge">
<title>Node2&#45;&gt;Node1</title>
<path fill="none" stroke="midnightblue" d="M95,-117.19C95,-108.49 95,-99.48 95,-90.91"/>
<polygon fill="none" stroke="midnightblue" points="91.5,-117.2 95,-127.2 98.5,-117.2 91.5,-117.2"/>
</g>
</g>
</svg>
