<?xml version="1.0" encoding="UTF-8" standalone="no"?>
<!DOCTYPE svg PUBLIC "-//W3C//DTD SVG 1.1//EN"
 "http://www.w3.org/Graphics/SVG/1.1/DTD/svg11.dtd">
<!-- Generated by graphviz version 2.43.0 (0)
 -->
<!-- Title: NaughtyBikerGames.SDK.Interpolation.Interfaces.ILerpable Pages: 1 -->
<svg width="217pt" height="182pt"
 viewBox="0.00 0.00 217.00 182.00" xmlns="http://www.w3.org/2000/svg" xmlns:xlink="http://www.w3.org/1999/xlink">
<g id="graph0" class="graph" transform="scale(1 1) rotate(0) translate(4 178)">
<title>NaughtyBikerGames.SDK.Interpolation.Interfaces.ILerpable</title>
<polygon fill="white" stroke="transparent" points="-4,4 -4,-178 213,-178 213,4 -4,4"/>
<!-- Node1 -->
<g id="node1" class="node">
<title>Node1</title>
<g id="a_node1"><a xlink:title=" ">
<polygon fill="#bfbfbf" stroke="black" points="0,-105.5 0,-173.5 209,-173.5 209,-105.5 0,-105.5"/>
<text text-anchor="start" x="8" y="-161.5" font-family="Helvetica,sans-Serif" font-size="10.00">NaughtyBikerGames.SDK.Interpolation.</text>
<text text-anchor="middle" x="104.5" y="-150.5" font-family="Helvetica,sans-Serif" font-size="10.00">Interfaces.ILerpable</text>
<polyline fill="none" stroke="black" points="0,-143.5 209,-143.5 "/>
<text text-anchor="middle" x="104.5" y="-131.5" font-family="Helvetica,sans-Serif" font-size="10.00"> </text>
<polyline fill="none" stroke="black" points="0,-124.5 209,-124.5 "/>
<text text-anchor="start" x="8" y="-112.5" font-family="Helvetica,sans-Serif" font-size="10.00">+ Lerp()</text>
</a>
</g>
</g>
<!-- Node2 -->
<g id="node2" class="node">
<title>Node2</title>
<g id="a_node2"><a xlink:href="../../de/dde/class_naughty_biker_games_1_1_s_d_k_1_1_interpolation_1_1_lerper.html" target="_top" xlink:title=" ">
<polygon fill="white" stroke="black" points="0,-0.5 0,-68.5 209,-68.5 209,-0.5 0,-0.5"/>
<text text-anchor="start" x="8" y="-56.5" font-family="Helvetica,sans-Serif" font-size="10.00">NaughtyBikerGames.SDK.Interpolation.</text>
<text text-anchor="middle" x="104.5" y="-45.5" font-family="Helvetica,sans-Serif" font-size="10.00">Lerper</text>
<polyline fill="none" stroke="black" points="0,-38.5 209,-38.5 "/>
<text text-anchor="middle" x="104.5" y="-26.5" font-family="Helvetica,sans-Serif" font-size="10.00"> </text>
<polyline fill="none" stroke="black" points="0,-19.5 209,-19.5 "/>
<text text-anchor="start" x="8" y="-7.5" font-family="Helvetica,sans-Serif" font-size="10.00">+ Lerp()</text>
</a>
</g>
</g>
<!-- Node1&#45;&gt;Node2 -->
<g id="edge1" class="edge">
<title>Node1&#45;&gt;Node2</title>
<path fill="none" stroke="midnightblue" d="M104.5,-95.14C104.5,-86.26 104.5,-77.04 104.5,-68.59"/>
<polygon fill="none" stroke="midnightblue" points="101,-95.34 104.5,-105.34 108,-95.34 101,-95.34"/>
</g>
</g>
</svg>
