<?xml version="1.0" encoding="UTF-8" standalone="no"?>
<!DOCTYPE svg PUBLIC "-//W3C//DTD SVG 1.1//EN"
 "http://www.w3.org/Graphics/SVG/1.1/DTD/svg11.dtd">
<!-- Generated by graphviz version 2.43.0 (0)
 -->
<!-- Title: NaughtyBikerGames.SDK.Raycast.Raycaster Pages: 1 -->
<svg width="740pt" height="215pt"
 viewBox="0.00 0.00 739.50 215.00" xmlns="http://www.w3.org/2000/svg" xmlns:xlink="http://www.w3.org/1999/xlink">
<g id="graph0" class="graph" transform="scale(1 1) rotate(0) translate(4 211)">
<title>NaughtyBikerGames.SDK.Raycast.Raycaster</title>
<polygon fill="white" stroke="transparent" points="-4,4 -4,-211 735.5,-211 735.5,4 -4,4"/>
<!-- Node1 -->
<g id="node1" class="node">
<title>Node1</title>
<g id="a_node1"><a xlink:title=" ">
<polygon fill="#bfbfbf" stroke="black" points="232,-0.5 232,-79.5 417,-79.5 417,-0.5 232,-0.5"/>
<text text-anchor="start" x="240" y="-67.5" font-family="Helvetica,sans-Serif" font-size="10.00">NaughtyBikerGames.SDK.Raycast.</text>
<text text-anchor="middle" x="324.5" y="-56.5" font-family="Helvetica,sans-Serif" font-size="10.00">Raycaster</text>
<polyline fill="none" stroke="black" points="232,-49.5 417,-49.5 "/>
<text text-anchor="middle" x="324.5" y="-37.5" font-family="Helvetica,sans-Serif" font-size="10.00"> </text>
<polyline fill="none" stroke="black" points="232,-30.5 417,-30.5 "/>
<text text-anchor="start" x="240" y="-18.5" font-family="Helvetica,sans-Serif" font-size="10.00">+ Raycaster()</text>
<text text-anchor="start" x="240" y="-7.5" font-family="Helvetica,sans-Serif" font-size="10.00">+ CastRayForTag()</text>
</a>
</g>
</g>
<!-- Node2 -->
<g id="node2" class="node">
<title>Node2</title>
<g id="a_node2"><a xlink:href="../../d1/d64/interface_naughty_biker_games_1_1_s_d_k_1_1_raycast_1_1_interfaces_1_1_i_raycastable.html" target="_top" xlink:title=" ">
<polygon fill="white" stroke="black" points="0,-138.5 0,-195.5 107,-195.5 107,-138.5 0,-138.5"/>
<text text-anchor="middle" x="53.5" y="-183.5" font-family="Helvetica,sans-Serif" font-size="10.00">IRaycastable</text>
<polyline fill="none" stroke="black" points="0,-176.5 107,-176.5 "/>
<text text-anchor="middle" x="53.5" y="-164.5" font-family="Helvetica,sans-Serif" font-size="10.00"> </text>
<polyline fill="none" stroke="black" points="0,-157.5 107,-157.5 "/>
<text text-anchor="start" x="8" y="-145.5" font-family="Helvetica,sans-Serif" font-size="10.00">+ CastRayForTag()</text>
</a>
</g>
</g>
<!-- Node2&#45;&gt;Node1 -->
<g id="edge1" class="edge">
<title>Node2&#45;&gt;Node1</title>
<path fill="none" stroke="midnightblue" d="M104.96,-133.22C108.83,-131.04 112.7,-128.95 116.5,-127 153.37,-108.12 195.37,-90.13 231.93,-75.53"/>
<polygon fill="none" stroke="midnightblue" points="102.9,-130.37 96,-138.4 106.41,-136.42 102.9,-130.37"/>
</g>
<!-- Node3 -->
<g id="node3" class="node">
<title>Node3</title>
<g id="a_node3"><a xlink:href="../../dc/dae/interface_naughty_biker_games_1_1_s_d_k_1_1_adapters_1_1_interfaces_1_1_i_physics.html" target="_top" xlink:title=" ">
<polygon fill="white" stroke="black" points="125.5,-127.5 125.5,-206.5 315.5,-206.5 315.5,-127.5 125.5,-127.5"/>
<text text-anchor="start" x="133.5" y="-194.5" font-family="Helvetica,sans-Serif" font-size="10.00">NaughtyBikerGames.SDK.Adapters.</text>
<text text-anchor="middle" x="220.5" y="-183.5" font-family="Helvetica,sans-Serif" font-size="10.00">Interfaces.IPhysics</text>
<polyline fill="none" stroke="black" points="125.5,-176.5 315.5,-176.5 "/>
<text text-anchor="middle" x="220.5" y="-164.5" font-family="Helvetica,sans-Serif" font-size="10.00"> </text>
<polyline fill="none" stroke="black" points="125.5,-157.5 315.5,-157.5 "/>
<text text-anchor="start" x="133.5" y="-145.5" font-family="Helvetica,sans-Serif" font-size="10.00">+ RaycastAllFirstOrDefault()</text>
<text text-anchor="start" x="133.5" y="-134.5" font-family="Helvetica,sans-Serif" font-size="10.00">+ RaycastAllFirstOrDefault()</text>
</a>
</g>
</g>
<!-- Node3&#45;&gt;Node1 -->
<g id="edge2" class="edge">
<title>Node3&#45;&gt;Node1</title>
<path fill="none" stroke="#404040" d="M252.55,-127.48C262.63,-115.36 273.9,-101.82 284.46,-89.12"/>
<polygon fill="none" stroke="#404040" points="284.7,-88.84 285.46,-81.67 292.37,-79.61 291.61,-86.78 284.7,-88.84"/>
<text text-anchor="middle" x="298.5" y="-101" font-family="Helvetica,sans-Serif" font-size="10.00"> &#45;physics</text>
</g>
<!-- Node4 -->
<g id="node4" class="node">
<title>Node4</title>
<g id="a_node4"><a xlink:href="../../d3/d26/interface_naughty_biker_games_1_1_s_d_k_1_1_adapters_1_1_interfaces_1_1_i_main_camera.html" target="_top" xlink:title=" ">
<polygon fill="white" stroke="black" points="333.5,-133 333.5,-201 523.5,-201 523.5,-133 333.5,-133"/>
<text text-anchor="start" x="341.5" y="-189" font-family="Helvetica,sans-Serif" font-size="10.00">NaughtyBikerGames.SDK.Adapters.</text>
<text text-anchor="middle" x="428.5" y="-178" font-family="Helvetica,sans-Serif" font-size="10.00">Interfaces.IMainCamera</text>
<polyline fill="none" stroke="black" points="333.5,-171 523.5,-171 "/>
<text text-anchor="middle" x="428.5" y="-159" font-family="Helvetica,sans-Serif" font-size="10.00"> </text>
<polyline fill="none" stroke="black" points="333.5,-152 523.5,-152 "/>
<text text-anchor="start" x="341.5" y="-140" font-family="Helvetica,sans-Serif" font-size="10.00">+ ScreenPointToRay()</text>
</a>
</g>
</g>
<!-- Node4&#45;&gt;Node1 -->
<g id="edge3" class="edge">
<title>Node4&#45;&gt;Node1</title>
<path fill="none" stroke="#404040" d="M400.9,-132.83C389.75,-119.42 376.65,-103.68 364.49,-89.06"/>
<polygon fill="none" stroke="#404040" points="364.33,-88.87 357.42,-86.82 356.66,-79.65 363.57,-81.7 364.33,-88.87"/>
<text text-anchor="middle" x="415.5" y="-101" font-family="Helvetica,sans-Serif" font-size="10.00"> &#45;mainCamera</text>
</g>
<!-- Node5 -->
<g id="node5" class="node">
<title>Node5</title>
<g id="a_node5"><a xlink:href="../../dc/d97/interface_naughty_biker_games_1_1_s_d_k_1_1_adapters_1_1_interfaces_1_1_i_input.html" target="_top" xlink:title=" ">
<polygon fill="white" stroke="black" points="541.5,-133 541.5,-201 731.5,-201 731.5,-133 541.5,-133"/>
<text text-anchor="start" x="549.5" y="-189" font-family="Helvetica,sans-Serif" font-size="10.00">NaughtyBikerGames.SDK.Adapters.</text>
<text text-anchor="middle" x="636.5" y="-178" font-family="Helvetica,sans-Serif" font-size="10.00">Interfaces.IInput</text>
<polyline fill="none" stroke="black" points="541.5,-171 731.5,-171 "/>
<text text-anchor="start" x="549.5" y="-159" font-family="Helvetica,sans-Serif" font-size="10.00">+ MousePosition</text>
<polyline fill="none" stroke="black" points="541.5,-152 731.5,-152 "/>
<text text-anchor="middle" x="636.5" y="-140" font-family="Helvetica,sans-Serif" font-size="10.00"> </text>
</a>
</g>
</g>
<!-- Node5&#45;&gt;Node1 -->
<g id="edge4" class="edge">
<title>Node5&#45;&gt;Node1</title>
<path fill="none" stroke="#404040" d="M554.12,-132.99C515.67,-117.59 469.47,-99.08 428.63,-82.72"/>
<polygon fill="none" stroke="#404040" points="428.41,-82.63 421.35,-84.11 417.27,-78.17 424.32,-76.68 428.41,-82.63"/>
<text text-anchor="middle" x="505.5" y="-101" font-family="Helvetica,sans-Serif" font-size="10.00"> &#45;input</text>
</g>
</g>
</svg>
