<?xml version="1.0" encoding="UTF-8" standalone="no"?>
<!DOCTYPE svg PUBLIC "-//W3C//DTD SVG 1.1//EN"
 "http://www.w3.org/Graphics/SVG/1.1/DTD/svg11.dtd">
<!-- Generated by graphviz version 2.43.0 (0)
 -->
<!-- Title: NaughtyBiker.InfoObjects.InfoObject Pages: 1 -->
<svg width="190pt" height="215pt"
 viewBox="0.00 0.00 189.50 215.00" xmlns="http://www.w3.org/2000/svg" xmlns:xlink="http://www.w3.org/1999/xlink">
<g id="graph0" class="graph" transform="scale(1 1) rotate(0) translate(4 211)">
<title>NaughtyBiker.InfoObjects.InfoObject</title>
<polygon fill="white" stroke="transparent" points="-4,4 -4,-211 185.5,-211 185.5,4 -4,4"/>
<!-- Node1 -->
<g id="node1" class="node">
<title>Node1</title>
<g id="a_node1"><a xlink:title=" ">
<polygon fill="#bfbfbf" stroke="black" points="25,-0.5 25,-112.5 168,-112.5 168,-0.5 25,-0.5"/>
<text text-anchor="start" x="33" y="-100.5" font-family="Helvetica,sans-Serif" font-size="10.00">NaughtyBiker.InfoObjects.</text>
<text text-anchor="middle" x="96.5" y="-89.5" font-family="Helvetica,sans-Serif" font-size="10.00">InfoObject</text>
<polyline fill="none" stroke="black" points="25,-82.5 168,-82.5 "/>
<text text-anchor="start" x="33" y="-70.5" font-family="Helvetica,sans-Serif" font-size="10.00">&#45; info</text>
<text text-anchor="start" x="33" y="-59.5" font-family="Helvetica,sans-Serif" font-size="10.00">&#45; signalBus</text>
<polyline fill="none" stroke="black" points="25,-52.5 168,-52.5 "/>
<text text-anchor="start" x="33" y="-40.5" font-family="Helvetica,sans-Serif" font-size="10.00">+ Construct()</text>
<text text-anchor="start" x="33" y="-29.5" font-family="Helvetica,sans-Serif" font-size="10.00">+ GetInfo()</text>
<text text-anchor="start" x="33" y="-18.5" font-family="Helvetica,sans-Serif" font-size="10.00">+ FireAll()</text>
<text text-anchor="start" x="33" y="-7.5" font-family="Helvetica,sans-Serif" font-size="10.00">&#45; OnStateChange()</text>
</a>
</g>
</g>
<!-- Node2 -->
<g id="node2" class="node">
<title>Node2</title>
<g id="a_node2"><a xlink:title=" ">
<polygon fill="white" stroke="#bfbfbf" points="0,-149.5 0,-206.5 93,-206.5 93,-149.5 0,-149.5"/>
<text text-anchor="middle" x="46.5" y="-194.5" font-family="Helvetica,sans-Serif" font-size="10.00">MonoBehaviour</text>
<polyline fill="none" stroke="#bfbfbf" points="0,-187.5 93,-187.5 "/>
<text text-anchor="middle" x="46.5" y="-175.5" font-family="Helvetica,sans-Serif" font-size="10.00"> </text>
<polyline fill="none" stroke="#bfbfbf" points="0,-168.5 93,-168.5 "/>
<text text-anchor="middle" x="46.5" y="-156.5" font-family="Helvetica,sans-Serif" font-size="10.00"> </text>
</a>
</g>
</g>
<!-- Node2&#45;&gt;Node1 -->
<g id="edge1" class="edge">
<title>Node2&#45;&gt;Node1</title>
<path fill="none" stroke="midnightblue" d="M62.01,-139.94C65.6,-131.35 69.5,-122.02 73.35,-112.83"/>
<polygon fill="none" stroke="midnightblue" points="58.73,-138.71 58.1,-149.28 65.19,-141.41 58.73,-138.71"/>
</g>
<!-- Node3 -->
<g id="node3" class="node">
<title>Node3</title>
<g id="a_node3"><a xlink:href="../../dc/d34/interface_naughty_biker_1_1_info_objects_1_1_interfaces_1_1_i_info_object.html" target="_top" xlink:title=" ">
<polygon fill="white" stroke="black" points="111.5,-149.5 111.5,-206.5 181.5,-206.5 181.5,-149.5 111.5,-149.5"/>
<text text-anchor="middle" x="146.5" y="-194.5" font-family="Helvetica,sans-Serif" font-size="10.00">IInfoObject</text>
<polyline fill="none" stroke="black" points="111.5,-187.5 181.5,-187.5 "/>
<text text-anchor="middle" x="146.5" y="-175.5" font-family="Helvetica,sans-Serif" font-size="10.00"> </text>
<polyline fill="none" stroke="black" points="111.5,-168.5 181.5,-168.5 "/>
<text text-anchor="start" x="119.5" y="-156.5" font-family="Helvetica,sans-Serif" font-size="10.00">+ FireAll()</text>
</a>
</g>
</g>
<!-- Node3&#45;&gt;Node1 -->
<g id="edge2" class="edge">
<title>Node3&#45;&gt;Node1</title>
<path fill="none" stroke="midnightblue" d="M130.99,-139.94C127.4,-131.35 123.5,-122.02 119.65,-112.83"/>
<polygon fill="none" stroke="midnightblue" points="127.81,-141.41 134.9,-149.28 134.27,-138.71 127.81,-141.41"/>
</g>
</g>
</svg>
