<?xml version="1.0" encoding="UTF-8" standalone="no"?>
<!DOCTYPE svg PUBLIC "-//W3C//DTD SVG 1.1//EN"
 "http://www.w3.org/Graphics/SVG/1.1/DTD/svg11.dtd">
<!-- Generated by graphviz version 2.43.0 (0)
 -->
<!-- Title: Graphical Class Hierarchy Pages: 1 -->
<svg width="328pt" height="149pt"
 viewBox="0.00 0.00 328.00 149.00" xmlns="http://www.w3.org/2000/svg" xmlns:xlink="http://www.w3.org/1999/xlink">
<g id="graph0" class="graph" transform="scale(1 1) rotate(0) translate(4 145)">
<title>Graphical Class Hierarchy</title>
<polygon fill="white" stroke="transparent" points="-4,4 -4,-145 324,-145 324,4 -4,4"/>
<!-- Node2 -->
<g id="node1" class="node">
<title>Node2</title>
<g id="a_node1"><a xlink:title=" ">
<polygon fill="white" stroke="#bfbfbf" points="0,-61 0,-80 83,-80 83,-61 0,-61"/>
<text text-anchor="middle" x="41.5" y="-68" font-family="Helvetica,sans-Serif" font-size="10.00">MonoInstaller</text>
</a>
</g>
</g>
<!-- Node0 -->
<g id="node2" class="node">
<title>Node0</title>
<g id="a_node2"><a xlink:href="db/d89/class_naughty_biker_games_1_1_s_d_k_1_1_info_objects_1_1_installers_1_1_info_object_installer.html" target="_top" xlink:title=" ">
<polygon fill="white" stroke="black" points="122.5,-110.5 122.5,-140.5 316.5,-140.5 316.5,-110.5 122.5,-110.5"/>
<text text-anchor="start" x="130.5" y="-128.5" font-family="Helvetica,sans-Serif" font-size="10.00">NaughtyBikerGames.SDK.Info</text>
<text text-anchor="middle" x="219.5" y="-117.5" font-family="Helvetica,sans-Serif" font-size="10.00">Objects.Installers.InfoObjectInstaller</text>
</a>
</g>
</g>
<!-- Node2&#45;&gt;Node0 -->
<g id="edge1" class="edge">
<title>Node2&#45;&gt;Node0</title>
<path fill="none" stroke="midnightblue" d="M74.09,-83.94C87.76,-89.47 104.02,-95.7 119,-100.5 130.11,-104.06 142.05,-107.43 153.66,-110.48"/>
<polygon fill="midnightblue" stroke="midnightblue" points="75.24,-80.62 64.66,-80.06 72.57,-87.1 75.24,-80.62"/>
</g>
<!-- Node4 -->
<g id="node3" class="node">
<title>Node4</title>
<g id="a_node3"><a xlink:href="d0/d83/class_naughty_biker_games_1_1_s_d_k_1_1_level_management_1_1_installers_1_1_level_manager_installer.html" target="_top" xlink:title=" ">
<polygon fill="white" stroke="black" points="119,-50 119,-91 320,-91 320,-50 119,-50"/>
<text text-anchor="start" x="127" y="-79" font-family="Helvetica,sans-Serif" font-size="10.00">NaughtyBikerGames.SDK.Level</text>
<text text-anchor="start" x="127" y="-68" font-family="Helvetica,sans-Serif" font-size="10.00">Management.Installers.LevelManager</text>
<text text-anchor="middle" x="219.5" y="-57" font-family="Helvetica,sans-Serif" font-size="10.00">Installer</text>
</a>
</g>
</g>
<!-- Node2&#45;&gt;Node4 -->
<g id="edge2" class="edge">
<title>Node2&#45;&gt;Node4</title>
<path fill="none" stroke="midnightblue" d="M93.33,-70.5C101.47,-70.5 110.14,-70.5 118.96,-70.5"/>
<polygon fill="midnightblue" stroke="midnightblue" points="93.32,-67 83.32,-70.5 93.32,-74 93.32,-67"/>
</g>
<!-- Node5 -->
<g id="node4" class="node">
<title>Node5</title>
<g id="a_node4"><a xlink:href="de/d19/class_naughty_biker_games_1_1_s_d_k_1_1_signals_1_1_installers_1_1_signals_installer.html" target="_top" xlink:title=" ">
<polygon fill="white" stroke="black" points="128.5,-0.5 128.5,-30.5 310.5,-30.5 310.5,-0.5 128.5,-0.5"/>
<text text-anchor="start" x="136.5" y="-18.5" font-family="Helvetica,sans-Serif" font-size="10.00">NaughtyBikerGames.SDK.Signals.</text>
<text text-anchor="middle" x="219.5" y="-7.5" font-family="Helvetica,sans-Serif" font-size="10.00">Installers.SignalsInstaller</text>
</a>
</g>
</g>
<!-- Node2&#45;&gt;Node5 -->
<g id="edge3" class="edge">
<title>Node2&#45;&gt;Node5</title>
<path fill="none" stroke="midnightblue" d="M74.09,-57.06C87.76,-51.53 104.02,-45.3 119,-40.5 130.11,-36.94 142.05,-33.57 153.66,-30.52"/>
<polygon fill="midnightblue" stroke="midnightblue" points="72.57,-53.9 64.66,-60.94 75.24,-60.38 72.57,-53.9"/>
</g>
</g>
</svg>
