<?xml version="1.0" encoding="UTF-8" standalone="no"?>
<!DOCTYPE svg PUBLIC "-//W3C//DTD SVG 1.1//EN"
 "http://www.w3.org/Graphics/SVG/1.1/DTD/svg11.dtd">
<!-- Generated by graphviz version 2.43.0 (0)
 -->
<!-- Title: Graphical Class Hierarchy Pages: 1 -->
<svg width="328pt" height="198pt"
 viewBox="0.00 0.00 328.00 198.00" xmlns="http://www.w3.org/2000/svg" xmlns:xlink="http://www.w3.org/1999/xlink">
<g id="graph0" class="graph" transform="scale(1 1) rotate(0) translate(4 194)">
<title>Graphical Class Hierarchy</title>
<polygon fill="white" stroke="transparent" points="-4,4 -4,-194 324,-194 324,4 -4,4"/>
<!-- Node2 -->
<g id="node1" class="node">
<title>Node2</title>
<g id="a_node1"><a xlink:title=" ">
<polygon fill="white" stroke="#bfbfbf" points="0,-82 0,-101 83,-101 83,-82 0,-82"/>
<text text-anchor="middle" x="41.5" y="-89" font-family="Helvetica,sans-Serif" font-size="10.00">MonoInstaller</text>
</a>
</g>
</g>
<!-- Node0 -->
<g id="node2" class="node">
<title>Node0</title>
<g id="a_node2"><a xlink:href="db/d89/class_naughty_biker_games_1_1_s_d_k_1_1_info_objects_1_1_installers_1_1_info_object_installer.html" target="_top" xlink:title=" ">
<polygon fill="white" stroke="black" points="122.5,-159.5 122.5,-189.5 316.5,-189.5 316.5,-159.5 122.5,-159.5"/>
<text text-anchor="start" x="130.5" y="-177.5" font-family="Helvetica,sans-Serif" font-size="10.00">NaughtyBikerGames.SDK.Info</text>
<text text-anchor="middle" x="219.5" y="-166.5" font-family="Helvetica,sans-Serif" font-size="10.00">Objects.Installers.InfoObjectInstaller</text>
</a>
</g>
</g>
<!-- Node2&#45;&gt;Node0 -->
<g id="edge1" class="edge">
<title>Node2&#45;&gt;Node0</title>
<path fill="none" stroke="midnightblue" d="M60.25,-108.29C74.93,-121.32 96.89,-138.89 119,-149.5 127.03,-153.35 135.72,-156.65 144.5,-159.47"/>
<polygon fill="midnightblue" stroke="midnightblue" points="62.25,-105.38 52.5,-101.23 57.53,-110.55 62.25,-105.38"/>
</g>
<!-- Node4 -->
<g id="node3" class="node">
<title>Node4</title>
<g id="a_node3"><a xlink:href="d0/d83/class_naughty_biker_games_1_1_s_d_k_1_1_level_management_1_1_installers_1_1_level_manager_installer.html" target="_top" xlink:title=" ">
<polygon fill="white" stroke="black" points="119,-99 119,-140 320,-140 320,-99 119,-99"/>
<text text-anchor="start" x="127" y="-128" font-family="Helvetica,sans-Serif" font-size="10.00">NaughtyBikerGames.SDK.Level</text>
<text text-anchor="start" x="127" y="-117" font-family="Helvetica,sans-Serif" font-size="10.00">Management.Installers.LevelManager</text>
<text text-anchor="middle" x="219.5" y="-106" font-family="Helvetica,sans-Serif" font-size="10.00">Installer</text>
</a>
</g>
</g>
<!-- Node2&#45;&gt;Node4 -->
<g id="edge2" class="edge">
<title>Node2&#45;&gt;Node4</title>
<path fill="none" stroke="midnightblue" d="M93.33,-99.59C101.47,-100.88 110.14,-102.26 118.96,-103.66"/>
<polygon fill="midnightblue" stroke="midnightblue" points="93.75,-96.11 83.32,-97.99 92.65,-103.02 93.75,-96.11"/>
</g>
<!-- Node5 -->
<g id="node4" class="node">
<title>Node5</title>
<g id="a_node4"><a xlink:href="d2/d8b/class_naughty_biker_games_1_1_s_d_k_1_1_raycast_1_1_installers_1_1_raycaster_installer.html" target="_top" xlink:title=" ">
<polygon fill="white" stroke="black" points="127,-49.5 127,-79.5 312,-79.5 312,-49.5 127,-49.5"/>
<text text-anchor="start" x="135" y="-67.5" font-family="Helvetica,sans-Serif" font-size="10.00">NaughtyBikerGames.SDK.Raycast.</text>
<text text-anchor="middle" x="219.5" y="-56.5" font-family="Helvetica,sans-Serif" font-size="10.00">Installers.RaycasterInstaller</text>
</a>
</g>
</g>
<!-- Node2&#45;&gt;Node5 -->
<g id="edge3" class="edge">
<title>Node2&#45;&gt;Node5</title>
<path fill="none" stroke="midnightblue" d="M93.49,-83.68C103.97,-82.07 115.31,-80.33 126.73,-78.58"/>
<polygon fill="midnightblue" stroke="midnightblue" points="92.67,-80.26 83.32,-85.24 93.74,-87.18 92.67,-80.26"/>
</g>
<!-- Node6 -->
<g id="node5" class="node">
<title>Node6</title>
<g id="a_node5"><a xlink:href="de/d19/class_naughty_biker_games_1_1_s_d_k_1_1_signals_1_1_installers_1_1_signals_installer.html" target="_top" xlink:title=" ">
<polygon fill="white" stroke="black" points="128.5,-0.5 128.5,-30.5 310.5,-30.5 310.5,-0.5 128.5,-0.5"/>
<text text-anchor="start" x="136.5" y="-18.5" font-family="Helvetica,sans-Serif" font-size="10.00">NaughtyBikerGames.SDK.Signals.</text>
<text text-anchor="middle" x="219.5" y="-7.5" font-family="Helvetica,sans-Serif" font-size="10.00">Installers.SignalsInstaller</text>
</a>
</g>
</g>
<!-- Node2&#45;&gt;Node6 -->
<g id="edge4" class="edge">
<title>Node2&#45;&gt;Node6</title>
<path fill="none" stroke="midnightblue" d="M62.14,-75.66C76.97,-64.39 98.26,-49.69 119,-40.5 127.63,-36.68 136.95,-33.36 146.31,-30.52"/>
<polygon fill="midnightblue" stroke="midnightblue" points="59.95,-72.92 54.2,-81.82 64.24,-78.45 59.95,-72.92"/>
</g>
</g>
</svg>
