<?xml version="1.0" encoding="UTF-8" standalone="no"?>
<!DOCTYPE svg PUBLIC "-//W3C//DTD SVG 1.1//EN"
 "http://www.w3.org/Graphics/SVG/1.1/DTD/svg11.dtd">
<!-- Generated by graphviz version 2.43.0 (0)
 -->
<!-- Title: Graphical Class Hierarchy Pages: 1 -->
<svg width="535pt" height="39pt"
 viewBox="0.00 0.00 535.00 39.00" xmlns="http://www.w3.org/2000/svg" xmlns:xlink="http://www.w3.org/1999/xlink">
<g id="graph0" class="graph" transform="scale(1 1) rotate(0) translate(4 35)">
<title>Graphical Class Hierarchy</title>
<polygon fill="white" stroke="transparent" points="-4,4 -4,-35 531,-35 531,4 -4,4"/>
<!-- Node34 -->
<g id="node1" class="node">
<title>Node34</title>
<g id="a_node1"><a xlink:title=" ">
<polygon fill="white" stroke="#bfbfbf" points="0,-6 0,-25 77,-25 77,-6 0,-6"/>
<text text-anchor="middle" x="38.5" y="-13" font-family="Helvetica,sans-Serif" font-size="10.00">IInitializable</text>
</a>
</g>
</g>
<!-- Node0 -->
<g id="node2" class="node">
<title>Node0</title>
<g id="a_node2"><a xlink:href="db/d48/interface_naughty_biker_games_1_1_s_d_k_1_1_level_management_1_1_interfaces_1_1_i_level_manager.html" target="_top" xlink:title=" ">
<polygon fill="white" stroke="black" points="113,-0.5 113,-30.5 321,-30.5 321,-0.5 113,-0.5"/>
<text text-anchor="start" x="121" y="-18.5" font-family="Helvetica,sans-Serif" font-size="10.00">NaughtyBikerGames.SDK.Level</text>
<text text-anchor="middle" x="217" y="-7.5" font-family="Helvetica,sans-Serif" font-size="10.00">Management.Interfaces.ILevelManager</text>
</a>
</g>
</g>
<!-- Node34&#45;&gt;Node0 -->
<g id="edge1" class="edge">
<title>Node34&#45;&gt;Node0</title>
<path fill="none" stroke="midnightblue" d="M87.56,-15.5C95.59,-15.5 104.19,-15.5 112.98,-15.5"/>
<polygon fill="midnightblue" stroke="midnightblue" points="87.36,-12 77.36,-15.5 87.36,-19 87.36,-12"/>
</g>
<!-- Node1 -->
<g id="node3" class="node">
<title>Node1</title>
<g id="a_node3"><a xlink:href="d8/d5d/class_naughty_biker_games_1_1_s_d_k_1_1_level_management_1_1_level_manager.html" target="_top" xlink:title=" ">
<polygon fill="white" stroke="black" points="357,-0.5 357,-30.5 527,-30.5 527,-0.5 357,-0.5"/>
<text text-anchor="start" x="365" y="-18.5" font-family="Helvetica,sans-Serif" font-size="10.00">NaughtyBikerGames.SDK.Level</text>
<text text-anchor="middle" x="442" y="-7.5" font-family="Helvetica,sans-Serif" font-size="10.00">Management.LevelManager</text>
</a>
</g>
</g>
<!-- Node0&#45;&gt;Node1 -->
<g id="edge2" class="edge">
<title>Node0&#45;&gt;Node1</title>
<path fill="none" stroke="midnightblue" d="M331.14,-15.5C339.78,-15.5 348.4,-15.5 356.8,-15.5"/>
<polygon fill="midnightblue" stroke="midnightblue" points="331.01,-12 321.01,-15.5 331.01,-19 331.01,-12"/>
</g>
</g>
</svg>
