<?xml version="1.0" encoding="UTF-8" standalone="no"?>
<!DOCTYPE svg PUBLIC "-//W3C//DTD SVG 1.1//EN"
 "http://www.w3.org/Graphics/SVG/1.1/DTD/svg11.dtd">
<!-- Generated by graphviz version 2.43.0 (0)
 -->
<!-- Title: Graphical Class Hierarchy Pages: 1 -->
<svg width="538pt" height="209pt"
 viewBox="0.00 0.00 538.00 208.50" xmlns="http://www.w3.org/2000/svg" xmlns:xlink="http://www.w3.org/1999/xlink">
<g id="graph0" class="graph" transform="scale(1 1) rotate(0) translate(4 204.5)">
<title>Graphical Class Hierarchy</title>
<polygon fill="white" stroke="transparent" points="-4,4 -4,-204.5 534,-204.5 534,4 -4,4"/>
<!-- Node23 -->
<g id="node1" class="node">
<title>Node23</title>
<g id="a_node1"><a xlink:title=" ">
<polygon fill="white" stroke="#bfbfbf" points="0,-82 0,-101 56,-101 56,-82 0,-82"/>
<text text-anchor="middle" x="28" y="-89" font-family="Helvetica,sans-Serif" font-size="10.00">Installer</text>
</a>
</g>
</g>
<!-- Node0 -->
<g id="node2" class="node">
<title>Node0</title>
<g id="a_node2"><a xlink:href="d0/dac/class_naughty_biker_games_1_1_s_d_k_1_1_info_objects_1_1_installers_1_1_info_object_base_installer.html" target="_top" xlink:title=" ">
<polygon fill="white" stroke="black" points="103,-159 103,-200 282,-200 282,-159 103,-159"/>
<text text-anchor="start" x="111" y="-188" font-family="Helvetica,sans-Serif" font-size="10.00">NaughtyBikerGames.SDK.Info</text>
<text text-anchor="start" x="111" y="-177" font-family="Helvetica,sans-Serif" font-size="10.00">Objects.Installers.InfoObjectBase</text>
<text text-anchor="middle" x="192.5" y="-166" font-family="Helvetica,sans-Serif" font-size="10.00">Installer</text>
</a>
</g>
</g>
<!-- Node23&#45;&gt;Node0 -->
<g id="edge1" class="edge">
<title>Node23&#45;&gt;Node0</title>
<path fill="none" stroke="midnightblue" d="M43.85,-108.9C55.7,-121.78 73.36,-138.86 92,-149.5 98.19,-153.03 104.84,-156.19 111.66,-159"/>
<polygon fill="midnightblue" stroke="midnightblue" points="46.22,-106.29 36.95,-101.15 40.99,-110.95 46.22,-106.29"/>
</g>
<!-- Node25 -->
<g id="node3" class="node">
<title>Node25</title>
<g id="a_node3"><a xlink:href="d6/dcb/class_naughty_biker_games_1_1_s_d_k_1_1_level_management_1_1_installers_1_1_level_manager_base_installer.html" target="_top" xlink:title=" ">
<polygon fill="white" stroke="black" points="92,-99 92,-140 293,-140 293,-99 92,-99"/>
<text text-anchor="start" x="100" y="-128" font-family="Helvetica,sans-Serif" font-size="10.00">NaughtyBikerGames.SDK.Level</text>
<text text-anchor="start" x="100" y="-117" font-family="Helvetica,sans-Serif" font-size="10.00">Management.Installers.LevelManager</text>
<text text-anchor="middle" x="192.5" y="-106" font-family="Helvetica,sans-Serif" font-size="10.00">BaseInstaller</text>
</a>
</g>
</g>
<!-- Node23&#45;&gt;Node25 -->
<g id="edge2" class="edge">
<title>Node23&#45;&gt;Node25</title>
<path fill="none" stroke="midnightblue" d="M66.07,-97.89C73.96,-99.25 82.65,-100.74 91.66,-102.3"/>
<polygon fill="midnightblue" stroke="midnightblue" points="66.65,-94.44 56.2,-96.19 65.46,-101.33 66.65,-94.44"/>
</g>
<!-- Node27 -->
<g id="node5" class="node">
<title>Node27</title>
<g id="a_node5"><a xlink:href="db/d3c/class_naughty_biker_games_1_1_s_d_k_1_1_raycast_1_1_installers_1_1_raycaster_base_installer.html" target="_top" xlink:title=" ">
<polygon fill="white" stroke="black" points="100,-49.5 100,-79.5 285,-79.5 285,-49.5 100,-49.5"/>
<text text-anchor="start" x="108" y="-67.5" font-family="Helvetica,sans-Serif" font-size="10.00">NaughtyBikerGames.SDK.Raycast.</text>
<text text-anchor="middle" x="192.5" y="-56.5" font-family="Helvetica,sans-Serif" font-size="10.00">Installers.RaycasterBaseInstaller</text>
</a>
</g>
</g>
<!-- Node23&#45;&gt;Node27 -->
<g id="edge4" class="edge">
<title>Node23&#45;&gt;Node27</title>
<path fill="none" stroke="midnightblue" d="M66.24,-85.31C76.8,-83.56 88.78,-81.57 101.05,-79.53"/>
<polygon fill="midnightblue" stroke="midnightblue" points="65.49,-81.89 56.2,-86.98 66.64,-88.79 65.49,-81.89"/>
</g>
<!-- Node28 -->
<g id="node6" class="node">
<title>Node28</title>
<g id="a_node6"><a xlink:href="df/d52/class_naughty_biker_games_1_1_s_d_k_1_1_signals_1_1_installers_1_1_signals_base_installer.html" target="_top" xlink:title=" ">
<polygon fill="white" stroke="black" points="101.5,-0.5 101.5,-30.5 283.5,-30.5 283.5,-0.5 101.5,-0.5"/>
<text text-anchor="start" x="109.5" y="-18.5" font-family="Helvetica,sans-Serif" font-size="10.00">NaughtyBikerGames.SDK.Signals.</text>
<text text-anchor="middle" x="192.5" y="-7.5" font-family="Helvetica,sans-Serif" font-size="10.00">Installers.SignalsBaseInstaller</text>
</a>
</g>
</g>
<!-- Node23&#45;&gt;Node28 -->
<g id="edge5" class="edge">
<title>Node23&#45;&gt;Node28</title>
<path fill="none" stroke="midnightblue" d="M45.71,-74.54C57.65,-63.35 74.61,-49.19 92,-40.5 99.73,-36.64 108.1,-33.34 116.59,-30.54"/>
<polygon fill="midnightblue" stroke="midnightblue" points="43.05,-72.25 38.31,-81.72 47.92,-77.27 43.05,-72.25"/>
</g>
<!-- Node26 -->
<g id="node4" class="node">
<title>Node26</title>
<g id="a_node4"><a xlink:href="d7/d66/class_naughty_biker_games_1_1_s_d_k_1_1_level_management_1_1_installers_1_1_level_manager_scene_adapters_installer.html" target="_top" xlink:title=" ">
<polygon fill="white" stroke="black" points="329,-99 329,-140 530,-140 530,-99 329,-99"/>
<text text-anchor="start" x="337" y="-128" font-family="Helvetica,sans-Serif" font-size="10.00">NaughtyBikerGames.SDK.Level</text>
<text text-anchor="start" x="337" y="-117" font-family="Helvetica,sans-Serif" font-size="10.00">Management.Installers.LevelManager</text>
<text text-anchor="middle" x="429.5" y="-106" font-family="Helvetica,sans-Serif" font-size="10.00">SceneAdaptersInstaller</text>
</a>
</g>
</g>
<!-- Node25&#45;&gt;Node26 -->
<g id="edge3" class="edge">
<title>Node25&#45;&gt;Node26</title>
<path fill="none" stroke="midnightblue" d="M303.41,-119.5C311.84,-119.5 320.32,-119.5 328.68,-119.5"/>
<polygon fill="midnightblue" stroke="midnightblue" points="303.16,-116 293.16,-119.5 303.16,-123 303.16,-116"/>
</g>
</g>
</svg>
