<?xml version="1.0" encoding="UTF-8" standalone="no"?>
<!DOCTYPE svg PUBLIC "-//W3C//DTD SVG 1.1//EN"
 "http://www.w3.org/Graphics/SVG/1.1/DTD/svg11.dtd">
<!-- Generated by graphviz version 2.43.0 (0)
 -->
<!-- Title: Graphical Class Hierarchy Pages: 1 -->
<svg width="542pt" height="137pt"
 viewBox="0.00 0.00 542.00 137.00" xmlns="http://www.w3.org/2000/svg" xmlns:xlink="http://www.w3.org/1999/xlink">
<g id="graph0" class="graph" transform="scale(1 1) rotate(0) translate(4 133)">
<title>Graphical Class Hierarchy</title>
<polygon fill="white" stroke="transparent" points="-4,4 -4,-133 538,-133 538,4 -4,4"/>
<!-- Node16 -->
<g id="node1" class="node">
<title>Node16</title>
<g id="a_node1"><a xlink:title=" ">
<polygon fill="white" stroke="#bfbfbf" points="0,-55 0,-74 56,-74 56,-55 0,-55"/>
<text text-anchor="middle" x="28" y="-62" font-family="Helvetica,sans-Serif" font-size="10.00">Installer</text>
</a>
</g>
</g>
<!-- Node0 -->
<g id="node2" class="node">
<title>Node0</title>
<g id="a_node2"><a xlink:href="d4/dee/class_naughty_biker_1_1_info_objects_1_1_installers_1_1_info_object_base_installer.html" target="_top" xlink:title=" ">
<polygon fill="white" stroke="black" points="101,-98.5 101,-128.5 280,-128.5 280,-98.5 101,-98.5"/>
<text text-anchor="start" x="109" y="-116.5" font-family="Helvetica,sans-Serif" font-size="10.00">NaughtyBiker.InfoObjects.</text>
<text text-anchor="middle" x="190.5" y="-105.5" font-family="Helvetica,sans-Serif" font-size="10.00">Installers.InfoObjectBaseInstaller</text>
</a>
</g>
</g>
<!-- Node16&#45;&gt;Node0 -->
<g id="edge1" class="edge">
<title>Node16&#45;&gt;Node0</title>
<path fill="none" stroke="midnightblue" d="M60.42,-77.94C70.41,-81.96 81.58,-86.17 92,-89.5 101.96,-92.69 112.61,-95.7 123.08,-98.44"/>
<polygon fill="midnightblue" stroke="midnightblue" points="61.47,-74.59 50.89,-74.04 58.82,-81.07 61.47,-74.59"/>
</g>
<!-- Node18 -->
<g id="node3" class="node">
<title>Node18</title>
<g id="a_node3"><a xlink:href="d0/d03/class_naughty_biker_1_1_level_management_1_1_installers_1_1_level_manager_base_installer.html" target="_top" xlink:title=" ">
<polygon fill="white" stroke="black" points="92,-49.5 92,-79.5 289,-79.5 289,-49.5 92,-49.5"/>
<text text-anchor="start" x="100" y="-67.5" font-family="Helvetica,sans-Serif" font-size="10.00">NaughtyBiker.LevelManagement.</text>
<text text-anchor="middle" x="190.5" y="-56.5" font-family="Helvetica,sans-Serif" font-size="10.00">Installers.LevelManagerBaseInstaller</text>
</a>
</g>
</g>
<!-- Node16&#45;&gt;Node18 -->
<g id="edge2" class="edge">
<title>Node16&#45;&gt;Node18</title>
<path fill="none" stroke="midnightblue" d="M66.44,-64.5C74.32,-64.5 82.97,-64.5 91.93,-64.5"/>
<polygon fill="midnightblue" stroke="midnightblue" points="66.23,-61 56.23,-64.5 66.23,-68 66.23,-61"/>
</g>
<!-- Node20 -->
<g id="node5" class="node">
<title>Node20</title>
<g id="a_node5"><a xlink:href="d7/d81/class_naughty_biker_1_1_signals_1_1_installers_1_1_signals_base_installer.html" target="_top" xlink:title=" ">
<polygon fill="white" stroke="black" points="105,-0.5 105,-30.5 276,-30.5 276,-0.5 105,-0.5"/>
<text text-anchor="start" x="113" y="-18.5" font-family="Helvetica,sans-Serif" font-size="10.00">NaughtyBiker.Signals.Installers.</text>
<text text-anchor="middle" x="190.5" y="-7.5" font-family="Helvetica,sans-Serif" font-size="10.00">SignalsBaseInstaller</text>
</a>
</g>
</g>
<!-- Node16&#45;&gt;Node20 -->
<g id="edge4" class="edge">
<title>Node16&#45;&gt;Node20</title>
<path fill="none" stroke="midnightblue" d="M61.45,-51.33C71.19,-47.6 81.96,-43.69 92,-40.5 103.08,-36.98 114.98,-33.61 126.53,-30.53"/>
<polygon fill="midnightblue" stroke="midnightblue" points="60.16,-48.08 52.12,-54.98 62.7,-54.6 60.16,-48.08"/>
</g>
<!-- Node19 -->
<g id="node4" class="node">
<title>Node19</title>
<g id="a_node4"><a xlink:href="d1/d84/class_naughty_biker_1_1_level_management_1_1_installers_1_1_level_manager_scene_wrappers_installer.html" target="_top" xlink:title=" ">
<polygon fill="white" stroke="black" points="325,-44 325,-85 534,-85 534,-44 325,-44"/>
<text text-anchor="start" x="333" y="-73" font-family="Helvetica,sans-Serif" font-size="10.00">NaughtyBiker.LevelManagement.</text>
<text text-anchor="start" x="333" y="-62" font-family="Helvetica,sans-Serif" font-size="10.00">Installers.LevelManagerSceneWrappers</text>
<text text-anchor="middle" x="429.5" y="-51" font-family="Helvetica,sans-Serif" font-size="10.00">Installer</text>
</a>
</g>
</g>
<!-- Node18&#45;&gt;Node19 -->
<g id="edge3" class="edge">
<title>Node18&#45;&gt;Node19</title>
<path fill="none" stroke="midnightblue" d="M299.5,-64.5C307.92,-64.5 316.42,-64.5 324.82,-64.5"/>
<polygon fill="midnightblue" stroke="midnightblue" points="299.27,-61 289.27,-64.5 299.27,-68 299.27,-61"/>
</g>
</g>
</svg>
