<?xml version="1.0" encoding="UTF-8" standalone="no"?>
<!DOCTYPE svg PUBLIC "-//W3C//DTD SVG 1.1//EN"
 "http://www.w3.org/Graphics/SVG/1.1/DTD/svg11.dtd">
<!-- Generated by graphviz version 2.43.0 (0)
 -->
<!-- Title: Graphical Class Hierarchy Pages: 1 -->
<svg width="538pt" height="160pt"
 viewBox="0.00 0.00 538.00 159.50" xmlns="http://www.w3.org/2000/svg" xmlns:xlink="http://www.w3.org/1999/xlink">
<g id="graph0" class="graph" transform="scale(1 1) rotate(0) translate(4 155.5)">
<title>Graphical Class Hierarchy</title>
<polygon fill="white" stroke="transparent" points="-4,4 -4,-155.5 534,-155.5 534,4 -4,4"/>
<!-- Node16 -->
<g id="node1" class="node">
<title>Node16</title>
<g id="a_node1"><a xlink:title=" ">
<polygon fill="white" stroke="#bfbfbf" points="0,-61 0,-80 56,-80 56,-61 0,-61"/>
<text text-anchor="middle" x="28" y="-68" font-family="Helvetica,sans-Serif" font-size="10.00">Installer</text>
</a>
</g>
</g>
<!-- Node0 -->
<g id="node2" class="node">
<title>Node0</title>
<g id="a_node2"><a xlink:href="d0/dac/class_naughty_biker_games_1_1_s_d_k_1_1_info_objects_1_1_installers_1_1_info_object_base_installer.html" target="_top" xlink:title=" ">
<polygon fill="white" stroke="black" points="103,-110 103,-151 282,-151 282,-110 103,-110"/>
<text text-anchor="start" x="111" y="-139" font-family="Helvetica,sans-Serif" font-size="10.00">NaughtyBikerGames.SDK.Info</text>
<text text-anchor="start" x="111" y="-128" font-family="Helvetica,sans-Serif" font-size="10.00">Objects.Installers.InfoObjectBase</text>
<text text-anchor="middle" x="192.5" y="-117" font-family="Helvetica,sans-Serif" font-size="10.00">Installer</text>
</a>
</g>
</g>
<!-- Node16&#45;&gt;Node0 -->
<g id="edge1" class="edge">
<title>Node16&#45;&gt;Node0</title>
<path fill="none" stroke="midnightblue" d="M56.22,-84.57C67.17,-89.94 80.03,-95.87 92,-100.5 100.58,-103.82 109.7,-107 118.79,-109.98"/>
<polygon fill="midnightblue" stroke="midnightblue" points="57.66,-81.38 47.15,-80.04 54.53,-87.64 57.66,-81.38"/>
</g>
<!-- Node18 -->
<g id="node3" class="node">
<title>Node18</title>
<g id="a_node3"><a xlink:href="d6/dcb/class_naughty_biker_games_1_1_s_d_k_1_1_level_management_1_1_installers_1_1_level_manager_base_installer.html" target="_top" xlink:title=" ">
<polygon fill="white" stroke="black" points="92,-50 92,-91 293,-91 293,-50 92,-50"/>
<text text-anchor="start" x="100" y="-79" font-family="Helvetica,sans-Serif" font-size="10.00">NaughtyBikerGames.SDK.Level</text>
<text text-anchor="start" x="100" y="-68" font-family="Helvetica,sans-Serif" font-size="10.00">Management.Installers.LevelManager</text>
<text text-anchor="middle" x="192.5" y="-57" font-family="Helvetica,sans-Serif" font-size="10.00">BaseInstaller</text>
</a>
</g>
</g>
<!-- Node16&#45;&gt;Node18 -->
<g id="edge2" class="edge">
<title>Node16&#45;&gt;Node18</title>
<path fill="none" stroke="midnightblue" d="M66.34,-70.5C74.16,-70.5 82.75,-70.5 91.66,-70.5"/>
<polygon fill="midnightblue" stroke="midnightblue" points="66.2,-67 56.2,-70.5 66.2,-74 66.2,-67"/>
</g>
<!-- Node20 -->
<g id="node5" class="node">
<title>Node20</title>
<g id="a_node5"><a xlink:href="df/d52/class_naughty_biker_games_1_1_s_d_k_1_1_signals_1_1_installers_1_1_signals_base_installer.html" target="_top" xlink:title=" ">
<polygon fill="white" stroke="black" points="101.5,-0.5 101.5,-30.5 283.5,-30.5 283.5,-0.5 101.5,-0.5"/>
<text text-anchor="start" x="109.5" y="-18.5" font-family="Helvetica,sans-Serif" font-size="10.00">NaughtyBikerGames.SDK.Signals.</text>
<text text-anchor="middle" x="192.5" y="-7.5" font-family="Helvetica,sans-Serif" font-size="10.00">Installers.SignalsBaseInstaller</text>
</a>
</g>
</g>
<!-- Node16&#45;&gt;Node20 -->
<g id="edge4" class="edge">
<title>Node16&#45;&gt;Node20</title>
<path fill="none" stroke="midnightblue" d="M55.87,-56.26C66.86,-50.82 79.83,-44.88 92,-40.5 102.22,-36.82 113.22,-33.48 124.05,-30.52"/>
<polygon fill="midnightblue" stroke="midnightblue" points="54.13,-53.22 46.79,-60.86 57.29,-59.46 54.13,-53.22"/>
</g>
<!-- Node19 -->
<g id="node4" class="node">
<title>Node19</title>
<g id="a_node4"><a xlink:href="d7/d66/class_naughty_biker_games_1_1_s_d_k_1_1_level_management_1_1_installers_1_1_level_manager_scene_adapters_installer.html" target="_top" xlink:title=" ">
<polygon fill="white" stroke="black" points="329,-50 329,-91 530,-91 530,-50 329,-50"/>
<text text-anchor="start" x="337" y="-79" font-family="Helvetica,sans-Serif" font-size="10.00">NaughtyBikerGames.SDK.Level</text>
<text text-anchor="start" x="337" y="-68" font-family="Helvetica,sans-Serif" font-size="10.00">Management.Installers.LevelManager</text>
<text text-anchor="middle" x="429.5" y="-57" font-family="Helvetica,sans-Serif" font-size="10.00">SceneAdaptersInstaller</text>
</a>
</g>
</g>
<!-- Node18&#45;&gt;Node19 -->
<g id="edge3" class="edge">
<title>Node18&#45;&gt;Node19</title>
<path fill="none" stroke="midnightblue" d="M303.41,-70.5C311.84,-70.5 320.32,-70.5 328.68,-70.5"/>
<polygon fill="midnightblue" stroke="midnightblue" points="303.16,-67 293.16,-70.5 303.16,-74 303.16,-67"/>
</g>
</g>
</svg>
