<?xml version="1.0" encoding="UTF-8" standalone="no"?>
<!DOCTYPE svg PUBLIC "-//W3C//DTD SVG 1.1//EN"
 "http://www.w3.org/Graphics/SVG/1.1/DTD/svg11.dtd">
<!-- Generated by graphviz version 2.43.0 (0)
 -->
<!-- Title: Graphical Class Hierarchy Pages: 1 -->
<svg width="336pt" height="247pt"
 viewBox="0.00 0.00 336.00 247.00" xmlns="http://www.w3.org/2000/svg" xmlns:xlink="http://www.w3.org/1999/xlink">
<g id="graph0" class="graph" transform="scale(1 1) rotate(0) translate(4 243)">
<title>Graphical Class Hierarchy</title>
<polygon fill="white" stroke="transparent" points="-4,4 -4,-243 332,-243 332,4 -4,4"/>
<!-- Node2 -->
<g id="node1" class="node">
<title>Node2</title>
<g id="a_node1"><a xlink:title=" ">
<polygon fill="white" stroke="#bfbfbf" points="0,-110 0,-129 83,-129 83,-110 0,-110"/>
<text text-anchor="middle" x="41.5" y="-117" font-family="Helvetica,sans-Serif" font-size="10.00">MonoInstaller</text>
</a>
</g>
</g>
<!-- Node0 -->
<g id="node2" class="node">
<title>Node0</title>
<g id="a_node2"><a xlink:href="db/d89/class_naughty_biker_games_1_1_s_d_k_1_1_info_objects_1_1_installers_1_1_info_object_installer.html" target="_top" xlink:title=" ">
<polygon fill="white" stroke="black" points="126.5,-208.5 126.5,-238.5 320.5,-238.5 320.5,-208.5 126.5,-208.5"/>
<text text-anchor="start" x="134.5" y="-226.5" font-family="Helvetica,sans-Serif" font-size="10.00">NaughtyBikerGames.SDK.Info</text>
<text text-anchor="middle" x="223.5" y="-215.5" font-family="Helvetica,sans-Serif" font-size="10.00">Objects.Installers.InfoObjectInstaller</text>
</a>
</g>
</g>
<!-- Node2&#45;&gt;Node0 -->
<g id="edge1" class="edge">
<title>Node2&#45;&gt;Node0</title>
<path fill="none" stroke="midnightblue" d="M54.61,-137.27C68.13,-155.7 91.74,-183.97 119,-199.5 125.09,-202.97 131.65,-205.94 138.41,-208.48"/>
<polygon fill="midnightblue" stroke="midnightblue" points="57.45,-135.23 48.81,-129.11 51.75,-139.29 57.45,-135.23"/>
</g>
<!-- Node4 -->
<g id="node3" class="node">
<title>Node4</title>
<g id="a_node3"><a xlink:href="de/d63/class_naughty_biker_games_1_1_s_d_k_1_1_interpolation_1_1_installers_1_1_lerper_installer.html" target="_top" xlink:title=" ">
<polygon fill="white" stroke="black" points="119,-159.5 119,-189.5 328,-189.5 328,-159.5 119,-159.5"/>
<text text-anchor="start" x="127" y="-177.5" font-family="Helvetica,sans-Serif" font-size="10.00">NaughtyBikerGames.SDK.Interpolation.</text>
<text text-anchor="middle" x="223.5" y="-166.5" font-family="Helvetica,sans-Serif" font-size="10.00">Installers.LerperInstaller</text>
</a>
</g>
</g>
<!-- Node2&#45;&gt;Node4 -->
<g id="edge2" class="edge">
<title>Node2&#45;&gt;Node4</title>
<path fill="none" stroke="midnightblue" d="M74.07,-133C87.73,-138.55 104,-144.77 119,-149.5 130.37,-153.08 142.58,-156.45 154.49,-159.48"/>
<polygon fill="midnightblue" stroke="midnightblue" points="75.22,-129.69 64.64,-129.11 72.55,-136.16 75.22,-129.69"/>
</g>
<!-- Node5 -->
<g id="node4" class="node">
<title>Node5</title>
<g id="a_node4"><a xlink:href="d0/d83/class_naughty_biker_games_1_1_s_d_k_1_1_level_management_1_1_installers_1_1_level_manager_installer.html" target="_top" xlink:title=" ">
<polygon fill="white" stroke="black" points="123,-99 123,-140 324,-140 324,-99 123,-99"/>
<text text-anchor="start" x="131" y="-128" font-family="Helvetica,sans-Serif" font-size="10.00">NaughtyBikerGames.SDK.Level</text>
<text text-anchor="start" x="131" y="-117" font-family="Helvetica,sans-Serif" font-size="10.00">Management.Installers.LevelManager</text>
<text text-anchor="middle" x="223.5" y="-106" font-family="Helvetica,sans-Serif" font-size="10.00">Installer</text>
</a>
</g>
</g>
<!-- Node2&#45;&gt;Node5 -->
<g id="edge3" class="edge">
<title>Node2&#45;&gt;Node5</title>
<path fill="none" stroke="midnightblue" d="M93.48,-119.5C102.73,-119.5 112.67,-119.5 122.77,-119.5"/>
<polygon fill="midnightblue" stroke="midnightblue" points="93.34,-116 83.34,-119.5 93.34,-123 93.34,-116"/>
</g>
<!-- Node6 -->
<g id="node5" class="node">
<title>Node6</title>
<g id="a_node5"><a xlink:href="d2/d8b/class_naughty_biker_games_1_1_s_d_k_1_1_raycast_1_1_installers_1_1_raycaster_installer.html" target="_top" xlink:title=" ">
<polygon fill="white" stroke="black" points="131,-49.5 131,-79.5 316,-79.5 316,-49.5 131,-49.5"/>
<text text-anchor="start" x="139" y="-67.5" font-family="Helvetica,sans-Serif" font-size="10.00">NaughtyBikerGames.SDK.Raycast.</text>
<text text-anchor="middle" x="223.5" y="-56.5" font-family="Helvetica,sans-Serif" font-size="10.00">Installers.RaycasterInstaller</text>
</a>
</g>
</g>
<!-- Node2&#45;&gt;Node6 -->
<g id="edge4" class="edge">
<title>Node2&#45;&gt;Node6</title>
<path fill="none" stroke="midnightblue" d="M74.07,-106C87.73,-100.45 104,-94.23 119,-89.5 130.37,-85.92 142.58,-82.55 154.49,-79.52"/>
<polygon fill="midnightblue" stroke="midnightblue" points="72.55,-102.84 64.64,-109.89 75.22,-109.31 72.55,-102.84"/>
</g>
<!-- Node7 -->
<g id="node6" class="node">
<title>Node7</title>
<g id="a_node6"><a xlink:href="de/d19/class_naughty_biker_games_1_1_s_d_k_1_1_signals_1_1_installers_1_1_signals_installer.html" target="_top" xlink:title=" ">
<polygon fill="white" stroke="black" points="132.5,-0.5 132.5,-30.5 314.5,-30.5 314.5,-0.5 132.5,-0.5"/>
<text text-anchor="start" x="140.5" y="-18.5" font-family="Helvetica,sans-Serif" font-size="10.00">NaughtyBikerGames.SDK.Signals.</text>
<text text-anchor="middle" x="223.5" y="-7.5" font-family="Helvetica,sans-Serif" font-size="10.00">Installers.SignalsInstaller</text>
</a>
</g>
</g>
<!-- Node2&#45;&gt;Node7 -->
<g id="edge5" class="edge">
<title>Node2&#45;&gt;Node7</title>
<path fill="none" stroke="midnightblue" d="M55.27,-101.22C68.95,-83.05 92.32,-55.75 119,-40.5 125.82,-36.6 133.23,-33.31 140.84,-30.53"/>
<polygon fill="midnightblue" stroke="midnightblue" points="52.1,-99.63 49.04,-109.78 57.76,-103.76 52.1,-99.63"/>
</g>
</g>
</svg>
