<?xml version="1.0" encoding="UTF-8" standalone="no"?>
<!DOCTYPE svg PUBLIC "-//W3C//DTD SVG 1.1//EN"
 "http://www.w3.org/Graphics/SVG/1.1/DTD/svg11.dtd">
<!-- Generated by graphviz version 2.43.0 (0)
 -->
<!-- Title: Graphical Class Hierarchy Pages: 1 -->
<svg width="546pt" height="259pt"
 viewBox="0.00 0.00 546.00 258.50" xmlns="http://www.w3.org/2000/svg" xmlns:xlink="http://www.w3.org/1999/xlink">
<g id="graph0" class="graph" transform="scale(1 1) rotate(0) translate(4 254.5)">
<title>Graphical Class Hierarchy</title>
<polygon fill="white" stroke="transparent" points="-4,4 -4,-254.5 542,-254.5 542,4 -4,4"/>
<!-- Node24 -->
<g id="node1" class="node">
<title>Node24</title>
<g id="a_node1"><a xlink:title=" ">
<polygon fill="white" stroke="#bfbfbf" points="0,-110 0,-129 56,-129 56,-110 0,-110"/>
<text text-anchor="middle" x="28" y="-117" font-family="Helvetica,sans-Serif" font-size="10.00">Installer</text>
</a>
</g>
</g>
<!-- Node0 -->
<g id="node2" class="node">
<title>Node0</title>
<g id="a_node2"><a xlink:href="d0/dac/class_naughty_biker_games_1_1_s_d_k_1_1_info_objects_1_1_installers_1_1_info_object_base_installer.html" target="_top" xlink:title=" ">
<polygon fill="white" stroke="black" points="107,-209 107,-250 286,-250 286,-209 107,-209"/>
<text text-anchor="start" x="115" y="-238" font-family="Helvetica,sans-Serif" font-size="10.00">NaughtyBikerGames.SDK.Info</text>
<text text-anchor="start" x="115" y="-227" font-family="Helvetica,sans-Serif" font-size="10.00">Objects.Installers.InfoObjectBase</text>
<text text-anchor="middle" x="196.5" y="-216" font-family="Helvetica,sans-Serif" font-size="10.00">Installer</text>
</a>
</g>
</g>
<!-- Node24&#45;&gt;Node0 -->
<g id="edge1" class="edge">
<title>Node24&#45;&gt;Node0</title>
<path fill="none" stroke="midnightblue" d="M39.14,-138.33C49.92,-156.58 68.62,-183.75 92,-199.5 97.28,-203.05 102.97,-206.19 108.89,-208.97"/>
<polygon fill="midnightblue" stroke="midnightblue" points="41.97,-136.21 33.99,-129.23 35.88,-139.66 41.97,-136.21"/>
</g>
<!-- Node26 -->
<g id="node3" class="node">
<title>Node26</title>
<g id="a_node3"><a xlink:href="d7/dc1/class_naughty_biker_games_1_1_s_d_k_1_1_interpolation_1_1_installers_1_1_lerper_base_installer.html" target="_top" xlink:title=" ">
<polygon fill="white" stroke="black" points="92,-159.5 92,-189.5 301,-189.5 301,-159.5 92,-159.5"/>
<text text-anchor="start" x="100" y="-177.5" font-family="Helvetica,sans-Serif" font-size="10.00">NaughtyBikerGames.SDK.Interpolation.</text>
<text text-anchor="middle" x="196.5" y="-166.5" font-family="Helvetica,sans-Serif" font-size="10.00">Installers.LerperBaseInstaller</text>
</a>
</g>
</g>
<!-- Node24&#45;&gt;Node26 -->
<g id="edge2" class="edge">
<title>Node24&#45;&gt;Node26</title>
<path fill="none" stroke="midnightblue" d="M55.61,-133.68C66.65,-139.16 79.72,-145.15 92,-149.5 102.45,-153.21 113.69,-156.55 124.77,-159.49"/>
<polygon fill="midnightblue" stroke="midnightblue" points="57,-130.46 46.5,-129.05 53.83,-136.7 57,-130.46"/>
</g>
<!-- Node27 -->
<g id="node4" class="node">
<title>Node27</title>
<g id="a_node4"><a xlink:href="d6/dcb/class_naughty_biker_games_1_1_s_d_k_1_1_level_management_1_1_installers_1_1_level_manager_base_installer.html" target="_top" xlink:title=" ">
<polygon fill="white" stroke="black" points="96,-99 96,-140 297,-140 297,-99 96,-99"/>
<text text-anchor="start" x="104" y="-128" font-family="Helvetica,sans-Serif" font-size="10.00">NaughtyBikerGames.SDK.Level</text>
<text text-anchor="start" x="104" y="-117" font-family="Helvetica,sans-Serif" font-size="10.00">Management.Installers.LevelManager</text>
<text text-anchor="middle" x="196.5" y="-106" font-family="Helvetica,sans-Serif" font-size="10.00">BaseInstaller</text>
</a>
</g>
</g>
<!-- Node24&#45;&gt;Node27 -->
<g id="edge3" class="edge">
<title>Node24&#45;&gt;Node27</title>
<path fill="none" stroke="midnightblue" d="M66.17,-119.5C75.18,-119.5 85.24,-119.5 95.66,-119.5"/>
<polygon fill="midnightblue" stroke="midnightblue" points="66.12,-116 56.12,-119.5 66.12,-123 66.12,-116"/>
</g>
<!-- Node29 -->
<g id="node6" class="node">
<title>Node29</title>
<g id="a_node6"><a xlink:href="db/d3c/class_naughty_biker_games_1_1_s_d_k_1_1_raycast_1_1_installers_1_1_raycaster_base_installer.html" target="_top" xlink:title=" ">
<polygon fill="white" stroke="black" points="104,-49.5 104,-79.5 289,-79.5 289,-49.5 104,-49.5"/>
<text text-anchor="start" x="112" y="-67.5" font-family="Helvetica,sans-Serif" font-size="10.00">NaughtyBikerGames.SDK.Raycast.</text>
<text text-anchor="middle" x="196.5" y="-56.5" font-family="Helvetica,sans-Serif" font-size="10.00">Installers.RaycasterBaseInstaller</text>
</a>
</g>
</g>
<!-- Node24&#45;&gt;Node29 -->
<g id="edge5" class="edge">
<title>Node24&#45;&gt;Node29</title>
<path fill="none" stroke="midnightblue" d="M55.61,-105.32C66.65,-99.84 79.72,-93.85 92,-89.5 102.45,-85.79 113.69,-82.45 124.77,-79.51"/>
<polygon fill="midnightblue" stroke="midnightblue" points="53.83,-102.3 46.5,-109.95 57,-108.54 53.83,-102.3"/>
</g>
<!-- Node30 -->
<g id="node7" class="node">
<title>Node30</title>
<g id="a_node7"><a xlink:href="df/d52/class_naughty_biker_games_1_1_s_d_k_1_1_signals_1_1_installers_1_1_signals_base_installer.html" target="_top" xlink:title=" ">
<polygon fill="white" stroke="black" points="105.5,-0.5 105.5,-30.5 287.5,-30.5 287.5,-0.5 105.5,-0.5"/>
<text text-anchor="start" x="113.5" y="-18.5" font-family="Helvetica,sans-Serif" font-size="10.00">NaughtyBikerGames.SDK.Signals.</text>
<text text-anchor="middle" x="196.5" y="-7.5" font-family="Helvetica,sans-Serif" font-size="10.00">Installers.SignalsBaseInstaller</text>
</a>
</g>
</g>
<!-- Node24&#45;&gt;Node30 -->
<g id="edge6" class="edge">
<title>Node24&#45;&gt;Node30</title>
<path fill="none" stroke="midnightblue" d="M39.05,-100.69C49.76,-82.49 68.41,-55.53 92,-40.5 98.08,-36.63 104.71,-33.35 111.58,-30.59"/>
<polygon fill="midnightblue" stroke="midnightblue" points="35.8,-99.33 33.94,-109.76 41.9,-102.77 35.8,-99.33"/>
</g>
<!-- Node28 -->
<g id="node5" class="node">
<title>Node28</title>
<g id="a_node5"><a xlink:href="d7/d66/class_naughty_biker_games_1_1_s_d_k_1_1_level_management_1_1_installers_1_1_level_manager_scene_adapters_installer.html" target="_top" xlink:title=" ">
<polygon fill="white" stroke="black" points="337,-99 337,-140 538,-140 538,-99 337,-99"/>
<text text-anchor="start" x="345" y="-128" font-family="Helvetica,sans-Serif" font-size="10.00">NaughtyBikerGames.SDK.Level</text>
<text text-anchor="start" x="345" y="-117" font-family="Helvetica,sans-Serif" font-size="10.00">Management.Installers.LevelManager</text>
<text text-anchor="middle" x="437.5" y="-106" font-family="Helvetica,sans-Serif" font-size="10.00">SceneAdaptersInstaller</text>
</a>
</g>
</g>
<!-- Node27&#45;&gt;Node28 -->
<g id="edge4" class="edge">
<title>Node27&#45;&gt;Node28</title>
<path fill="none" stroke="midnightblue" d="M307.29,-119.5C317.07,-119.5 326.95,-119.5 336.65,-119.5"/>
<polygon fill="midnightblue" stroke="midnightblue" points="307.13,-116 297.13,-119.5 307.13,-123 307.13,-116"/>
</g>
</g>
</svg>
