<?xml version="1.0" encoding="UTF-8" standalone="no"?>
<!DOCTYPE svg PUBLIC "-//W3C//DTD SVG 1.1//EN"
 "http://www.w3.org/Graphics/SVG/1.1/DTD/svg11.dtd">
<!-- Generated by graphviz version 2.43.0 (0)
 -->
<!-- Title: NaughtyBiker.InfoObjects.Installers.InfoObjectBaseInstaller.InstallBindings Pages: 1 -->
<svg width="377pt" height="50pt"
 viewBox="0.00 0.00 377.00 50.00" xmlns="http://www.w3.org/2000/svg" xmlns:xlink="http://www.w3.org/1999/xlink">
<g id="graph0" class="graph" transform="scale(1 1) rotate(0) translate(4 46)">
<title>NaughtyBiker.InfoObjects.Installers.InfoObjectBaseInstaller.InstallBindings</title>
<polygon fill="white" stroke="transparent" points="-4,4 -4,-46 373,-46 373,4 -4,4"/>
<!-- Node1 -->
<g id="node1" class="node">
<title>Node1</title>
<g id="a_node1"><a xlink:title=" ">
<polygon fill="#bfbfbf" stroke="black" points="0,-0.5 0,-41.5 181,-41.5 181,-0.5 0,-0.5"/>
<text text-anchor="start" x="8" y="-29.5" font-family="Helvetica,sans-Serif" font-size="10.00">NaughtyBiker.InfoObjects.</text>
<text text-anchor="start" x="8" y="-18.5" font-family="Helvetica,sans-Serif" font-size="10.00">Installers.InfoObjectBaseInstaller.</text>
<text text-anchor="middle" x="90.5" y="-7.5" font-family="Helvetica,sans-Serif" font-size="10.00">InstallBindings</text>
</a>
</g>
</g>
<!-- Node2 -->
<g id="node2" class="node">
<title>Node2</title>
<g id="a_node2"><a xlink:href="../../db/d89/namespace_naughty_biker_1_1_info_objects_1_1_delegates.html#aac1b20527b32409a2b1f5bc0254d9eae" target="_top" xlink:title=" ">
<polygon fill="white" stroke="black" points="217,-6 217,-36 369,-36 369,-6 217,-6"/>
<text text-anchor="start" x="225" y="-24" font-family="Helvetica,sans-Serif" font-size="10.00">NaughtyBiker.InfoObjects.</text>
<text text-anchor="middle" x="293" y="-13" font-family="Helvetica,sans-Serif" font-size="10.00">Delegates.CreateInfoObject</text>
</a>
</g>
</g>
<!-- Node1&#45;&gt;Node2 -->
<g id="edge1" class="edge">
<title>Node1&#45;&gt;Node2</title>
<path fill="none" stroke="midnightblue" d="M181.19,-21C189.64,-21 198.2,-21 206.61,-21"/>
<polygon fill="midnightblue" stroke="midnightblue" points="206.78,-24.5 216.78,-21 206.78,-17.5 206.78,-24.5"/>
</g>
</g>
</svg>
