<?xml version="1.0" encoding="UTF-8" standalone="no"?>
<!DOCTYPE svg PUBLIC "-//W3C//DTD SVG 1.1//EN"
 "http://www.w3.org/Graphics/SVG/1.1/DTD/svg11.dtd">
<!-- Generated by graphviz version 2.43.0 (0)
 -->
<!-- Title: NaughtyBikerGames.SDK.LevelManagement.LevelManager Pages: 1 -->
<svg width="552pt" height="541pt"
 viewBox="0.00 0.00 551.50 541.00" xmlns="http://www.w3.org/2000/svg" xmlns:xlink="http://www.w3.org/1999/xlink">
<g id="graph0" class="graph" transform="scale(1 1) rotate(0) translate(4 537)">
<title>NaughtyBikerGames.SDK.LevelManagement.LevelManager</title>
<polygon fill="white" stroke="transparent" points="-4,4 -4,-537 547.5,-537 547.5,4 -4,4"/>
<!-- Node1 -->
<g id="node1" class="node">
<title>Node1</title>
<g id="a_node1"><a xlink:title=" ">
<polygon fill="#bfbfbf" stroke="black" points="155.5,-0.5 155.5,-233.5 325.5,-233.5 325.5,-0.5 155.5,-0.5"/>
<text text-anchor="start" x="163.5" y="-221.5" font-family="Helvetica,sans-Serif" font-size="10.00">NaughtyBikerGames.SDK.Level</text>
<text text-anchor="middle" x="240.5" y="-210.5" font-family="Helvetica,sans-Serif" font-size="10.00">Management.LevelManager</text>
<polyline fill="none" stroke="black" points="155.5,-203.5 325.5,-203.5 "/>
<text text-anchor="start" x="163.5" y="-191.5" font-family="Helvetica,sans-Serif" font-size="10.00">+ ActiveLevelLabel</text>
<text text-anchor="start" x="163.5" y="-180.5" font-family="Helvetica,sans-Serif" font-size="10.00">+ ActiveLevel</text>
<text text-anchor="start" x="163.5" y="-169.5" font-family="Helvetica,sans-Serif" font-size="10.00">+ FirstLevel</text>
<text text-anchor="start" x="163.5" y="-158.5" font-family="Helvetica,sans-Serif" font-size="10.00">&#45; levels</text>
<text text-anchor="start" x="163.5" y="-147.5" font-family="Helvetica,sans-Serif" font-size="10.00">&#45; labels</text>
<text text-anchor="start" x="163.5" y="-136.5" font-family="Helvetica,sans-Serif" font-size="10.00">&#45; activeLevel</text>
<text text-anchor="start" x="163.5" y="-125.5" font-family="Helvetica,sans-Serif" font-size="10.00">&#45; firstLevel</text>
<polyline fill="none" stroke="black" points="155.5,-118.5 325.5,-118.5 "/>
<text text-anchor="start" x="163.5" y="-106.5" font-family="Helvetica,sans-Serif" font-size="10.00">+ Initialize()</text>
<text text-anchor="start" x="163.5" y="-95.5" font-family="Helvetica,sans-Serif" font-size="10.00">+ GetLevel()</text>
<text text-anchor="start" x="163.5" y="-84.5" font-family="Helvetica,sans-Serif" font-size="10.00">+ GetLevelLabel()</text>
<text text-anchor="start" x="163.5" y="-73.5" font-family="Helvetica,sans-Serif" font-size="10.00">+ GetLevelLabel()</text>
<text text-anchor="start" x="163.5" y="-62.5" font-family="Helvetica,sans-Serif" font-size="10.00">+ LoadLevel()</text>
<text text-anchor="start" x="163.5" y="-51.5" font-family="Helvetica,sans-Serif" font-size="10.00">+ LoadNextLevel()</text>
<text text-anchor="start" x="163.5" y="-40.5" font-family="Helvetica,sans-Serif" font-size="10.00">+ LoadPreviousLevel()</text>
<text text-anchor="start" x="163.5" y="-29.5" font-family="Helvetica,sans-Serif" font-size="10.00">+ LoadFirstLevel()</text>
<text text-anchor="start" x="163.5" y="-18.5" font-family="Helvetica,sans-Serif" font-size="10.00">+ ReloadLevel()</text>
<text text-anchor="start" x="163.5" y="-7.5" font-family="Helvetica,sans-Serif" font-size="10.00">&#45; LevelManager()</text>
</a>
</g>
</g>
<!-- Node2 -->
<g id="node2" class="node">
<title>Node2</title>
<g id="a_node2"><a xlink:href="../../db/d48/interface_naughty_biker_games_1_1_s_d_k_1_1_level_management_1_1_interfaces_1_1_i_level_manager.html" target="_top" xlink:title=" ">
<polygon fill="white" stroke="black" points="0,-281.5 0,-437.5 127,-437.5 127,-281.5 0,-281.5"/>
<text text-anchor="middle" x="63.5" y="-425.5" font-family="Helvetica,sans-Serif" font-size="10.00">ILevelManager</text>
<polyline fill="none" stroke="black" points="0,-418.5 127,-418.5 "/>
<text text-anchor="start" x="8" y="-406.5" font-family="Helvetica,sans-Serif" font-size="10.00">+ ActiveLevelLabel</text>
<text text-anchor="start" x="8" y="-395.5" font-family="Helvetica,sans-Serif" font-size="10.00">+ ActiveLevel</text>
<text text-anchor="start" x="8" y="-384.5" font-family="Helvetica,sans-Serif" font-size="10.00">+ FirstLevel</text>
<polyline fill="none" stroke="black" points="0,-377.5 127,-377.5 "/>
<text text-anchor="start" x="8" y="-365.5" font-family="Helvetica,sans-Serif" font-size="10.00">+ GetLevel()</text>
<text text-anchor="start" x="8" y="-354.5" font-family="Helvetica,sans-Serif" font-size="10.00">+ GetLevelLabel()</text>
<text text-anchor="start" x="8" y="-343.5" font-family="Helvetica,sans-Serif" font-size="10.00">+ GetLevelLabel()</text>
<text text-anchor="start" x="8" y="-332.5" font-family="Helvetica,sans-Serif" font-size="10.00">+ LoadLevel()</text>
<text text-anchor="start" x="8" y="-321.5" font-family="Helvetica,sans-Serif" font-size="10.00">+ LoadNextLevel()</text>
<text text-anchor="start" x="8" y="-310.5" font-family="Helvetica,sans-Serif" font-size="10.00">+ LoadPreviousLevel()</text>
<text text-anchor="start" x="8" y="-299.5" font-family="Helvetica,sans-Serif" font-size="10.00">+ LoadFirstLevel()</text>
<text text-anchor="start" x="8" y="-288.5" font-family="Helvetica,sans-Serif" font-size="10.00">+ ReloadLevel()</text>
</a>
</g>
</g>
<!-- Node2&#45;&gt;Node1 -->
<g id="edge1" class="edge">
<title>Node2&#45;&gt;Node1</title>
<path fill="none" stroke="midnightblue" d="M126.36,-273.09C135.77,-260.3 145.61,-246.93 155.4,-233.64"/>
<polygon fill="none" stroke="midnightblue" points="123.34,-271.28 120.23,-281.41 128.98,-275.43 123.34,-271.28"/>
</g>
<!-- Node3 -->
<g id="node3" class="node">
<title>Node3</title>
<g id="a_node3"><a xlink:title=" ">
<polygon fill="white" stroke="#bfbfbf" points="25,-475.5 25,-532.5 102,-532.5 102,-475.5 25,-475.5"/>
<text text-anchor="middle" x="63.5" y="-520.5" font-family="Helvetica,sans-Serif" font-size="10.00">IInitializable</text>
<polyline fill="none" stroke="#bfbfbf" points="25,-513.5 102,-513.5 "/>
<text text-anchor="middle" x="63.5" y="-501.5" font-family="Helvetica,sans-Serif" font-size="10.00"> </text>
<polyline fill="none" stroke="#bfbfbf" points="25,-494.5 102,-494.5 "/>
<text text-anchor="middle" x="63.5" y="-482.5" font-family="Helvetica,sans-Serif" font-size="10.00"> </text>
</a>
</g>
</g>
<!-- Node3&#45;&gt;Node2 -->
<g id="edge2" class="edge">
<title>Node3&#45;&gt;Node2</title>
<path fill="none" stroke="midnightblue" d="M63.5,-464.91C63.5,-456.42 63.5,-447.12 63.5,-437.69"/>
<polygon fill="none" stroke="midnightblue" points="60,-465.19 63.5,-475.19 67,-465.19 60,-465.19"/>
</g>
<!-- Node4 -->
<g id="node4" class="node">
<title>Node4</title>
<g id="a_node4"><a xlink:href="../../d2/dc6/interface_naughty_biker_games_1_1_s_d_k_1_1_adapters_1_1_interfaces_1_1_i_scene_utility.html" target="_top" xlink:title=" ">
<polygon fill="white" stroke="black" points="145.5,-325.5 145.5,-393.5 335.5,-393.5 335.5,-325.5 145.5,-325.5"/>
<text text-anchor="start" x="153.5" y="-381.5" font-family="Helvetica,sans-Serif" font-size="10.00">NaughtyBikerGames.SDK.Adapters.</text>
<text text-anchor="middle" x="240.5" y="-370.5" font-family="Helvetica,sans-Serif" font-size="10.00">Interfaces.ISceneUtility</text>
<polyline fill="none" stroke="black" points="145.5,-363.5 335.5,-363.5 "/>
<text text-anchor="middle" x="240.5" y="-351.5" font-family="Helvetica,sans-Serif" font-size="10.00"> </text>
<polyline fill="none" stroke="black" points="145.5,-344.5 335.5,-344.5 "/>
<text text-anchor="start" x="153.5" y="-332.5" font-family="Helvetica,sans-Serif" font-size="10.00">+ GetScenePathByBuildIndex()</text>
</a>
</g>
</g>
<!-- Node4&#45;&gt;Node1 -->
<g id="edge3" class="edge">
<title>Node4&#45;&gt;Node1</title>
<path fill="none" stroke="#404040" d="M240.5,-325.31C240.5,-304.19 240.5,-275.34 240.5,-245.88"/>
<polygon fill="none" stroke="#404040" points="240.5,-245.69 236.5,-239.69 240.5,-233.69 244.5,-239.69 240.5,-245.69"/>
<text text-anchor="middle" x="273.5" y="-255" font-family="Helvetica,sans-Serif" font-size="10.00"> &#45;sceneUtility</text>
</g>
<!-- Node5 -->
<g id="node5" class="node">
<title>Node5</title>
<g id="a_node5"><a xlink:href="../../d4/d8d/interface_naughty_biker_games_1_1_s_d_k_1_1_adapters_1_1_interfaces_1_1_i_scene_manager.html" target="_top" xlink:title=" ">
<polygon fill="white" stroke="black" points="353.5,-314.5 353.5,-404.5 543.5,-404.5 543.5,-314.5 353.5,-314.5"/>
<text text-anchor="start" x="361.5" y="-392.5" font-family="Helvetica,sans-Serif" font-size="10.00">NaughtyBikerGames.SDK.Adapters.</text>
<text text-anchor="middle" x="448.5" y="-381.5" font-family="Helvetica,sans-Serif" font-size="10.00">Interfaces.ISceneManager</text>
<polyline fill="none" stroke="black" points="353.5,-374.5 543.5,-374.5 "/>
<text text-anchor="start" x="361.5" y="-362.5" font-family="Helvetica,sans-Serif" font-size="10.00">+ sceneCountInBuildSettings</text>
<polyline fill="none" stroke="black" points="353.5,-355.5 543.5,-355.5 "/>
<text text-anchor="start" x="361.5" y="-343.5" font-family="Helvetica,sans-Serif" font-size="10.00">+ GetActiveScene()</text>
<text text-anchor="start" x="361.5" y="-332.5" font-family="Helvetica,sans-Serif" font-size="10.00">+ GetActiveSceneBuildIndex()</text>
<text text-anchor="start" x="361.5" y="-321.5" font-family="Helvetica,sans-Serif" font-size="10.00">+ LoadScene()</text>
</a>
</g>
</g>
<!-- Node5&#45;&gt;Node1 -->
<g id="edge4" class="edge">
<title>Node5&#45;&gt;Node1</title>
<path fill="none" stroke="#404040" d="M410.35,-314.39C388.73,-289.4 360.67,-256.95 333.6,-225.65"/>
<polygon fill="none" stroke="#404040" points="333.47,-225.5 326.52,-223.58 325.62,-216.42 332.57,-218.35 333.47,-225.5"/>
<text text-anchor="middle" x="402" y="-255" font-family="Helvetica,sans-Serif" font-size="10.00"> &#45;sceneManager</text>
</g>
</g>
</svg>
