<?xml version="1.0" encoding="UTF-8" standalone="no"?>
<!DOCTYPE svg PUBLIC "-//W3C//DTD SVG 1.1//EN"
 "http://www.w3.org/Graphics/SVG/1.1/DTD/svg11.dtd">
<!-- Generated by graphviz version 2.43.0 (0)
 -->
<!-- Title: NaughtyBiker.LevelManagement.LevelManager Pages: 1 -->
<svg width="187pt" height="364pt"
 viewBox="0.00 0.00 187.00 364.00" xmlns="http://www.w3.org/2000/svg" xmlns:xlink="http://www.w3.org/1999/xlink">
<g id="graph0" class="graph" transform="scale(1 1) rotate(0) translate(4 360)">
<title>NaughtyBiker.LevelManagement.LevelManager</title>
<polygon fill="white" stroke="transparent" points="-4,4 -4,-360 183,-360 183,4 -4,4"/>
<!-- Node1 -->
<g id="node1" class="node">
<title>Node1</title>
<g id="a_node1"><a xlink:title=" ">
<polygon fill="#bfbfbf" stroke="black" points="0,-0.5 0,-145.5 179,-145.5 179,-0.5 0,-0.5"/>
<text text-anchor="start" x="8" y="-133.5" font-family="Helvetica,sans-Serif" font-size="10.00">NaughtyBiker.LevelManagement.</text>
<text text-anchor="middle" x="89.5" y="-122.5" font-family="Helvetica,sans-Serif" font-size="10.00">LevelManager</text>
<polyline fill="none" stroke="black" points="0,-115.5 179,-115.5 "/>
<text text-anchor="start" x="8" y="-103.5" font-family="Helvetica,sans-Serif" font-size="10.00">+ LevelName</text>
<text text-anchor="start" x="8" y="-92.5" font-family="Helvetica,sans-Serif" font-size="10.00">&#45; levels</text>
<text text-anchor="start" x="8" y="-81.5" font-family="Helvetica,sans-Serif" font-size="10.00">&#45; displayName</text>
<text text-anchor="start" x="8" y="-70.5" font-family="Helvetica,sans-Serif" font-size="10.00">&#45; activeLevel</text>
<polyline fill="none" stroke="black" points="0,-63.5 179,-63.5 "/>
<text text-anchor="start" x="8" y="-51.5" font-family="Helvetica,sans-Serif" font-size="10.00">+ Initialize()</text>
<text text-anchor="start" x="8" y="-40.5" font-family="Helvetica,sans-Serif" font-size="10.00">+ LoadLevel()</text>
<text text-anchor="start" x="8" y="-29.5" font-family="Helvetica,sans-Serif" font-size="10.00">+ LoadNextLevel()</text>
<text text-anchor="start" x="8" y="-18.5" font-family="Helvetica,sans-Serif" font-size="10.00">+ ReloadLevel()</text>
<text text-anchor="start" x="8" y="-7.5" font-family="Helvetica,sans-Serif" font-size="10.00">&#45; LevelManager()</text>
</a>
</g>
</g>
<!-- Node2 -->
<g id="node2" class="node">
<title>Node2</title>
<g id="a_node2"><a xlink:href="../../df/d4c/interface_naughty_biker_1_1_level_management_1_1_interfaces_1_1_i_level_manager.html" target="_top" xlink:title=" ">
<polygon fill="white" stroke="black" points="35.5,-182.5 35.5,-261.5 143.5,-261.5 143.5,-182.5 35.5,-182.5"/>
<text text-anchor="middle" x="89.5" y="-249.5" font-family="Helvetica,sans-Serif" font-size="10.00">ILevelManager</text>
<polyline fill="none" stroke="black" points="35.5,-242.5 143.5,-242.5 "/>
<text text-anchor="start" x="43.5" y="-230.5" font-family="Helvetica,sans-Serif" font-size="10.00">+ LevelName</text>
<polyline fill="none" stroke="black" points="35.5,-223.5 143.5,-223.5 "/>
<text text-anchor="start" x="43.5" y="-211.5" font-family="Helvetica,sans-Serif" font-size="10.00">+ LoadLevel()</text>
<text text-anchor="start" x="43.5" y="-200.5" font-family="Helvetica,sans-Serif" font-size="10.00">+ LoadNextLevel()</text>
<text text-anchor="start" x="43.5" y="-189.5" font-family="Helvetica,sans-Serif" font-size="10.00">+ ReloadLevel()</text>
</a>
</g>
</g>
<!-- Node2&#45;&gt;Node1 -->
<g id="edge1" class="edge">
<title>Node2&#45;&gt;Node1</title>
<path fill="none" stroke="midnightblue" d="M89.5,-172.24C89.5,-163.7 89.5,-154.65 89.5,-145.64"/>
<polygon fill="none" stroke="midnightblue" points="86,-172.38 89.5,-182.38 93,-172.38 86,-172.38"/>
</g>
<!-- Node3 -->
<g id="node3" class="node">
<title>Node3</title>
<g id="a_node3"><a xlink:title=" ">
<polygon fill="white" stroke="#bfbfbf" points="51,-298.5 51,-355.5 128,-355.5 128,-298.5 51,-298.5"/>
<text text-anchor="middle" x="89.5" y="-343.5" font-family="Helvetica,sans-Serif" font-size="10.00">IInitializable</text>
<polyline fill="none" stroke="#bfbfbf" points="51,-336.5 128,-336.5 "/>
<text text-anchor="middle" x="89.5" y="-324.5" font-family="Helvetica,sans-Serif" font-size="10.00"> </text>
<polyline fill="none" stroke="#bfbfbf" points="51,-317.5 128,-317.5 "/>
<text text-anchor="middle" x="89.5" y="-305.5" font-family="Helvetica,sans-Serif" font-size="10.00"> </text>
</a>
</g>
</g>
<!-- Node3&#45;&gt;Node2 -->
<g id="edge2" class="edge">
<title>Node3&#45;&gt;Node2</title>
<path fill="none" stroke="midnightblue" d="M89.5,-288.16C89.5,-279.47 89.5,-270.23 89.5,-261.52"/>
<polygon fill="none" stroke="midnightblue" points="86,-288.4 89.5,-298.4 93,-288.4 86,-288.4"/>
</g>
</g>
</svg>
