<?xml version="1.0" encoding="UTF-8" standalone="no"?>
<!DOCTYPE svg PUBLIC "-//W3C//DTD SVG 1.1//EN"
 "http://www.w3.org/Graphics/SVG/1.1/DTD/svg11.dtd">
<!-- Generated by graphviz version 2.43.0 (0)
 -->
<!-- Title: NaughtyBiker.LevelManagement.LevelManager Pages: 1 -->
<svg width="544pt" height="541pt"
 viewBox="0.00 0.00 543.50 541.00" xmlns="http://www.w3.org/2000/svg" xmlns:xlink="http://www.w3.org/1999/xlink">
<g id="graph0" class="graph" transform="scale(1 1) rotate(0) translate(4 537)">
<title>NaughtyBiker.LevelManagement.LevelManager</title>
<polygon fill="white" stroke="transparent" points="-4,4 -4,-537 539.5,-537 539.5,4 -4,4"/>
<!-- Node1 -->
<g id="node1" class="node">
<title>Node1</title>
<g id="a_node1"><a xlink:title=" ">
<polygon fill="#bfbfbf" stroke="black" points="149,-0.5 149,-233.5 328,-233.5 328,-0.5 149,-0.5"/>
<text text-anchor="start" x="157" y="-221.5" font-family="Helvetica,sans-Serif" font-size="10.00">NaughtyBiker.LevelManagement.</text>
<text text-anchor="middle" x="238.5" y="-210.5" font-family="Helvetica,sans-Serif" font-size="10.00">LevelManager</text>
<polyline fill="none" stroke="black" points="149,-203.5 328,-203.5 "/>
<text text-anchor="start" x="157" y="-191.5" font-family="Helvetica,sans-Serif" font-size="10.00">+ ActiveLevelLabel</text>
<text text-anchor="start" x="157" y="-180.5" font-family="Helvetica,sans-Serif" font-size="10.00">+ ActiveLevel</text>
<text text-anchor="start" x="157" y="-169.5" font-family="Helvetica,sans-Serif" font-size="10.00">+ FirstLevel</text>
<text text-anchor="start" x="157" y="-158.5" font-family="Helvetica,sans-Serif" font-size="10.00">&#45; levels</text>
<text text-anchor="start" x="157" y="-147.5" font-family="Helvetica,sans-Serif" font-size="10.00">&#45; labels</text>
<text text-anchor="start" x="157" y="-136.5" font-family="Helvetica,sans-Serif" font-size="10.00">&#45; activeLevel</text>
<text text-anchor="start" x="157" y="-125.5" font-family="Helvetica,sans-Serif" font-size="10.00">&#45; firstLevel</text>
<polyline fill="none" stroke="black" points="149,-118.5 328,-118.5 "/>
<text text-anchor="start" x="157" y="-106.5" font-family="Helvetica,sans-Serif" font-size="10.00">+ Initialize()</text>
<text text-anchor="start" x="157" y="-95.5" font-family="Helvetica,sans-Serif" font-size="10.00">+ GetLevel()</text>
<text text-anchor="start" x="157" y="-84.5" font-family="Helvetica,sans-Serif" font-size="10.00">+ GetLevelLabel()</text>
<text text-anchor="start" x="157" y="-73.5" font-family="Helvetica,sans-Serif" font-size="10.00">+ GetLevelLabel()</text>
<text text-anchor="start" x="157" y="-62.5" font-family="Helvetica,sans-Serif" font-size="10.00">+ LoadLevel()</text>
<text text-anchor="start" x="157" y="-51.5" font-family="Helvetica,sans-Serif" font-size="10.00">+ LoadNextLevel()</text>
<text text-anchor="start" x="157" y="-40.5" font-family="Helvetica,sans-Serif" font-size="10.00">+ LoadPreviousLevel()</text>
<text text-anchor="start" x="157" y="-29.5" font-family="Helvetica,sans-Serif" font-size="10.00">+ LoadFirstLevel()</text>
<text text-anchor="start" x="157" y="-18.5" font-family="Helvetica,sans-Serif" font-size="10.00">+ ReloadLevel()</text>
<text text-anchor="start" x="157" y="-7.5" font-family="Helvetica,sans-Serif" font-size="10.00">&#45; LevelManager()</text>
</a>
</g>
</g>
<!-- Node2 -->
<g id="node2" class="node">
<title>Node2</title>
<g id="a_node2"><a xlink:href="../../df/d4c/interface_naughty_biker_1_1_level_management_1_1_interfaces_1_1_i_level_manager.html" target="_top" xlink:title=" ">
<polygon fill="white" stroke="black" points="0,-281.5 0,-437.5 127,-437.5 127,-281.5 0,-281.5"/>
<text text-anchor="middle" x="63.5" y="-425.5" font-family="Helvetica,sans-Serif" font-size="10.00">ILevelManager</text>
<polyline fill="none" stroke="black" points="0,-418.5 127,-418.5 "/>
<text text-anchor="start" x="8" y="-406.5" font-family="Helvetica,sans-Serif" font-size="10.00">+ ActiveLevelLabel</text>
<text text-anchor="start" x="8" y="-395.5" font-family="Helvetica,sans-Serif" font-size="10.00">+ ActiveLevel</text>
<text text-anchor="start" x="8" y="-384.5" font-family="Helvetica,sans-Serif" font-size="10.00">+ FirstLevel</text>
<polyline fill="none" stroke="black" points="0,-377.5 127,-377.5 "/>
<text text-anchor="start" x="8" y="-365.5" font-family="Helvetica,sans-Serif" font-size="10.00">+ GetLevel()</text>
<text text-anchor="start" x="8" y="-354.5" font-family="Helvetica,sans-Serif" font-size="10.00">+ GetLevelLabel()</text>
<text text-anchor="start" x="8" y="-343.5" font-family="Helvetica,sans-Serif" font-size="10.00">+ GetLevelLabel()</text>
<text text-anchor="start" x="8" y="-332.5" font-family="Helvetica,sans-Serif" font-size="10.00">+ LoadLevel()</text>
<text text-anchor="start" x="8" y="-321.5" font-family="Helvetica,sans-Serif" font-size="10.00">+ LoadNextLevel()</text>
<text text-anchor="start" x="8" y="-310.5" font-family="Helvetica,sans-Serif" font-size="10.00">+ LoadPreviousLevel()</text>
<text text-anchor="start" x="8" y="-299.5" font-family="Helvetica,sans-Serif" font-size="10.00">+ LoadFirstLevel()</text>
<text text-anchor="start" x="8" y="-288.5" font-family="Helvetica,sans-Serif" font-size="10.00">+ ReloadLevel()</text>
</a>
</g>
</g>
<!-- Node2&#45;&gt;Node1 -->
<g id="edge1" class="edge">
<title>Node2&#45;&gt;Node1</title>
<path fill="none" stroke="midnightblue" d="M125.65,-273.09C134.95,-260.3 144.68,-246.93 154.36,-233.64"/>
<polygon fill="none" stroke="midnightblue" points="122.65,-271.27 119.59,-281.41 128.31,-275.39 122.65,-271.27"/>
</g>
<!-- Node3 -->
<g id="node3" class="node">
<title>Node3</title>
<g id="a_node3"><a xlink:title=" ">
<polygon fill="white" stroke="#bfbfbf" points="25,-475.5 25,-532.5 102,-532.5 102,-475.5 25,-475.5"/>
<text text-anchor="middle" x="63.5" y="-520.5" font-family="Helvetica,sans-Serif" font-size="10.00">IInitializable</text>
<polyline fill="none" stroke="#bfbfbf" points="25,-513.5 102,-513.5 "/>
<text text-anchor="middle" x="63.5" y="-501.5" font-family="Helvetica,sans-Serif" font-size="10.00"> </text>
<polyline fill="none" stroke="#bfbfbf" points="25,-494.5 102,-494.5 "/>
<text text-anchor="middle" x="63.5" y="-482.5" font-family="Helvetica,sans-Serif" font-size="10.00"> </text>
</a>
</g>
</g>
<!-- Node3&#45;&gt;Node2 -->
<g id="edge2" class="edge">
<title>Node3&#45;&gt;Node2</title>
<path fill="none" stroke="midnightblue" d="M63.5,-464.91C63.5,-456.42 63.5,-447.12 63.5,-437.69"/>
<polygon fill="none" stroke="midnightblue" points="60,-465.19 63.5,-475.19 67,-465.19 60,-465.19"/>
</g>
<!-- Node4 -->
<g id="node4" class="node">
<title>Node4</title>
<g id="a_node4"><a xlink:href="../../dc/d1c/interface_naughty_biker_1_1_wrappers_1_1_interfaces_1_1_i_scene_utility.html" target="_top" xlink:title=" ">
<polygon fill="white" stroke="black" points="145.5,-325.5 145.5,-393.5 331.5,-393.5 331.5,-325.5 145.5,-325.5"/>
<text text-anchor="start" x="153.5" y="-381.5" font-family="Helvetica,sans-Serif" font-size="10.00">NaughtyBiker.Wrappers.Interfaces.</text>
<text text-anchor="middle" x="238.5" y="-370.5" font-family="Helvetica,sans-Serif" font-size="10.00">ISceneUtility</text>
<polyline fill="none" stroke="black" points="145.5,-363.5 331.5,-363.5 "/>
<text text-anchor="middle" x="238.5" y="-351.5" font-family="Helvetica,sans-Serif" font-size="10.00"> </text>
<polyline fill="none" stroke="black" points="145.5,-344.5 331.5,-344.5 "/>
<text text-anchor="start" x="153.5" y="-332.5" font-family="Helvetica,sans-Serif" font-size="10.00">+ GetScenePathByBuildIndex()</text>
</a>
</g>
</g>
<!-- Node4&#45;&gt;Node1 -->
<g id="edge3" class="edge">
<title>Node4&#45;&gt;Node1</title>
<path fill="none" stroke="#404040" d="M238.5,-325.31C238.5,-304.19 238.5,-275.34 238.5,-245.88"/>
<polygon fill="none" stroke="#404040" points="238.5,-245.69 234.5,-239.69 238.5,-233.69 242.5,-239.69 238.5,-245.69"/>
<text text-anchor="middle" x="271.5" y="-255" font-family="Helvetica,sans-Serif" font-size="10.00"> &#45;sceneUtility</text>
</g>
<!-- Node5 -->
<g id="node5" class="node">
<title>Node5</title>
<g id="a_node5"><a xlink:href="../../d4/d1d/interface_naughty_biker_1_1_wrappers_1_1_interfaces_1_1_i_scene_manager.html" target="_top" xlink:title=" ">
<polygon fill="white" stroke="black" points="349.5,-314.5 349.5,-404.5 535.5,-404.5 535.5,-314.5 349.5,-314.5"/>
<text text-anchor="start" x="357.5" y="-392.5" font-family="Helvetica,sans-Serif" font-size="10.00">NaughtyBiker.Wrappers.Interfaces.</text>
<text text-anchor="middle" x="442.5" y="-381.5" font-family="Helvetica,sans-Serif" font-size="10.00">ISceneManager</text>
<polyline fill="none" stroke="black" points="349.5,-374.5 535.5,-374.5 "/>
<text text-anchor="start" x="357.5" y="-362.5" font-family="Helvetica,sans-Serif" font-size="10.00">+ sceneCountInBuildSettings</text>
<polyline fill="none" stroke="black" points="349.5,-355.5 535.5,-355.5 "/>
<text text-anchor="start" x="357.5" y="-343.5" font-family="Helvetica,sans-Serif" font-size="10.00">+ GetActiveScene()</text>
<text text-anchor="start" x="357.5" y="-332.5" font-family="Helvetica,sans-Serif" font-size="10.00">+ GetActiveSceneBuildIndex()</text>
<text text-anchor="start" x="357.5" y="-321.5" font-family="Helvetica,sans-Serif" font-size="10.00">+ LoadScene()</text>
</a>
</g>
</g>
<!-- Node5&#45;&gt;Node1 -->
<g id="edge4" class="edge">
<title>Node5&#45;&gt;Node1</title>
<path fill="none" stroke="#404040" d="M405.08,-314.39C385.52,-291.32 360.57,-261.91 335.97,-232.91"/>
<polygon fill="none" stroke="#404040" points="335.77,-232.67 328.83,-230.68 328,-223.52 334.93,-225.51 335.77,-232.67"/>
<text text-anchor="middle" x="398" y="-255" font-family="Helvetica,sans-Serif" font-size="10.00"> &#45;sceneManager</text>
</g>
</g>
</svg>
