<?xml version="1.0" encoding="UTF-8" standalone="no"?>
<!DOCTYPE svg PUBLIC "-//W3C//DTD SVG 1.1//EN"
 "http://www.w3.org/Graphics/SVG/1.1/DTD/svg11.dtd">
<!-- Generated by graphviz version 2.43.0 (0)
 -->
<!-- Title: NaughtyBikerGames.SDK.InfoObjects.Installers.InfoObjectBaseInstaller.InstallBindings Pages: 1 -->
<svg width="414pt" height="50pt"
 viewBox="0.00 0.00 414.00 50.00" xmlns="http://www.w3.org/2000/svg" xmlns:xlink="http://www.w3.org/1999/xlink">
<g id="graph0" class="graph" transform="scale(1 1) rotate(0) translate(4 46)">
<title>NaughtyBikerGames.SDK.InfoObjects.Installers.InfoObjectBaseInstaller.InstallBindings</title>
<polygon fill="white" stroke="transparent" points="-4,4 -4,-46 410,-46 410,4 -4,4"/>
<!-- Node1 -->
<g id="node1" class="node">
<title>Node1</title>
<g id="a_node1"><a xlink:title=" ">
<polygon fill="#bfbfbf" stroke="black" points="0,-0.5 0,-41.5 179,-41.5 179,-0.5 0,-0.5"/>
<text text-anchor="start" x="8" y="-29.5" font-family="Helvetica,sans-Serif" font-size="10.00">NaughtyBikerGames.SDK.Info</text>
<text text-anchor="start" x="8" y="-18.5" font-family="Helvetica,sans-Serif" font-size="10.00">Objects.Installers.InfoObjectBase</text>
<text text-anchor="middle" x="89.5" y="-7.5" font-family="Helvetica,sans-Serif" font-size="10.00">Installer.InstallBindings</text>
</a>
</g>
</g>
<!-- Node2 -->
<g id="node2" class="node">
<title>Node2</title>
<g id="a_node2"><a xlink:href="../../d8/dc0/namespace_naughty_biker_games_1_1_s_d_k_1_1_info_objects_1_1_delegates.html#ad6f6451f258a794d0423b5ac38c16239" target="_top" xlink:title=" ">
<polygon fill="white" stroke="black" points="215,-6 215,-36 406,-36 406,-6 215,-6"/>
<text text-anchor="start" x="223" y="-24" font-family="Helvetica,sans-Serif" font-size="10.00">NaughtyBikerGames.SDK.Info</text>
<text text-anchor="middle" x="310.5" y="-13" font-family="Helvetica,sans-Serif" font-size="10.00">Objects.Delegates.CreateInfoObject</text>
</a>
</g>
</g>
<!-- Node1&#45;&gt;Node2 -->
<g id="edge1" class="edge">
<title>Node1&#45;&gt;Node2</title>
<path fill="none" stroke="midnightblue" d="M179.26,-21C187.7,-21 196.3,-21 204.87,-21"/>
<polygon fill="midnightblue" stroke="midnightblue" points="204.9,-24.5 214.9,-21 204.9,-17.5 204.9,-24.5"/>
</g>
</g>
</svg>
