<?xml version="1.0" encoding="UTF-8" standalone="no"?>
<!DOCTYPE svg PUBLIC "-//W3C//DTD SVG 1.1//EN"
 "http://www.w3.org/Graphics/SVG/1.1/DTD/svg11.dtd">
<!-- Generated by graphviz version 2.43.0 (0)
 -->
<!-- Title: NaughtyBiker.Wrappers.Interfaces.ISceneUtility Pages: 1 -->
<svg width="194pt" height="182pt"
 viewBox="0.00 0.00 194.00 182.00" xmlns="http://www.w3.org/2000/svg" xmlns:xlink="http://www.w3.org/1999/xlink">
<g id="graph0" class="graph" transform="scale(1 1) rotate(0) translate(4 178)">
<title>NaughtyBiker.Wrappers.Interfaces.ISceneUtility</title>
<polygon fill="white" stroke="transparent" points="-4,4 -4,-178 190,-178 190,4 -4,4"/>
<!-- Node1 -->
<g id="node1" class="node">
<title>Node1</title>
<g id="a_node1"><a xlink:title=" ">
<polygon fill="#bfbfbf" stroke="black" points="0,-105.5 0,-173.5 186,-173.5 186,-105.5 0,-105.5"/>
<text text-anchor="start" x="8" y="-161.5" font-family="Helvetica,sans-Serif" font-size="10.00">NaughtyBiker.Wrappers.Interfaces.</text>
<text text-anchor="middle" x="93" y="-150.5" font-family="Helvetica,sans-Serif" font-size="10.00">ISceneUtility</text>
<polyline fill="none" stroke="black" points="0,-143.5 186,-143.5 "/>
<text text-anchor="middle" x="93" y="-131.5" font-family="Helvetica,sans-Serif" font-size="10.00"> </text>
<polyline fill="none" stroke="black" points="0,-124.5 186,-124.5 "/>
<text text-anchor="start" x="8" y="-112.5" font-family="Helvetica,sans-Serif" font-size="10.00">+ GetScenePathByBuildIndex()</text>
</a>
</g>
</g>
<!-- Node2 -->
<g id="node2" class="node">
<title>Node2</title>
<g id="a_node2"><a xlink:href="../../dd/d50/class_naughty_biker_1_1_wrappers_1_1_scene_utility_wrapper.html" target="_top" xlink:title=" ">
<polygon fill="white" stroke="black" points="9.5,-0.5 9.5,-68.5 176.5,-68.5 176.5,-0.5 9.5,-0.5"/>
<text text-anchor="start" x="17.5" y="-56.5" font-family="Helvetica,sans-Serif" font-size="10.00">NaughtyBiker.Wrappers.Scene</text>
<text text-anchor="middle" x="93" y="-45.5" font-family="Helvetica,sans-Serif" font-size="10.00">UtilityWrapper</text>
<polyline fill="none" stroke="black" points="9.5,-38.5 176.5,-38.5 "/>
<text text-anchor="middle" x="93" y="-26.5" font-family="Helvetica,sans-Serif" font-size="10.00"> </text>
<polyline fill="none" stroke="black" points="9.5,-19.5 176.5,-19.5 "/>
<text text-anchor="start" x="17.5" y="-7.5" font-family="Helvetica,sans-Serif" font-size="10.00">+ GetScenePathByBuildIndex()</text>
</a>
</g>
</g>
<!-- Node1&#45;&gt;Node2 -->
<g id="edge1" class="edge">
<title>Node1&#45;&gt;Node2</title>
<path fill="none" stroke="midnightblue" d="M93,-95.14C93,-86.26 93,-77.04 93,-68.59"/>
<polygon fill="none" stroke="midnightblue" points="89.5,-95.34 93,-105.34 96.5,-95.34 89.5,-95.34"/>
</g>
</g>
</svg>
