<?xml version="1.0" encoding="UTF-8" standalone="no"?>
<!DOCTYPE svg PUBLIC "-//W3C//DTD SVG 1.1//EN"
 "http://www.w3.org/Graphics/SVG/1.1/DTD/svg11.dtd">
<!-- Generated by graphviz version 2.43.0 (0)
 -->
<!-- Title: NaughtyBikerGames.SDK.Adapters.Interfaces.ISceneManager Pages: 1 -->
<svg width="198pt" height="226pt"
 viewBox="0.00 0.00 198.00 226.00" xmlns="http://www.w3.org/2000/svg" xmlns:xlink="http://www.w3.org/1999/xlink">
<g id="graph0" class="graph" transform="scale(1 1) rotate(0) translate(4 222)">
<title>NaughtyBikerGames.SDK.Adapters.Interfaces.ISceneManager</title>
<polygon fill="white" stroke="transparent" points="-4,4 -4,-222 194,-222 194,4 -4,4"/>
<!-- Node1 -->
<g id="node1" class="node">
<title>Node1</title>
<g id="a_node1"><a xlink:title=" ">
<polygon fill="#bfbfbf" stroke="black" points="0,-127.5 0,-217.5 190,-217.5 190,-127.5 0,-127.5"/>
<text text-anchor="start" x="8" y="-205.5" font-family="Helvetica,sans-Serif" font-size="10.00">NaughtyBikerGames.SDK.Adapters.</text>
<text text-anchor="middle" x="95" y="-194.5" font-family="Helvetica,sans-Serif" font-size="10.00">Interfaces.ISceneManager</text>
<polyline fill="none" stroke="black" points="0,-187.5 190,-187.5 "/>
<text text-anchor="start" x="8" y="-175.5" font-family="Helvetica,sans-Serif" font-size="10.00">+ sceneCountInBuildSettings</text>
<polyline fill="none" stroke="black" points="0,-168.5 190,-168.5 "/>
<text text-anchor="start" x="8" y="-156.5" font-family="Helvetica,sans-Serif" font-size="10.00">+ GetActiveScene()</text>
<text text-anchor="start" x="8" y="-145.5" font-family="Helvetica,sans-Serif" font-size="10.00">+ GetActiveSceneBuildIndex()</text>
<text text-anchor="start" x="8" y="-134.5" font-family="Helvetica,sans-Serif" font-size="10.00">+ LoadScene()</text>
</a>
</g>
</g>
<!-- Node2 -->
<g id="node2" class="node">
<title>Node2</title>
<g id="a_node2"><a xlink:href="../../d6/dc4/class_naughty_biker_games_1_1_s_d_k_1_1_adapters_1_1_scene_manager_adapter.html" target="_top" xlink:title=" ">
<polygon fill="white" stroke="black" points="0,-0.5 0,-90.5 190,-90.5 190,-0.5 0,-0.5"/>
<text text-anchor="start" x="8" y="-78.5" font-family="Helvetica,sans-Serif" font-size="10.00">NaughtyBikerGames.SDK.Adapters.</text>
<text text-anchor="middle" x="95" y="-67.5" font-family="Helvetica,sans-Serif" font-size="10.00">SceneManagerAdapter</text>
<polyline fill="none" stroke="black" points="0,-60.5 190,-60.5 "/>
<text text-anchor="start" x="8" y="-48.5" font-family="Helvetica,sans-Serif" font-size="10.00">+ sceneCountInBuildSettings</text>
<polyline fill="none" stroke="black" points="0,-41.5 190,-41.5 "/>
<text text-anchor="start" x="8" y="-29.5" font-family="Helvetica,sans-Serif" font-size="10.00">+ GetActiveScene()</text>
<text text-anchor="start" x="8" y="-18.5" font-family="Helvetica,sans-Serif" font-size="10.00">+ GetActiveSceneBuildIndex()</text>
<text text-anchor="start" x="8" y="-7.5" font-family="Helvetica,sans-Serif" font-size="10.00">+ LoadScene()</text>
</a>
</g>
</g>
<!-- Node1&#45;&gt;Node2 -->
<g id="edge1" class="edge">
<title>Node1&#45;&gt;Node2</title>
<path fill="none" stroke="midnightblue" d="M95,-117.16C95,-108.28 95,-99.18 95,-90.59"/>
<polygon fill="none" stroke="midnightblue" points="91.5,-117.43 95,-127.43 98.5,-117.43 91.5,-117.43"/>
</g>
</g>
</svg>
