<?xml version="1.0" encoding="UTF-8" standalone="no"?>
<!DOCTYPE svg PUBLIC "-//W3C//DTD SVG 1.1//EN"
 "http://www.w3.org/Graphics/SVG/1.1/DTD/svg11.dtd">
<!-- Generated by graphviz version 2.43.0 (0)
 -->
<!-- Title: NaughtyBikerGames.SDK.InfoObjects.Installers.InfoObjectBaseInstaller Pages: 1 -->
<svg width="187pt" height="226pt"
 viewBox="0.00 0.00 187.00 226.00" xmlns="http://www.w3.org/2000/svg" xmlns:xlink="http://www.w3.org/1999/xlink">
<g id="graph0" class="graph" transform="scale(1 1) rotate(0) translate(4 222)">
<title>NaughtyBikerGames.SDK.InfoObjects.Installers.InfoObjectBaseInstaller</title>
<polygon fill="white" stroke="transparent" points="-4,4 -4,-222 183,-222 183,4 -4,4"/>
<!-- Node1 -->
<g id="node1" class="node">
<title>Node1</title>
<g id="a_node1"><a xlink:title=" ">
<polygon fill="#bfbfbf" stroke="black" points="0,-0.5 0,-112.5 179,-112.5 179,-0.5 0,-0.5"/>
<text text-anchor="start" x="8" y="-100.5" font-family="Helvetica,sans-Serif" font-size="10.00">NaughtyBikerGames.SDK.Info</text>
<text text-anchor="start" x="8" y="-89.5" font-family="Helvetica,sans-Serif" font-size="10.00">Objects.Installers.InfoObjectBase</text>
<text text-anchor="middle" x="89.5" y="-78.5" font-family="Helvetica,sans-Serif" font-size="10.00">Installer</text>
<polyline fill="none" stroke="black" points="0,-71.5 179,-71.5 "/>
<text text-anchor="middle" x="89.5" y="-59.5" font-family="Helvetica,sans-Serif" font-size="10.00"> </text>
<polyline fill="none" stroke="black" points="0,-52.5 179,-52.5 "/>
<text text-anchor="start" x="8" y="-40.5" font-family="Helvetica,sans-Serif" font-size="10.00">+ InstallBindings()</text>
<text text-anchor="start" x="8" y="-29.5" font-family="Helvetica,sans-Serif" font-size="10.00">&#45; CreateCallbackForInfoObject()</text>
<text text-anchor="start" x="8" y="-18.5" font-family="Helvetica,sans-Serif" font-size="10.00">&#45; OnCreateInfoObject()</text>
<text text-anchor="start" x="8" y="-7.5" font-family="Helvetica,sans-Serif" font-size="10.00">&#45; CreateInfo()</text>
</a>
</g>
</g>
<!-- Node2 -->
<g id="node2" class="node">
<title>Node2</title>
<g id="a_node2"><a xlink:title=" ">
<polygon fill="white" stroke="#bfbfbf" points="18.5,-149.5 18.5,-217.5 160.5,-217.5 160.5,-149.5 18.5,-149.5"/>
<text text-anchor="start" x="26.5" y="-205.5" font-family="Helvetica,sans-Serif" font-size="10.00">Installer&lt; InfoObjectBase</text>
<text text-anchor="middle" x="89.5" y="-194.5" font-family="Helvetica,sans-Serif" font-size="10.00">Installer &gt;</text>
<polyline fill="none" stroke="#bfbfbf" points="18.5,-187.5 160.5,-187.5 "/>
<text text-anchor="middle" x="89.5" y="-175.5" font-family="Helvetica,sans-Serif" font-size="10.00"> </text>
<polyline fill="none" stroke="#bfbfbf" points="18.5,-168.5 160.5,-168.5 "/>
<text text-anchor="middle" x="89.5" y="-156.5" font-family="Helvetica,sans-Serif" font-size="10.00"> </text>
</a>
</g>
</g>
<!-- Node2&#45;&gt;Node1 -->
<g id="edge1" class="edge">
<title>Node2&#45;&gt;Node1</title>
<path fill="none" stroke="midnightblue" d="M89.5,-139.18C89.5,-130.6 89.5,-121.49 89.5,-112.59"/>
<polygon fill="none" stroke="midnightblue" points="86,-139.33 89.5,-149.33 93,-139.33 86,-139.33"/>
</g>
</g>
</svg>
