<?xml version="1.0" encoding="UTF-8" standalone="no"?>
<!DOCTYPE svg PUBLIC "-//W3C//DTD SVG 1.1//EN"
 "http://www.w3.org/Graphics/SVG/1.1/DTD/svg11.dtd">
<!-- Generated by graphviz version 2.43.0 (0)
 -->
<!-- Title: Graphical Class Hierarchy Pages: 1 -->
<svg width="306pt" height="137pt"
 viewBox="0.00 0.00 306.00 137.00" xmlns="http://www.w3.org/2000/svg" xmlns:xlink="http://www.w3.org/1999/xlink">
<g id="graph0" class="graph" transform="scale(1 1) rotate(0) translate(4 133)">
<title>Graphical Class Hierarchy</title>
<polygon fill="white" stroke="transparent" points="-4,4 -4,-133 302,-133 302,4 -4,4"/>
<!-- Node2 -->
<g id="node1" class="node">
<title>Node2</title>
<g id="a_node1"><a xlink:title=" ">
<polygon fill="white" stroke="#bfbfbf" points="0,-55 0,-74 83,-74 83,-55 0,-55"/>
<text text-anchor="middle" x="41.5" y="-62" font-family="Helvetica,sans-Serif" font-size="10.00">MonoInstaller</text>
</a>
</g>
</g>
<!-- Node0 -->
<g id="node2" class="node">
<title>Node0</title>
<g id="a_node2"><a xlink:href="d6/de0/class_naughty_biker_1_1_info_objects_1_1_info_object_installer.html" target="_top" xlink:title=" ">
<polygon fill="white" stroke="black" points="137,-98.5 137,-128.5 280,-128.5 280,-98.5 137,-98.5"/>
<text text-anchor="start" x="145" y="-116.5" font-family="Helvetica,sans-Serif" font-size="10.00">NaughtyBiker.InfoObjects.</text>
<text text-anchor="middle" x="208.5" y="-105.5" font-family="Helvetica,sans-Serif" font-size="10.00">InfoObjectInstaller</text>
</a>
</g>
</g>
<!-- Node2&#45;&gt;Node0 -->
<g id="edge1" class="edge">
<title>Node2&#45;&gt;Node0</title>
<path fill="none" stroke="midnightblue" d="M80.25,-77.26C92.56,-81.31 106.32,-85.71 119,-89.5 129.07,-92.51 139.83,-95.56 150.25,-98.43"/>
<polygon fill="midnightblue" stroke="midnightblue" points="81.32,-73.93 70.73,-74.11 79.12,-80.57 81.32,-73.93"/>
</g>
<!-- Node4 -->
<g id="node3" class="node">
<title>Node4</title>
<g id="a_node3"><a xlink:href="d6/d66/class_naughty_biker_1_1_level_management_1_1_level_manager_installer.html" target="_top" xlink:title=" ">
<polygon fill="white" stroke="black" points="119,-49.5 119,-79.5 298,-79.5 298,-49.5 119,-49.5"/>
<text text-anchor="start" x="127" y="-67.5" font-family="Helvetica,sans-Serif" font-size="10.00">NaughtyBiker.LevelManagement.</text>
<text text-anchor="middle" x="208.5" y="-56.5" font-family="Helvetica,sans-Serif" font-size="10.00">LevelManagerInstaller</text>
</a>
</g>
</g>
<!-- Node2&#45;&gt;Node4 -->
<g id="edge2" class="edge">
<title>Node2&#45;&gt;Node4</title>
<path fill="none" stroke="midnightblue" d="M93.29,-64.5C101.42,-64.5 110.03,-64.5 118.74,-64.5"/>
<polygon fill="midnightblue" stroke="midnightblue" points="93.29,-61 83.29,-64.5 93.29,-68 93.29,-61"/>
</g>
<!-- Node5 -->
<g id="node4" class="node">
<title>Node5</title>
<g id="a_node4"><a xlink:href="dd/dab/class_naughty_biker_1_1_signals_1_1_signals_installer.html" target="_top" xlink:title=" ">
<polygon fill="white" stroke="black" points="129.5,-0.5 129.5,-30.5 287.5,-30.5 287.5,-0.5 129.5,-0.5"/>
<text text-anchor="start" x="137.5" y="-18.5" font-family="Helvetica,sans-Serif" font-size="10.00">NaughtyBiker.Signals.Signals</text>
<text text-anchor="middle" x="208.5" y="-7.5" font-family="Helvetica,sans-Serif" font-size="10.00">Installer</text>
</a>
</g>
</g>
<!-- Node2&#45;&gt;Node5 -->
<g id="edge3" class="edge">
<title>Node2&#45;&gt;Node5</title>
<path fill="none" stroke="midnightblue" d="M81.89,-51.9C93.79,-48.16 106.91,-44.1 119,-40.5 130.02,-37.22 141.84,-33.8 153.14,-30.59"/>
<polygon fill="midnightblue" stroke="midnightblue" points="80.71,-48.61 72.23,-54.96 82.82,-55.28 80.71,-48.61"/>
</g>
</g>
</svg>
