<?xml version="1.0" encoding="UTF-8" standalone="no"?>
<!DOCTYPE svg PUBLIC "-//W3C//DTD SVG 1.1//EN"
 "http://www.w3.org/Graphics/SVG/1.1/DTD/svg11.dtd">
<!-- Generated by graphviz version 2.43.0 (0)
 -->
<!-- Title: Graphical Class Hierarchy Pages: 1 -->
<svg width="394pt" height="39pt"
 viewBox="0.00 0.00 394.00 39.00" xmlns="http://www.w3.org/2000/svg" xmlns:xlink="http://www.w3.org/1999/xlink">
<g id="graph0" class="graph" transform="scale(1 1) rotate(0) translate(4 35)">
<title>Graphical Class Hierarchy</title>
<polygon fill="white" stroke="transparent" points="-4,4 -4,-35 390,-35 390,4 -4,4"/>
<!-- Node0 -->
<g id="node1" class="node">
<title>Node0</title>
<g id="a_node1"><a xlink:href="dc/d1c/interface_naughty_biker_1_1_wrappers_1_1_interfaces_1_1_i_scene_utility.html" target="_top" xlink:title=" ">
<polygon fill="white" stroke="black" points="0,-0.5 0,-30.5 186,-30.5 186,-0.5 0,-0.5"/>
<text text-anchor="start" x="8" y="-18.5" font-family="Helvetica,sans-Serif" font-size="10.00">NaughtyBiker.Wrappers.Interfaces.</text>
<text text-anchor="middle" x="93" y="-7.5" font-family="Helvetica,sans-Serif" font-size="10.00">ISceneUtility</text>
</a>
</g>
</g>
<!-- Node1 -->
<g id="node2" class="node">
<title>Node1</title>
<g id="a_node2"><a xlink:href="dd/d50/class_naughty_biker_1_1_wrappers_1_1_scene_utility_wrapper.html" target="_top" xlink:title=" ">
<polygon fill="white" stroke="black" points="222,-0.5 222,-30.5 386,-30.5 386,-0.5 222,-0.5"/>
<text text-anchor="start" x="230" y="-18.5" font-family="Helvetica,sans-Serif" font-size="10.00">NaughtyBiker.Wrappers.Scene</text>
<text text-anchor="middle" x="304" y="-7.5" font-family="Helvetica,sans-Serif" font-size="10.00">UtilityWrapper</text>
</a>
</g>
</g>
<!-- Node0&#45;&gt;Node1 -->
<g id="edge1" class="edge">
<title>Node0&#45;&gt;Node1</title>
<path fill="none" stroke="midnightblue" d="M196.28,-15.5C204.82,-15.5 213.38,-15.5 221.73,-15.5"/>
<polygon fill="midnightblue" stroke="midnightblue" points="196.28,-12 186.28,-15.5 196.28,-19 196.28,-12"/>
</g>
</g>
</svg>
