<?xml version="1.0" encoding="UTF-8" standalone="no"?>
<!DOCTYPE svg PUBLIC "-//W3C//DTD SVG 1.1//EN"
 "http://www.w3.org/Graphics/SVG/1.1/DTD/svg11.dtd">
<!-- Generated by graphviz version 2.43.0 (0)
 -->
<!-- Title: Graphical Class Hierarchy Pages: 1 -->
<svg width="350pt" height="235pt"
 viewBox="0.00 0.00 350.00 235.00" xmlns="http://www.w3.org/2000/svg" xmlns:xlink="http://www.w3.org/1999/xlink">
<g id="graph0" class="graph" transform="scale(1 1) rotate(0) translate(4 231)">
<title>Graphical Class Hierarchy</title>
<polygon fill="white" stroke="transparent" points="-4,4 -4,-231 346,-231 346,4 -4,4"/>
<!-- Node25 -->
<g id="node1" class="node">
<title>Node25</title>
<g id="a_node1"><a xlink:href="dc/d34/interface_naughty_biker_1_1_info_objects_1_1_interfaces_1_1_i_info_object.html" target="_top" xlink:title=" ">
<polygon fill="white" stroke="black" points="0,-196.5 0,-226.5 143,-226.5 143,-196.5 0,-196.5"/>
<text text-anchor="start" x="8" y="-214.5" font-family="Helvetica,sans-Serif" font-size="10.00">NaughtyBiker.InfoObjects.</text>
<text text-anchor="middle" x="71.5" y="-203.5" font-family="Helvetica,sans-Serif" font-size="10.00">Interfaces.IInfoObject</text>
</a>
</g>
</g>
<!-- Node9 -->
<g id="node2" class="node">
<title>Node9</title>
<g id="a_node2"><a xlink:href="df/dd2/class_naughty_biker_1_1_info_objects_1_1_info_object.html" target="_top" xlink:title=" ">
<polygon fill="white" stroke="black" points="189,-196.5 189,-226.5 332,-226.5 332,-196.5 189,-196.5"/>
<text text-anchor="start" x="197" y="-214.5" font-family="Helvetica,sans-Serif" font-size="10.00">NaughtyBiker.InfoObjects.</text>
<text text-anchor="middle" x="260.5" y="-203.5" font-family="Helvetica,sans-Serif" font-size="10.00">InfoObject</text>
</a>
</g>
</g>
<!-- Node25&#45;&gt;Node9 -->
<g id="edge1" class="edge">
<title>Node25&#45;&gt;Node9</title>
<path fill="none" stroke="midnightblue" d="M153.43,-211.5C165.17,-211.5 177.18,-211.5 188.7,-211.5"/>
<polygon fill="midnightblue" stroke="midnightblue" points="153.2,-208 143.2,-211.5 153.2,-215 153.2,-208"/>
</g>
<!-- Node6 -->
<g id="node3" class="node">
<title>Node6</title>
<g id="a_node3"><a xlink:title=" ">
<polygon fill="white" stroke="#bfbfbf" points="25,-104 25,-123 118,-123 118,-104 25,-104"/>
<text text-anchor="middle" x="71.5" y="-111" font-family="Helvetica,sans-Serif" font-size="10.00">MonoBehaviour</text>
</a>
</g>
</g>
<!-- Node6&#45;&gt;Node9 -->
<g id="edge4" class="edge">
<title>Node6&#45;&gt;Node9</title>
<path fill="none" stroke="midnightblue" d="M91.79,-129.75C112.27,-146.29 146.16,-171.7 179,-187.5 185.96,-190.85 193.5,-193.84 201.06,-196.48"/>
<polygon fill="midnightblue" stroke="midnightblue" points="93.82,-126.89 83.87,-123.25 89.38,-132.3 93.82,-126.89"/>
</g>
<!-- Node0 -->
<g id="node4" class="node">
<title>Node0</title>
<g id="a_node4"><a xlink:href="d4/ded/class_naughty_biker_1_1_destroy_1_1_destroy_after_seconds.html" target="_top" xlink:title=" ">
<polygon fill="white" stroke="black" points="179,-147.5 179,-177.5 342,-177.5 342,-147.5 179,-147.5"/>
<text text-anchor="start" x="187" y="-165.5" font-family="Helvetica,sans-Serif" font-size="10.00">NaughtyBiker.Destroy.Destroy</text>
<text text-anchor="middle" x="260.5" y="-154.5" font-family="Helvetica,sans-Serif" font-size="10.00">AfterSeconds</text>
</a>
</g>
</g>
<!-- Node6&#45;&gt;Node0 -->
<g id="edge2" class="edge">
<title>Node6&#45;&gt;Node0</title>
<path fill="none" stroke="midnightblue" d="M118.68,-125.6C143.9,-132.21 175.34,-140.45 202.11,-147.46"/>
<polygon fill="midnightblue" stroke="midnightblue" points="119.56,-122.21 109,-123.06 117.79,-128.98 119.56,-122.21"/>
</g>
<!-- Node8 -->
<g id="node5" class="node">
<title>Node8</title>
<g id="a_node5"><a xlink:href="d1/df0/class_naughty_biker_1_1_destroy_1_1_dont_destroy_on_load.html" target="_top" xlink:title=" ">
<polygon fill="white" stroke="black" points="186.5,-98.5 186.5,-128.5 334.5,-128.5 334.5,-98.5 186.5,-98.5"/>
<text text-anchor="start" x="194.5" y="-116.5" font-family="Helvetica,sans-Serif" font-size="10.00">NaughtyBiker.Destroy.Dont</text>
<text text-anchor="middle" x="260.5" y="-105.5" font-family="Helvetica,sans-Serif" font-size="10.00">DestroyOnLoad</text>
</a>
</g>
</g>
<!-- Node6&#45;&gt;Node8 -->
<g id="edge3" class="edge">
<title>Node6&#45;&gt;Node8</title>
<path fill="none" stroke="midnightblue" d="M128.36,-113.5C146.52,-113.5 166.95,-113.5 186.18,-113.5"/>
<polygon fill="midnightblue" stroke="midnightblue" points="128.25,-110 118.25,-113.5 128.25,-117 128.25,-110"/>
</g>
<!-- Node10 -->
<g id="node6" class="node">
<title>Node10</title>
<g id="a_node6"><a xlink:href="dc/d10/class_naughty_biker_1_1_info_objects_1_1_info_object_control.html" target="_top" xlink:title=" ">
<polygon fill="white" stroke="black" points="189,-49.5 189,-79.5 332,-79.5 332,-49.5 189,-49.5"/>
<text text-anchor="start" x="197" y="-67.5" font-family="Helvetica,sans-Serif" font-size="10.00">NaughtyBiker.InfoObjects.</text>
<text text-anchor="middle" x="260.5" y="-56.5" font-family="Helvetica,sans-Serif" font-size="10.00">InfoObjectControl</text>
</a>
</g>
</g>
<!-- Node6&#45;&gt;Node10 -->
<g id="edge5" class="edge">
<title>Node6&#45;&gt;Node10</title>
<path fill="none" stroke="midnightblue" d="M118.68,-101.4C143.9,-94.79 175.34,-86.55 202.11,-79.54"/>
<polygon fill="midnightblue" stroke="midnightblue" points="117.79,-98.02 109,-103.94 119.56,-104.79 117.79,-98.02"/>
</g>
<!-- Node11 -->
<g id="node7" class="node">
<title>Node11</title>
<g id="a_node7"><a xlink:href="d3/dfe/class_naughty_biker_1_1_info_objects_1_1_initialize_persistent_data.html" target="_top" xlink:title=" ">
<polygon fill="white" stroke="black" points="189,-0.5 189,-30.5 332,-30.5 332,-0.5 189,-0.5"/>
<text text-anchor="start" x="197" y="-18.5" font-family="Helvetica,sans-Serif" font-size="10.00">NaughtyBiker.InfoObjects.</text>
<text text-anchor="middle" x="260.5" y="-7.5" font-family="Helvetica,sans-Serif" font-size="10.00">InitializePersistentData</text>
</a>
</g>
</g>
<!-- Node6&#45;&gt;Node11 -->
<g id="edge6" class="edge">
<title>Node6&#45;&gt;Node11</title>
<path fill="none" stroke="midnightblue" d="M91.79,-97.25C112.27,-80.71 146.16,-55.3 179,-39.5 185.96,-36.15 193.5,-33.16 201.06,-30.52"/>
<polygon fill="midnightblue" stroke="midnightblue" points="89.38,-94.7 83.87,-103.75 93.82,-100.11 89.38,-94.7"/>
</g>
</g>
</svg>
