<?xml version="1.0" encoding="UTF-8" standalone="no"?>
<!DOCTYPE svg PUBLIC "-//W3C//DTD SVG 1.1//EN"
 "http://www.w3.org/Graphics/SVG/1.1/DTD/svg11.dtd">
<!-- Generated by graphviz version 2.43.0 (0)
 -->
<!-- Title: Graphical Class Hierarchy Pages: 1 -->
<svg width="300pt" height="235pt"
 viewBox="0.00 0.00 300.00 235.00" xmlns="http://www.w3.org/2000/svg" xmlns:xlink="http://www.w3.org/1999/xlink">
<g id="graph0" class="graph" transform="scale(1 1) rotate(0) translate(4 231)">
<title>Graphical Class Hierarchy</title>
<polygon fill="white" stroke="transparent" points="-4,4 -4,-231 296,-231 296,4 -4,4"/>
<!-- Node6 -->
<g id="node1" class="node">
<title>Node6</title>
<g id="a_node1"><a xlink:title=" ">
<polygon fill="white" stroke="#bfbfbf" points="0,-104 0,-123 93,-123 93,-104 0,-104"/>
<text text-anchor="middle" x="46.5" y="-111" font-family="Helvetica,sans-Serif" font-size="10.00">MonoBehaviour</text>
</a>
</g>
</g>
<!-- Node0 -->
<g id="node2" class="node">
<title>Node0</title>
<g id="a_node2"><a xlink:href="d4/ded/class_naughty_biker_1_1_destroy_1_1_destroy_after_seconds.html" target="_top" xlink:title=" ">
<polygon fill="white" stroke="black" points="129,-196.5 129,-226.5 292,-226.5 292,-196.5 129,-196.5"/>
<text text-anchor="start" x="137" y="-214.5" font-family="Helvetica,sans-Serif" font-size="10.00">NaughtyBiker.Destroy.Destroy</text>
<text text-anchor="middle" x="210.5" y="-203.5" font-family="Helvetica,sans-Serif" font-size="10.00">AfterSeconds</text>
</a>
</g>
</g>
<!-- Node6&#45;&gt;Node0 -->
<g id="edge1" class="edge">
<title>Node6&#45;&gt;Node0</title>
<path fill="none" stroke="midnightblue" d="M62.51,-131.09C77.69,-147.83 102.63,-172.63 129,-187.5 134.97,-190.87 141.46,-193.81 148.08,-196.36"/>
<polygon fill="midnightblue" stroke="midnightblue" points="64.75,-128.33 55.5,-123.16 59.5,-132.97 64.75,-128.33"/>
</g>
<!-- Node8 -->
<g id="node3" class="node">
<title>Node8</title>
<g id="a_node3"><a xlink:href="d1/df0/class_naughty_biker_1_1_destroy_1_1_dont_destroy_on_load.html" target="_top" xlink:title=" ">
<polygon fill="white" stroke="black" points="136.5,-147.5 136.5,-177.5 284.5,-177.5 284.5,-147.5 136.5,-147.5"/>
<text text-anchor="start" x="144.5" y="-165.5" font-family="Helvetica,sans-Serif" font-size="10.00">NaughtyBiker.Destroy.Dont</text>
<text text-anchor="middle" x="210.5" y="-154.5" font-family="Helvetica,sans-Serif" font-size="10.00">DestroyOnLoad</text>
</a>
</g>
</g>
<!-- Node6&#45;&gt;Node8 -->
<g id="edge2" class="edge">
<title>Node6&#45;&gt;Node8</title>
<path fill="none" stroke="midnightblue" d="M88.09,-126.02C101.15,-130.03 115.68,-134.47 129,-138.5 138.63,-141.41 148.92,-144.5 158.81,-147.45"/>
<polygon fill="midnightblue" stroke="midnightblue" points="89.03,-122.65 78.44,-123.05 86.97,-129.34 89.03,-122.65"/>
</g>
<!-- Node9 -->
<g id="node4" class="node">
<title>Node9</title>
<g id="a_node4"><a xlink:href="df/dd2/class_naughty_biker_1_1_info_objects_1_1_info_object.html" target="_top" xlink:title=" ">
<polygon fill="white" stroke="black" points="139,-98.5 139,-128.5 282,-128.5 282,-98.5 139,-98.5"/>
<text text-anchor="start" x="147" y="-116.5" font-family="Helvetica,sans-Serif" font-size="10.00">NaughtyBiker.InfoObjects.</text>
<text text-anchor="middle" x="210.5" y="-105.5" font-family="Helvetica,sans-Serif" font-size="10.00">InfoObject</text>
</a>
</g>
</g>
<!-- Node6&#45;&gt;Node9 -->
<g id="edge3" class="edge">
<title>Node6&#45;&gt;Node9</title>
<path fill="none" stroke="midnightblue" d="M103.33,-113.5C114.77,-113.5 126.96,-113.5 138.85,-113.5"/>
<polygon fill="midnightblue" stroke="midnightblue" points="103.06,-110 93.06,-113.5 103.06,-117 103.06,-110"/>
</g>
<!-- Node10 -->
<g id="node5" class="node">
<title>Node10</title>
<g id="a_node5"><a xlink:href="dc/d10/class_naughty_biker_1_1_info_objects_1_1_info_object_control.html" target="_top" xlink:title=" ">
<polygon fill="white" stroke="black" points="139,-49.5 139,-79.5 282,-79.5 282,-49.5 139,-49.5"/>
<text text-anchor="start" x="147" y="-67.5" font-family="Helvetica,sans-Serif" font-size="10.00">NaughtyBiker.InfoObjects.</text>
<text text-anchor="middle" x="210.5" y="-56.5" font-family="Helvetica,sans-Serif" font-size="10.00">InfoObjectControl</text>
</a>
</g>
</g>
<!-- Node6&#45;&gt;Node10 -->
<g id="edge4" class="edge">
<title>Node6&#45;&gt;Node10</title>
<path fill="none" stroke="midnightblue" d="M88.97,-100.96C110.55,-94.43 137.1,-86.4 159.79,-79.54"/>
<polygon fill="midnightblue" stroke="midnightblue" points="87.68,-97.69 79.12,-103.94 89.7,-104.39 87.68,-97.69"/>
</g>
<!-- Node11 -->
<g id="node6" class="node">
<title>Node11</title>
<g id="a_node6"><a xlink:href="d3/dfe/class_naughty_biker_1_1_info_objects_1_1_initialize_persistent_data.html" target="_top" xlink:title=" ">
<polygon fill="white" stroke="black" points="139,-0.5 139,-30.5 282,-30.5 282,-0.5 139,-0.5"/>
<text text-anchor="start" x="147" y="-18.5" font-family="Helvetica,sans-Serif" font-size="10.00">NaughtyBiker.InfoObjects.</text>
<text text-anchor="middle" x="210.5" y="-7.5" font-family="Helvetica,sans-Serif" font-size="10.00">InitializePersistentData</text>
</a>
</g>
</g>
<!-- Node6&#45;&gt;Node11 -->
<g id="edge5" class="edge">
<title>Node6&#45;&gt;Node11</title>
<path fill="none" stroke="midnightblue" d="M63.09,-95.69C78.38,-79.24 103.11,-55.18 129,-40.5 135.75,-36.67 143.15,-33.36 150.65,-30.51"/>
<polygon fill="midnightblue" stroke="midnightblue" points="60.12,-93.76 56,-103.52 65.31,-98.46 60.12,-93.76"/>
</g>
</g>
</svg>
