<?xml version="1.0" encoding="UTF-8" standalone="no"?>
<!DOCTYPE svg PUBLIC "-//W3C//DTD SVG 1.1//EN"
 "http://www.w3.org/Graphics/SVG/1.1/DTD/svg11.dtd">
<!-- Generated by graphviz version 2.43.0 (0)
 -->
<!-- Title: NaughtyBiker.InfoObjects.InfoObjectControl Pages: 1 -->
<svg width="271pt" height="485pt"
 viewBox="0.00 0.00 271.00 485.00" xmlns="http://www.w3.org/2000/svg" xmlns:xlink="http://www.w3.org/1999/xlink">
<g id="graph0" class="graph" transform="scale(1 1) rotate(0) translate(4 481)">
<title>NaughtyBiker.InfoObjects.InfoObjectControl</title>
<polygon fill="white" stroke="transparent" points="-4,4 -4,-481 267,-481 267,4 -4,4"/>
<!-- Node1 -->
<g id="node1" class="node">
<title>Node1</title>
<g id="a_node1"><a xlink:title=" ">
<polygon fill="#bfbfbf" stroke="black" points="0,-0.5 0,-134.5 143,-134.5 143,-0.5 0,-0.5"/>
<text text-anchor="start" x="8" y="-122.5" font-family="Helvetica,sans-Serif" font-size="10.00">NaughtyBiker.InfoObjects.</text>
<text text-anchor="middle" x="71.5" y="-111.5" font-family="Helvetica,sans-Serif" font-size="10.00">InfoObjectControl</text>
<polyline fill="none" stroke="black" points="0,-104.5 143,-104.5 "/>
<text text-anchor="start" x="8" y="-92.5" font-family="Helvetica,sans-Serif" font-size="10.00">+ InfoObj</text>
<text text-anchor="start" x="8" y="-81.5" font-family="Helvetica,sans-Serif" font-size="10.00">&#45; infoObjectPrefab</text>
<text text-anchor="start" x="8" y="-70.5" font-family="Helvetica,sans-Serif" font-size="10.00">&#45; objectTag</text>
<text text-anchor="start" x="8" y="-59.5" font-family="Helvetica,sans-Serif" font-size="10.00">&#45; createInfoObject</text>
<text text-anchor="start" x="8" y="-48.5" font-family="Helvetica,sans-Serif" font-size="10.00">&#45; signalBus</text>
<polyline fill="none" stroke="black" points="0,-41.5 143,-41.5 "/>
<text text-anchor="start" x="8" y="-29.5" font-family="Helvetica,sans-Serif" font-size="10.00">&#45; Construct()</text>
<text text-anchor="start" x="8" y="-18.5" font-family="Helvetica,sans-Serif" font-size="10.00">&#45; Awake()</text>
<text text-anchor="start" x="8" y="-7.5" font-family="Helvetica,sans-Serif" font-size="10.00">&#45; Start()</text>
</a>
</g>
</g>
<!-- Node2 -->
<g id="node2" class="node">
<title>Node2</title>
<g id="a_node2"><a xlink:title=" ">
<polygon fill="white" stroke="#bfbfbf" points="9,-386.5 9,-443.5 102,-443.5 102,-386.5 9,-386.5"/>
<text text-anchor="middle" x="55.5" y="-431.5" font-family="Helvetica,sans-Serif" font-size="10.00">MonoBehaviour</text>
<polyline fill="none" stroke="#bfbfbf" points="9,-424.5 102,-424.5 "/>
<text text-anchor="middle" x="55.5" y="-412.5" font-family="Helvetica,sans-Serif" font-size="10.00"> </text>
<polyline fill="none" stroke="#bfbfbf" points="9,-405.5 102,-405.5 "/>
<text text-anchor="middle" x="55.5" y="-393.5" font-family="Helvetica,sans-Serif" font-size="10.00"> </text>
</a>
</g>
</g>
<!-- Node2&#45;&gt;Node1 -->
<g id="edge1" class="edge">
<title>Node2&#45;&gt;Node1</title>
<path fill="none" stroke="midnightblue" d="M57.25,-376.11C59.94,-318.03 65.12,-206.2 68.44,-134.58"/>
<polygon fill="none" stroke="midnightblue" points="53.75,-376.16 56.78,-386.31 60.74,-376.48 53.75,-376.16"/>
</g>
<!-- Node3 -->
<g id="node3" class="node">
<title>Node3</title>
<g id="a_node3"><a xlink:href="../../df/dd2/class_naughty_biker_1_1_info_objects_1_1_info_object.html" target="_top" xlink:title=" ">
<polygon fill="white" stroke="black" points="84,-182.5 84,-305.5 227,-305.5 227,-182.5 84,-182.5"/>
<text text-anchor="start" x="92" y="-293.5" font-family="Helvetica,sans-Serif" font-size="10.00">NaughtyBiker.InfoObjects.</text>
<text text-anchor="middle" x="155.5" y="-282.5" font-family="Helvetica,sans-Serif" font-size="10.00">InfoObject</text>
<polyline fill="none" stroke="black" points="84,-275.5 227,-275.5 "/>
<text text-anchor="start" x="92" y="-263.5" font-family="Helvetica,sans-Serif" font-size="10.00">&#45; signalBus</text>
<polyline fill="none" stroke="black" points="84,-256.5 227,-256.5 "/>
<text text-anchor="start" x="92" y="-244.5" font-family="Helvetica,sans-Serif" font-size="10.00">+ InitInfoID()</text>
<text text-anchor="start" x="92" y="-233.5" font-family="Helvetica,sans-Serif" font-size="10.00">+ GetInfo()</text>
<text text-anchor="start" x="92" y="-222.5" font-family="Helvetica,sans-Serif" font-size="10.00">+ FireAll()</text>
<text text-anchor="start" x="92" y="-211.5" font-family="Helvetica,sans-Serif" font-size="10.00">&#45; Construct()</text>
<text text-anchor="start" x="92" y="-200.5" font-family="Helvetica,sans-Serif" font-size="10.00">&#45; Awake()</text>
<text text-anchor="start" x="92" y="-189.5" font-family="Helvetica,sans-Serif" font-size="10.00">&#45; OnStateChange()</text>
</a>
</g>
</g>
<!-- Node2&#45;&gt;Node3 -->
<g id="edge3" class="edge">
<title>Node2&#45;&gt;Node3</title>
<path fill="none" stroke="midnightblue" d="M77.04,-377.6C89.42,-356.68 105.28,-329.87 119.51,-305.83"/>
<polygon fill="none" stroke="midnightblue" points="73.87,-376.08 71.79,-386.47 79.89,-379.65 73.87,-376.08"/>
</g>
<!-- Node3&#45;&gt;Node1 -->
<g id="edge2" class="edge">
<title>Node3&#45;&gt;Node1</title>
<path fill="none" stroke="#404040" d="M126.36,-182.46C120.66,-170.63 114.62,-158.07 108.7,-145.78"/>
<polygon fill="none" stroke="#404040" points="108.52,-145.41 102.31,-141.74 103.32,-134.59 109.52,-138.27 108.52,-145.41"/>
<text text-anchor="middle" x="138" y="-156" font-family="Helvetica,sans-Serif" font-size="10.00"> &#45;infoObj</text>
</g>
<!-- Node4 -->
<g id="node4" class="node">
<title>Node4</title>
<g id="a_node4"><a xlink:href="../../d5/daf/interface_naughty_biker_1_1_info_objects_1_1_interfaces_1_1_i_info.html" target="_top" xlink:title=" ">
<polygon fill="white" stroke="black" points="120,-353.5 120,-476.5 263,-476.5 263,-353.5 120,-353.5"/>
<text text-anchor="start" x="128" y="-464.5" font-family="Helvetica,sans-Serif" font-size="10.00">NaughtyBiker.InfoObjects.</text>
<text text-anchor="middle" x="191.5" y="-453.5" font-family="Helvetica,sans-Serif" font-size="10.00">Interfaces.IInfo</text>
<polyline fill="none" stroke="black" points="120,-446.5 263,-446.5 "/>
<text text-anchor="start" x="128" y="-434.5" font-family="Helvetica,sans-Serif" font-size="10.00">+ Data</text>
<text text-anchor="start" x="128" y="-423.5" font-family="Helvetica,sans-Serif" font-size="10.00">+ StateChanged</text>
<text text-anchor="start" x="128" y="-412.5" font-family="Helvetica,sans-Serif" font-size="10.00">+ Id</text>
<text text-anchor="start" x="128" y="-401.5" font-family="Helvetica,sans-Serif" font-size="10.00">+ this[string key]</text>
<polyline fill="none" stroke="black" points="120,-394.5 263,-394.5 "/>
<text text-anchor="start" x="128" y="-382.5" font-family="Helvetica,sans-Serif" font-size="10.00">+ Get()</text>
<text text-anchor="start" x="128" y="-371.5" font-family="Helvetica,sans-Serif" font-size="10.00">+ Set()</text>
<text text-anchor="start" x="128" y="-360.5" font-family="Helvetica,sans-Serif" font-size="10.00">+ Exists()</text>
</a>
</g>
</g>
<!-- Node4&#45;&gt;Node3 -->
<g id="edge4" class="edge">
<title>Node4&#45;&gt;Node3</title>
<path fill="none" stroke="#404040" d="M178.6,-353.46C176.12,-341.81 173.5,-329.5 170.95,-317.52"/>
<polygon fill="none" stroke="#404040" points="170.93,-317.42 165.76,-312.38 168.43,-305.68 173.59,-310.72 170.93,-317.42"/>
<text text-anchor="middle" x="188.5" y="-327" font-family="Helvetica,sans-Serif" font-size="10.00"> &#45;info</text>
</g>
</g>
</svg>
