<?xml version="1.0" encoding="UTF-8" standalone="no"?>
<!DOCTYPE svg PUBLIC "-//W3C//DTD SVG 1.1//EN"
 "http://www.w3.org/Graphics/SVG/1.1/DTD/svg11.dtd">
<!-- Generated by graphviz version 2.43.0 (0)
 -->
<!-- Title: NaughtyBiker.InfoObjects.InfoObjectControl Pages: 1 -->
<svg width="262pt" height="270pt"
 viewBox="0.00 0.00 262.00 270.00" xmlns="http://www.w3.org/2000/svg" xmlns:xlink="http://www.w3.org/1999/xlink">
<g id="graph0" class="graph" transform="scale(1 1) rotate(0) translate(4 266)">
<title>NaughtyBiker.InfoObjects.InfoObjectControl</title>
<polygon fill="white" stroke="transparent" points="-4,4 -4,-266 258,-266 258,4 -4,4"/>
<!-- Node1 -->
<g id="node1" class="node">
<title>Node1</title>
<g id="a_node1"><a xlink:title=" ">
<polygon fill="#bfbfbf" stroke="black" points="43,-0.5 43,-145.5 186,-145.5 186,-0.5 43,-0.5"/>
<text text-anchor="start" x="51" y="-133.5" font-family="Helvetica,sans-Serif" font-size="10.00">NaughtyBiker.InfoObjects.</text>
<text text-anchor="middle" x="114.5" y="-122.5" font-family="Helvetica,sans-Serif" font-size="10.00">InfoObjectControl</text>
<polyline fill="none" stroke="black" points="43,-115.5 186,-115.5 "/>
<text text-anchor="start" x="51" y="-103.5" font-family="Helvetica,sans-Serif" font-size="10.00">+ InfoObjectPrefab</text>
<text text-anchor="start" x="51" y="-92.5" font-family="Helvetica,sans-Serif" font-size="10.00">+ ObjectTag</text>
<text text-anchor="start" x="51" y="-81.5" font-family="Helvetica,sans-Serif" font-size="10.00">+ InfoObj</text>
<text text-anchor="start" x="51" y="-70.5" font-family="Helvetica,sans-Serif" font-size="10.00">&#45; infoObjectPrefab</text>
<text text-anchor="start" x="51" y="-59.5" font-family="Helvetica,sans-Serif" font-size="10.00">&#45; objectTag</text>
<text text-anchor="start" x="51" y="-48.5" font-family="Helvetica,sans-Serif" font-size="10.00">&#45; createInfoObject</text>
<text text-anchor="start" x="51" y="-37.5" font-family="Helvetica,sans-Serif" font-size="10.00">&#45; signalBus</text>
<polyline fill="none" stroke="black" points="43,-30.5 186,-30.5 "/>
<text text-anchor="start" x="51" y="-18.5" font-family="Helvetica,sans-Serif" font-size="10.00">+ Construct()</text>
<text text-anchor="start" x="51" y="-7.5" font-family="Helvetica,sans-Serif" font-size="10.00">&#45; Start()</text>
</a>
</g>
</g>
<!-- Node2 -->
<g id="node2" class="node">
<title>Node2</title>
<g id="a_node2"><a xlink:title=" ">
<polygon fill="white" stroke="#bfbfbf" points="0,-199 0,-256 93,-256 93,-199 0,-199"/>
<text text-anchor="middle" x="46.5" y="-244" font-family="Helvetica,sans-Serif" font-size="10.00">MonoBehaviour</text>
<polyline fill="none" stroke="#bfbfbf" points="0,-237 93,-237 "/>
<text text-anchor="middle" x="46.5" y="-225" font-family="Helvetica,sans-Serif" font-size="10.00"> </text>
<polyline fill="none" stroke="#bfbfbf" points="0,-218 93,-218 "/>
<text text-anchor="middle" x="46.5" y="-206" font-family="Helvetica,sans-Serif" font-size="10.00"> </text>
</a>
</g>
</g>
<!-- Node2&#45;&gt;Node1 -->
<g id="edge1" class="edge">
<title>Node2&#45;&gt;Node1</title>
<path fill="none" stroke="midnightblue" d="M62.94,-189.62C68.87,-176.32 75.79,-160.82 82.59,-145.57"/>
<polygon fill="none" stroke="midnightblue" points="59.69,-188.32 58.81,-198.88 66.08,-191.18 59.69,-188.32"/>
</g>
<!-- Node3 -->
<g id="node3" class="node">
<title>Node3</title>
<g id="a_node3"><a xlink:href="../../dc/d34/interface_naughty_biker_1_1_info_objects_1_1_interfaces_1_1_i_info_object.html" target="_top" xlink:title=" ">
<polygon fill="white" stroke="black" points="111,-193.5 111,-261.5 254,-261.5 254,-193.5 111,-193.5"/>
<text text-anchor="start" x="119" y="-249.5" font-family="Helvetica,sans-Serif" font-size="10.00">NaughtyBiker.InfoObjects.</text>
<text text-anchor="middle" x="182.5" y="-238.5" font-family="Helvetica,sans-Serif" font-size="10.00">Interfaces.IInfoObject</text>
<polyline fill="none" stroke="black" points="111,-231.5 254,-231.5 "/>
<text text-anchor="middle" x="182.5" y="-219.5" font-family="Helvetica,sans-Serif" font-size="10.00"> </text>
<polyline fill="none" stroke="black" points="111,-212.5 254,-212.5 "/>
<text text-anchor="start" x="119" y="-200.5" font-family="Helvetica,sans-Serif" font-size="10.00">+ FireAll()</text>
</a>
</g>
</g>
<!-- Node3&#45;&gt;Node1 -->
<g id="edge2" class="edge">
<title>Node3&#45;&gt;Node1</title>
<path fill="none" stroke="#404040" d="M167.75,-193.41C162.83,-182.39 157.12,-169.58 151.3,-156.52"/>
<polygon fill="none" stroke="#404040" points="151.28,-156.49 145.18,-152.64 146.39,-145.53 152.49,-149.38 151.28,-156.49"/>
<text text-anchor="middle" x="180" y="-167" font-family="Helvetica,sans-Serif" font-size="10.00"> &#45;infoObj</text>
</g>
</g>
</svg>
