<?xml version="1.0" encoding="UTF-8" standalone="no"?>
<!DOCTYPE svg PUBLIC "-//W3C//DTD SVG 1.1//EN"
 "http://www.w3.org/Graphics/SVG/1.1/DTD/svg11.dtd">
<!-- Generated by graphviz version 2.43.0 (0)
 -->
<!-- Title: NaughtyBikerGames.SDK.LevelManagement.Installers.LevelManagerSceneAdaptersInstaller Pages: 1 -->
<svg width="209pt" height="287pt"
 viewBox="0.00 0.00 209.00 287.00" xmlns="http://www.w3.org/2000/svg" xmlns:xlink="http://www.w3.org/1999/xlink">
<g id="graph0" class="graph" transform="scale(1 1) rotate(0) translate(4 283)">
<title>NaughtyBikerGames.SDK.LevelManagement.Installers.LevelManagerSceneAdaptersInstaller</title>
<polygon fill="white" stroke="transparent" points="-4,4 -4,-283 205,-283 205,4 -4,4"/>
<!-- Node1 -->
<g id="node1" class="node">
<title>Node1</title>
<g id="a_node1"><a xlink:title=" ">
<polygon fill="#bfbfbf" stroke="black" points="0,-0.5 0,-79.5 201,-79.5 201,-0.5 0,-0.5"/>
<text text-anchor="start" x="8" y="-67.5" font-family="Helvetica,sans-Serif" font-size="10.00">NaughtyBikerGames.SDK.Level</text>
<text text-anchor="start" x="8" y="-56.5" font-family="Helvetica,sans-Serif" font-size="10.00">Management.Installers.LevelManager</text>
<text text-anchor="middle" x="100.5" y="-45.5" font-family="Helvetica,sans-Serif" font-size="10.00">SceneAdaptersInstaller</text>
<polyline fill="none" stroke="black" points="0,-38.5 201,-38.5 "/>
<text text-anchor="middle" x="100.5" y="-26.5" font-family="Helvetica,sans-Serif" font-size="10.00"> </text>
<polyline fill="none" stroke="black" points="0,-19.5 201,-19.5 "/>
<text text-anchor="start" x="8" y="-7.5" font-family="Helvetica,sans-Serif" font-size="10.00">+ InstallBindings()</text>
</a>
</g>
</g>
<!-- Node2 -->
<g id="node2" class="node">
<title>Node2</title>
<g id="a_node2"><a xlink:href="../../d6/dcb/class_naughty_biker_games_1_1_s_d_k_1_1_level_management_1_1_installers_1_1_level_manager_base_installer.html" target="_top" xlink:title=" ">
<polygon fill="white" stroke="black" points="26,-116.5 26,-173.5 175,-173.5 175,-116.5 26,-116.5"/>
<text text-anchor="middle" x="100.5" y="-161.5" font-family="Helvetica,sans-Serif" font-size="10.00">LevelManagerBaseInstaller</text>
<polyline fill="none" stroke="black" points="26,-154.5 175,-154.5 "/>
<text text-anchor="middle" x="100.5" y="-142.5" font-family="Helvetica,sans-Serif" font-size="10.00"> </text>
<polyline fill="none" stroke="black" points="26,-135.5 175,-135.5 "/>
<text text-anchor="start" x="34" y="-123.5" font-family="Helvetica,sans-Serif" font-size="10.00">+ InstallBindings()</text>
</a>
</g>
</g>
<!-- Node2&#45;&gt;Node1 -->
<g id="edge1" class="edge">
<title>Node2&#45;&gt;Node1</title>
<path fill="none" stroke="midnightblue" d="M100.5,-106.16C100.5,-97.47 100.5,-88.23 100.5,-79.52"/>
<polygon fill="none" stroke="midnightblue" points="97,-106.4 100.5,-116.4 104,-106.4 97,-106.4"/>
</g>
<!-- Node3 -->
<g id="node3" class="node">
<title>Node3</title>
<g id="a_node3"><a xlink:title=" ">
<polygon fill="white" stroke="#bfbfbf" points="20,-210.5 20,-278.5 181,-278.5 181,-210.5 20,-210.5"/>
<text text-anchor="start" x="28" y="-266.5" font-family="Helvetica,sans-Serif" font-size="10.00">Installer&lt; LevelManagerBase</text>
<text text-anchor="middle" x="100.5" y="-255.5" font-family="Helvetica,sans-Serif" font-size="10.00">Installer &gt;</text>
<polyline fill="none" stroke="#bfbfbf" points="20,-248.5 181,-248.5 "/>
<text text-anchor="middle" x="100.5" y="-236.5" font-family="Helvetica,sans-Serif" font-size="10.00"> </text>
<polyline fill="none" stroke="#bfbfbf" points="20,-229.5 181,-229.5 "/>
<text text-anchor="middle" x="100.5" y="-217.5" font-family="Helvetica,sans-Serif" font-size="10.00"> </text>
</a>
</g>
</g>
<!-- Node3&#45;&gt;Node2 -->
<g id="edge2" class="edge">
<title>Node3&#45;&gt;Node2</title>
<path fill="none" stroke="midnightblue" d="M100.5,-200.45C100.5,-191.4 100.5,-182.09 100.5,-173.78"/>
<polygon fill="none" stroke="midnightblue" points="97,-200.49 100.5,-210.49 104,-200.49 97,-200.49"/>
</g>
</g>
</svg>
