<?xml version="1.0" encoding="UTF-8" standalone="no"?>
<!DOCTYPE svg PUBLIC "-//W3C//DTD SVG 1.1//EN"
 "http://www.w3.org/Graphics/SVG/1.1/DTD/svg11.dtd">
<!-- Generated by graphviz version 2.43.0 (0)
 -->
<!-- Title: NaughtyBikerGames.SDK.InfoObjects.Components.InfoObject Pages: 1 -->
<svg width="370pt" height="281pt"
 viewBox="0.00 0.00 369.50 281.00" xmlns="http://www.w3.org/2000/svg" xmlns:xlink="http://www.w3.org/1999/xlink">
<g id="graph0" class="graph" transform="scale(1 1) rotate(0) translate(4 277)">
<title>NaughtyBikerGames.SDK.InfoObjects.Components.InfoObject</title>
<polygon fill="white" stroke="transparent" points="-4,4 -4,-277 365.5,-277 365.5,4 -4,4"/>
<!-- Node1 -->
<g id="node1" class="node">
<title>Node1</title>
<g id="a_node1"><a xlink:title=" ">
<polygon fill="#bfbfbf" stroke="black" points="61,-0.5 61,-101.5 232,-101.5 232,-0.5 61,-0.5"/>
<text text-anchor="start" x="69" y="-89.5" font-family="Helvetica,sans-Serif" font-size="10.00">NaughtyBikerGames.SDK.Info</text>
<text text-anchor="middle" x="146.5" y="-78.5" font-family="Helvetica,sans-Serif" font-size="10.00">Objects.Components.InfoObject</text>
<polyline fill="none" stroke="black" points="61,-71.5 232,-71.5 "/>
<text text-anchor="start" x="69" y="-59.5" font-family="Helvetica,sans-Serif" font-size="10.00">&#45; signalBus</text>
<polyline fill="none" stroke="black" points="61,-52.5 232,-52.5 "/>
<text text-anchor="start" x="69" y="-40.5" font-family="Helvetica,sans-Serif" font-size="10.00">+ Construct()</text>
<text text-anchor="start" x="69" y="-29.5" font-family="Helvetica,sans-Serif" font-size="10.00">+ GetInfo()</text>
<text text-anchor="start" x="69" y="-18.5" font-family="Helvetica,sans-Serif" font-size="10.00">+ FireAll()</text>
<text text-anchor="start" x="69" y="-7.5" font-family="Helvetica,sans-Serif" font-size="10.00">&#45; OnStateChange()</text>
</a>
</g>
</g>
<!-- Node2 -->
<g id="node2" class="node">
<title>Node2</title>
<g id="a_node2"><a xlink:title=" ">
<polygon fill="white" stroke="#bfbfbf" points="0,-182.5 0,-239.5 93,-239.5 93,-182.5 0,-182.5"/>
<text text-anchor="middle" x="46.5" y="-227.5" font-family="Helvetica,sans-Serif" font-size="10.00">MonoBehaviour</text>
<polyline fill="none" stroke="#bfbfbf" points="0,-220.5 93,-220.5 "/>
<text text-anchor="middle" x="46.5" y="-208.5" font-family="Helvetica,sans-Serif" font-size="10.00"> </text>
<polyline fill="none" stroke="#bfbfbf" points="0,-201.5 93,-201.5 "/>
<text text-anchor="middle" x="46.5" y="-189.5" font-family="Helvetica,sans-Serif" font-size="10.00"> </text>
</a>
</g>
</g>
<!-- Node2&#45;&gt;Node1 -->
<g id="edge1" class="edge">
<title>Node2&#45;&gt;Node1</title>
<path fill="none" stroke="midnightblue" d="M69.29,-173.99C82.87,-152.54 100.29,-125.01 115.15,-101.53"/>
<polygon fill="none" stroke="midnightblue" points="66.31,-172.16 63.92,-182.48 72.22,-175.9 66.31,-172.16"/>
</g>
<!-- Node3 -->
<g id="node3" class="node">
<title>Node3</title>
<g id="a_node3"><a xlink:href="../../d9/dda/interface_naughty_biker_games_1_1_s_d_k_1_1_info_objects_1_1_interfaces_1_1_i_info_object.html" target="_top" xlink:title=" ">
<polygon fill="white" stroke="black" points="111.5,-182.5 111.5,-239.5 181.5,-239.5 181.5,-182.5 111.5,-182.5"/>
<text text-anchor="middle" x="146.5" y="-227.5" font-family="Helvetica,sans-Serif" font-size="10.00">IInfoObject</text>
<polyline fill="none" stroke="black" points="111.5,-220.5 181.5,-220.5 "/>
<text text-anchor="middle" x="146.5" y="-208.5" font-family="Helvetica,sans-Serif" font-size="10.00"> </text>
<polyline fill="none" stroke="black" points="111.5,-201.5 181.5,-201.5 "/>
<text text-anchor="start" x="119.5" y="-189.5" font-family="Helvetica,sans-Serif" font-size="10.00">+ FireAll()</text>
</a>
</g>
</g>
<!-- Node3&#45;&gt;Node1 -->
<g id="edge2" class="edge">
<title>Node3&#45;&gt;Node1</title>
<path fill="none" stroke="midnightblue" d="M146.5,-172.26C146.5,-151.07 146.5,-124.38 146.5,-101.53"/>
<polygon fill="none" stroke="midnightblue" points="143,-172.48 146.5,-182.48 150,-172.48 143,-172.48"/>
</g>
<!-- Node4 -->
<g id="node4" class="node">
<title>Node4</title>
<g id="a_node4"><a xlink:href="../../d4/d84/interface_naughty_biker_games_1_1_s_d_k_1_1_info_objects_1_1_interfaces_1_1_i_info.html" target="_top" xlink:title=" ">
<polygon fill="white" stroke="black" points="199.5,-149.5 199.5,-272.5 361.5,-272.5 361.5,-149.5 199.5,-149.5"/>
<text text-anchor="start" x="207.5" y="-260.5" font-family="Helvetica,sans-Serif" font-size="10.00">NaughtyBikerGames.SDK.Info</text>
<text text-anchor="middle" x="280.5" y="-249.5" font-family="Helvetica,sans-Serif" font-size="10.00">Objects.Interfaces.IInfo</text>
<polyline fill="none" stroke="black" points="199.5,-242.5 361.5,-242.5 "/>
<text text-anchor="start" x="207.5" y="-230.5" font-family="Helvetica,sans-Serif" font-size="10.00">+ Data</text>
<text text-anchor="start" x="207.5" y="-219.5" font-family="Helvetica,sans-Serif" font-size="10.00">+ StateChanged</text>
<text text-anchor="start" x="207.5" y="-208.5" font-family="Helvetica,sans-Serif" font-size="10.00">+ Id</text>
<text text-anchor="start" x="207.5" y="-197.5" font-family="Helvetica,sans-Serif" font-size="10.00">+ this[string key]</text>
<polyline fill="none" stroke="black" points="199.5,-190.5 361.5,-190.5 "/>
<text text-anchor="start" x="207.5" y="-178.5" font-family="Helvetica,sans-Serif" font-size="10.00">+ Get()</text>
<text text-anchor="start" x="207.5" y="-167.5" font-family="Helvetica,sans-Serif" font-size="10.00">+ Set()</text>
<text text-anchor="start" x="207.5" y="-156.5" font-family="Helvetica,sans-Serif" font-size="10.00">+ Exists()</text>
</a>
</g>
</g>
<!-- Node4&#45;&gt;Node1 -->
<g id="edge3" class="edge">
<title>Node4&#45;&gt;Node1</title>
<path fill="none" stroke="#404040" d="M229.08,-149.36C218.43,-136.81 207.23,-123.61 196.63,-111.11"/>
<polygon fill="none" stroke="#404040" points="196.42,-110.87 189.49,-108.88 188.66,-101.71 195.59,-103.7 196.42,-110.87"/>
<text text-anchor="middle" x="226.5" y="-123" font-family="Helvetica,sans-Serif" font-size="10.00"> &#45;info</text>
</g>
</g>
</svg>
