<?xml version="1.0" encoding="UTF-8" standalone="no"?>
<!DOCTYPE svg PUBLIC "-//W3C//DTD SVG 1.1//EN"
 "http://www.w3.org/Graphics/SVG/1.1/DTD/svg11.dtd">
<!-- Generated by graphviz version 2.43.0 (0)
 -->
<!-- Title: NaughtyBikerGames.SDK.LevelManagement.Installers.LevelManagerBaseInstaller Pages: 1 -->
<svg width="209pt" height="193pt"
 viewBox="0.00 0.00 209.00 193.00" xmlns="http://www.w3.org/2000/svg" xmlns:xlink="http://www.w3.org/1999/xlink">
<g id="graph0" class="graph" transform="scale(1 1) rotate(0) translate(4 189)">
<title>NaughtyBikerGames.SDK.LevelManagement.Installers.LevelManagerBaseInstaller</title>
<polygon fill="white" stroke="transparent" points="-4,4 -4,-189 205,-189 205,4 -4,4"/>
<!-- Node1 -->
<g id="node1" class="node">
<title>Node1</title>
<g id="a_node1"><a xlink:title=" ">
<polygon fill="#bfbfbf" stroke="black" points="0,-0.5 0,-79.5 201,-79.5 201,-0.5 0,-0.5"/>
<text text-anchor="start" x="8" y="-67.5" font-family="Helvetica,sans-Serif" font-size="10.00">NaughtyBikerGames.SDK.Level</text>
<text text-anchor="start" x="8" y="-56.5" font-family="Helvetica,sans-Serif" font-size="10.00">Management.Installers.LevelManager</text>
<text text-anchor="middle" x="100.5" y="-45.5" font-family="Helvetica,sans-Serif" font-size="10.00">BaseInstaller</text>
<polyline fill="none" stroke="black" points="0,-38.5 201,-38.5 "/>
<text text-anchor="middle" x="100.5" y="-26.5" font-family="Helvetica,sans-Serif" font-size="10.00"> </text>
<polyline fill="none" stroke="black" points="0,-19.5 201,-19.5 "/>
<text text-anchor="start" x="8" y="-7.5" font-family="Helvetica,sans-Serif" font-size="10.00">+ InstallBindings()</text>
</a>
</g>
</g>
<!-- Node2 -->
<g id="node2" class="node">
<title>Node2</title>
<g id="a_node2"><a xlink:title=" ">
<polygon fill="white" stroke="#bfbfbf" points="20,-116.5 20,-184.5 181,-184.5 181,-116.5 20,-116.5"/>
<text text-anchor="start" x="28" y="-172.5" font-family="Helvetica,sans-Serif" font-size="10.00">Installer&lt; LevelManagerBase</text>
<text text-anchor="middle" x="100.5" y="-161.5" font-family="Helvetica,sans-Serif" font-size="10.00">Installer &gt;</text>
<polyline fill="none" stroke="#bfbfbf" points="20,-154.5 181,-154.5 "/>
<text text-anchor="middle" x="100.5" y="-142.5" font-family="Helvetica,sans-Serif" font-size="10.00"> </text>
<polyline fill="none" stroke="#bfbfbf" points="20,-135.5 181,-135.5 "/>
<text text-anchor="middle" x="100.5" y="-123.5" font-family="Helvetica,sans-Serif" font-size="10.00"> </text>
</a>
</g>
</g>
<!-- Node2&#45;&gt;Node1 -->
<g id="edge1" class="edge">
<title>Node2&#45;&gt;Node1</title>
<path fill="none" stroke="midnightblue" d="M100.5,-106.27C100.5,-97.48 100.5,-88.28 100.5,-79.65"/>
<polygon fill="none" stroke="midnightblue" points="97,-106.36 100.5,-116.36 104,-106.36 97,-106.36"/>
</g>
</g>
</svg>
