<?xml version="1.0" encoding="UTF-8" standalone="no"?>
<!DOCTYPE svg PUBLIC "-//W3C//DTD SVG 1.1//EN"
 "http://www.w3.org/Graphics/SVG/1.1/DTD/svg11.dtd">
<!-- Generated by graphviz version 2.43.0 (0)
 -->
<!-- Title: NaughtyBikerGames.SDK.Adapters.RaycastHitAdapter Pages: 1 -->
<svg width="198pt" height="193pt"
 viewBox="0.00 0.00 198.00 193.00" xmlns="http://www.w3.org/2000/svg" xmlns:xlink="http://www.w3.org/1999/xlink">
<g id="graph0" class="graph" transform="scale(1 1) rotate(0) translate(4 189)">
<title>NaughtyBikerGames.SDK.Adapters.RaycastHitAdapter</title>
<polygon fill="white" stroke="transparent" points="-4,4 -4,-189 194,-189 194,4 -4,4"/>
<!-- Node1 -->
<g id="node1" class="node">
<title>Node1</title>
<g id="a_node1"><a xlink:title=" ">
<polygon fill="#bfbfbf" stroke="black" points="0,-0.5 0,-90.5 190,-90.5 190,-0.5 0,-0.5"/>
<text text-anchor="start" x="8" y="-78.5" font-family="Helvetica,sans-Serif" font-size="10.00">NaughtyBikerGames.SDK.Adapters.</text>
<text text-anchor="middle" x="95" y="-67.5" font-family="Helvetica,sans-Serif" font-size="10.00">RaycastHitAdapter</text>
<polyline fill="none" stroke="black" points="0,-60.5 190,-60.5 "/>
<text text-anchor="start" x="8" y="-48.5" font-family="Helvetica,sans-Serif" font-size="10.00">+ GameObject</text>
<text text-anchor="start" x="8" y="-37.5" font-family="Helvetica,sans-Serif" font-size="10.00">&#45; hit</text>
<polyline fill="none" stroke="black" points="0,-30.5 190,-30.5 "/>
<text text-anchor="start" x="8" y="-18.5" font-family="Helvetica,sans-Serif" font-size="10.00">+ RaycastHitAdapter()</text>
<text text-anchor="start" x="8" y="-7.5" font-family="Helvetica,sans-Serif" font-size="10.00">+ IsAHit()</text>
</a>
</g>
</g>
<!-- Node2 -->
<g id="node2" class="node">
<title>Node2</title>
<g id="a_node2"><a xlink:href="../../dd/dd0/interface_naughty_biker_games_1_1_s_d_k_1_1_adapters_1_1_interfaces_1_1_i_raycast_hit.html" target="_top" xlink:title=" ">
<polygon fill="white" stroke="black" points="50.5,-127.5 50.5,-184.5 139.5,-184.5 139.5,-127.5 50.5,-127.5"/>
<text text-anchor="middle" x="95" y="-172.5" font-family="Helvetica,sans-Serif" font-size="10.00">IRaycastHit</text>
<polyline fill="none" stroke="black" points="50.5,-165.5 139.5,-165.5 "/>
<text text-anchor="start" x="58.5" y="-153.5" font-family="Helvetica,sans-Serif" font-size="10.00">+ GameObject</text>
<polyline fill="none" stroke="black" points="50.5,-146.5 139.5,-146.5 "/>
<text text-anchor="start" x="58.5" y="-134.5" font-family="Helvetica,sans-Serif" font-size="10.00">+ IsAHit()</text>
</a>
</g>
</g>
<!-- Node2&#45;&gt;Node1 -->
<g id="edge1" class="edge">
<title>Node2&#45;&gt;Node1</title>
<path fill="none" stroke="midnightblue" d="M95,-117.21C95,-108.61 95,-99.39 95,-90.55"/>
<polygon fill="none" stroke="midnightblue" points="91.5,-117.34 95,-127.34 98.5,-117.34 91.5,-117.34"/>
</g>
</g>
</svg>
