<?xml version="1.0" encoding="UTF-8" standalone="no"?>
<!DOCTYPE svg PUBLIC "-//W3C//DTD SVG 1.1//EN"
 "http://www.w3.org/Graphics/SVG/1.1/DTD/svg11.dtd">
<!-- Generated by graphviz version 2.43.0 (0)
 -->
<!-- Title: NaughtyBikerGames.SDK.InfoObjects.Components.InfoObjectControl Pages: 1 -->
<svg width="282pt" height="270pt"
 viewBox="0.00 0.00 281.50 270.00" xmlns="http://www.w3.org/2000/svg" xmlns:xlink="http://www.w3.org/1999/xlink">
<g id="graph0" class="graph" transform="scale(1 1) rotate(0) translate(4 266)">
<title>NaughtyBikerGames.SDK.InfoObjects.Components.InfoObjectControl</title>
<polygon fill="white" stroke="transparent" points="-4,4 -4,-266 277.5,-266 277.5,4 -4,4"/>
<!-- Node1 -->
<g id="node1" class="node">
<title>Node1</title>
<g id="a_node1"><a xlink:title=" ">
<polygon fill="#bfbfbf" stroke="black" points="16.5,-0.5 16.5,-145.5 222.5,-145.5 222.5,-0.5 16.5,-0.5"/>
<text text-anchor="start" x="24.5" y="-133.5" font-family="Helvetica,sans-Serif" font-size="10.00">NaughtyBikerGames.SDK.Info</text>
<text text-anchor="middle" x="119.5" y="-122.5" font-family="Helvetica,sans-Serif" font-size="10.00">Objects.Components.InfoObjectControl</text>
<polyline fill="none" stroke="black" points="16.5,-115.5 222.5,-115.5 "/>
<text text-anchor="start" x="24.5" y="-103.5" font-family="Helvetica,sans-Serif" font-size="10.00">+ InfoObjectPrefab</text>
<text text-anchor="start" x="24.5" y="-92.5" font-family="Helvetica,sans-Serif" font-size="10.00">+ ObjectTag</text>
<text text-anchor="start" x="24.5" y="-81.5" font-family="Helvetica,sans-Serif" font-size="10.00">+ InfoObj</text>
<text text-anchor="start" x="24.5" y="-70.5" font-family="Helvetica,sans-Serif" font-size="10.00">&#45; infoObjectPrefab</text>
<text text-anchor="start" x="24.5" y="-59.5" font-family="Helvetica,sans-Serif" font-size="10.00">&#45; objectTag</text>
<text text-anchor="start" x="24.5" y="-48.5" font-family="Helvetica,sans-Serif" font-size="10.00">&#45; createInfoObject</text>
<text text-anchor="start" x="24.5" y="-37.5" font-family="Helvetica,sans-Serif" font-size="10.00">&#45; signalBus</text>
<polyline fill="none" stroke="black" points="16.5,-30.5 222.5,-30.5 "/>
<text text-anchor="start" x="24.5" y="-18.5" font-family="Helvetica,sans-Serif" font-size="10.00">+ Construct()</text>
<text text-anchor="start" x="24.5" y="-7.5" font-family="Helvetica,sans-Serif" font-size="10.00">+ Start()</text>
</a>
</g>
</g>
<!-- Node2 -->
<g id="node2" class="node">
<title>Node2</title>
<g id="a_node2"><a xlink:title=" ">
<polygon fill="white" stroke="#bfbfbf" points="0,-199 0,-256 93,-256 93,-199 0,-199"/>
<text text-anchor="middle" x="46.5" y="-244" font-family="Helvetica,sans-Serif" font-size="10.00">MonoBehaviour</text>
<polyline fill="none" stroke="#bfbfbf" points="0,-237 93,-237 "/>
<text text-anchor="middle" x="46.5" y="-225" font-family="Helvetica,sans-Serif" font-size="10.00"> </text>
<polyline fill="none" stroke="#bfbfbf" points="0,-218 93,-218 "/>
<text text-anchor="middle" x="46.5" y="-206" font-family="Helvetica,sans-Serif" font-size="10.00"> </text>
</a>
</g>
</g>
<!-- Node2&#45;&gt;Node1 -->
<g id="edge1" class="edge">
<title>Node2&#45;&gt;Node1</title>
<path fill="none" stroke="midnightblue" d="M64.15,-189.62C70.52,-176.32 77.94,-160.82 85.24,-145.57"/>
<polygon fill="none" stroke="midnightblue" points="60.88,-188.35 59.72,-198.88 67.19,-191.37 60.88,-188.35"/>
</g>
<!-- Node3 -->
<g id="node3" class="node">
<title>Node3</title>
<g id="a_node3"><a xlink:href="../../d9/dda/interface_naughty_biker_games_1_1_s_d_k_1_1_info_objects_1_1_interfaces_1_1_i_info_object.html" target="_top" xlink:title=" ">
<polygon fill="white" stroke="black" points="111.5,-193.5 111.5,-261.5 273.5,-261.5 273.5,-193.5 111.5,-193.5"/>
<text text-anchor="start" x="119.5" y="-249.5" font-family="Helvetica,sans-Serif" font-size="10.00">NaughtyBikerGames.SDK.Info</text>
<text text-anchor="middle" x="192.5" y="-238.5" font-family="Helvetica,sans-Serif" font-size="10.00">Objects.Interfaces.IInfoObject</text>
<polyline fill="none" stroke="black" points="111.5,-231.5 273.5,-231.5 "/>
<text text-anchor="middle" x="192.5" y="-219.5" font-family="Helvetica,sans-Serif" font-size="10.00"> </text>
<polyline fill="none" stroke="black" points="111.5,-212.5 273.5,-212.5 "/>
<text text-anchor="start" x="119.5" y="-200.5" font-family="Helvetica,sans-Serif" font-size="10.00">+ FireAll()</text>
</a>
</g>
</g>
<!-- Node3&#45;&gt;Node1 -->
<g id="edge2" class="edge">
<title>Node3&#45;&gt;Node1</title>
<path fill="none" stroke="#404040" d="M176.66,-193.41C171.39,-182.39 165.25,-169.58 159,-156.52"/>
<polygon fill="none" stroke="#404040" points="158.92,-156.35 152.72,-152.67 153.74,-145.53 159.94,-149.21 158.92,-156.35"/>
<text text-anchor="middle" x="188" y="-167" font-family="Helvetica,sans-Serif" font-size="10.00"> &#45;infoObj</text>
</g>
</g>
</svg>
